<svg width="17" height="24" viewBox="0 0 17 24" fill="none" xmlns="http://www.w3.org/2000/svg">
<path d="M9.79943 16.6875H0.75V11.8125H9.79983C9.86945 11.5369 10.0003 11.2805 10.1827 11.0625H0.75C0.551153 11.0627 0.36051 11.1418 0.219904 11.2824C0.0792976 11.423 0.00021193 11.6137 0 11.8125V16.6875C0.00021193 16.8863 0.0792976 17.077 0.219904 17.2176C0.36051 17.3582 0.551153 17.4373 0.75 17.4375H10.1826C9.99995 17.2196 9.86897 16.9632 9.79943 16.6875ZM10.7128 10.5345C11.0488 10.2633 11.467 10.1143 11.8988 10.1119C11.9888 10.1119 12.0788 10.1186 12.1679 10.1319C12.3444 9.89562 12.5738 9.70408 12.8378 9.57263C13.1017 9.44118 13.3928 9.37349 13.6877 9.375H14.0627C14.3575 9.37351 14.6485 9.44121 14.9124 9.57266C15.1763 9.70412 15.4057 9.89565 15.5821 10.1319C15.6713 10.1186 15.7613 10.1119 15.8514 10.1119C16.073 10.113 16.2926 10.1535 16.5 10.2315V6.56249C16.4719 6.30884 16.3577 6.07249 16.1765 5.89288L10.5831 0.339844C10.5494 0.305271 10.2859 0 10.125 0H2.25C1.95173 0.000325573 1.66577 0.118957 1.45486 0.329864C1.24396 0.540772 1.12533 0.826731 1.125 1.125V10.3125H10.1827C10.2813 10.3127 10.3789 10.3325 10.4699 10.3706C10.5609 10.4087 10.6434 10.4644 10.7128 10.5345ZM10.5 1.31419L15.4087 6.1875H10.8712C10.7693 6.1838 10.6731 6.1399 10.6035 6.06542C10.534 5.99094 10.4967 5.89193 10.5 5.79007V1.31419ZM15.5821 18.3681C15.4057 18.6044 15.1763 18.7959 14.9124 18.9274C14.6486 19.0588 14.3575 19.1265 14.0627 19.125H13.6877C13.3928 19.1265 13.1017 19.0588 12.8377 18.9273C12.5738 18.7959 12.3444 18.6043 12.1679 18.368C12.0787 18.3813 11.9887 18.388 11.8986 18.388C11.4669 18.3854 11.0488 18.2364 10.7128 17.9654C10.6434 18.0355 10.5608 18.0913 10.4698 18.1294C10.3788 18.1675 10.2812 18.1873 10.1825 18.1875H1.125V22.875C1.12533 23.1733 1.24396 23.4592 1.45486 23.6701C1.66577 23.881 1.95173 23.9997 2.25 24H15.375C15.6733 23.9997 15.9592 23.881 16.1701 23.6701C16.381 23.4592 16.4997 23.1733 16.5 22.875V18.2683C16.2926 18.3463 16.073 18.3869 15.8514 18.388C15.7613 18.388 15.6713 18.3814 15.5821 18.3681Z" fill="white"/>
</svg>
