<svg width="18" height="16" viewBox="0 0 18 16" fill="none" xmlns="http://www.w3.org/2000/svg">
<path d="M18 10C18 8.9 17.1 8 16 8C17.1 8 18 7.1 18 6C18 4.9 17.1 4 16 4H10C9.9 4 9.9 4 9.8 4C10.9 4.2 11.6 5.2 11.5 6.3C11.4 7.2 10.7 7.9 9.8 8C9.9 8 9.9 8 10 8C9.9 8 9.9 8 9.8 8C10.9 8.2 11.6 9.2 11.5 10.3C11.4 11.2 10.7 11.9 9.8 12C9.9 12 9.9 12 10 12C9.9 12 9.9 12 9.8 12C10.9 12.2 11.6 13.2 11.5 14.3C11.4 15.2 10.7 15.9 9.8 16C9.9 16 9.9 16 10 16H16C17.1 16 18 15.1 18 14C18 12.9 17.1 12 16 12C17.1 12 18 11.1 18 10ZM8 12C9.1 12 10 11.1 10 10C10 8.9 9.1 8 8 8C9.1 8 10 7.1 10 6C10 4.9 9.1 4 8 4C9.1 4 10 3.1 10 2C10 0.9 9.1 0 8 0H2C0.9 0 0 0.9 0 2C0 3.1 0.9 4 2 4C0.9 4 0 4.9 0 6C0 7.1 0.9 8 2 8C0.9 8 0 8.9 0 10C0 11.1 0.9 12 2 12C0.9 12 0 12.9 0 14C0 15.1 0.9 16 2 16H8C9.1 16 10 15.1 10 14C10 12.9 9.1 12 8 12Z" fill="white"/>
</svg>
