<svg width="19" height="21" viewBox="0 0 19 21" fill="none" xmlns="http://www.w3.org/2000/svg">
<path d="M17 0H1C0.4 0 0 0.4 0 1V19C0 19.6 0.4 20 1 20C1.2 20 1.4 19.9 1.6 19.8L3.7 18.3L5.8 19.8C6.2 20.1 6.6 20.1 7 19.8L9.1 18.3L11.2 19.8C11.6 20.1 12 20.1 12.4 19.8L14.5 18.3L16.6 19.8C16.8 19.9 17 20 17.2 20C17.8 20 18.2 19.6 18.2 19V1C18 0.4 17.6 0 17 0ZM13 14H5C4.4 14 4 13.6 4 13C4 12.4 4.4 12 5 12H13C13.6 12 14 12.4 14 13C14 13.6 13.6 14 13 14ZM13 10H5C4.4 10 4 9.6 4 9C4 8.4 4.4 8 5 8H13C13.6 8 14 8.4 14 9C14 9.6 13.6 10 13 10ZM13 6H7C6.4 6 6 5.6 6 5C6 4.4 6.4 4 7 4H13C13.6 4 14 4.4 14 5C14 5.6 13.6 6 13 6Z" fill="white"/>
</svg>
