<svg width="31" height="30" viewBox="0 0 31 30" fill="none" xmlns="http://www.w3.org/2000/svg">
<path d="M28.5 27H3V26.19L10.5 18.69L16.2 24.39C16.481 24.6694 16.8612 24.8262 17.2575 24.8262C17.6538 24.8262 18.034 24.6694 18.315 24.39L29.565 13.14C29.7056 13.0006 29.8172 12.8347 29.8933 12.6519C29.9695 12.4691 30.0087 12.273 30.0087 12.075C30.0087 11.877 29.9695 11.6809 29.8933 11.4981C29.8172 11.3153 29.7056 11.1494 29.565 11.01C29.284 10.7306 28.9038 10.5738 28.5075 10.5738C28.1112 10.5738 27.731 10.7306 27.45 11.01L17.25 21.21L11.565 15.51C11.284 15.2306 10.9038 15.0738 10.5075 15.0738C10.1112 15.0738 9.73104 15.2306 9.45 15.51L3 21.945V14.19L10.5 6.69L14.7 10.89C14.981 11.1694 15.3612 11.3262 15.7575 11.3262C16.1538 11.3262 16.534 11.1694 16.815 10.89L24 3.705L27.285 6.99C27.5675 7.27047 27.9498 7.42724 28.3478 7.42583C28.7458 7.42443 29.127 7.26496 29.4075 6.9825C29.688 6.70004 29.8447 6.31774 29.8433 5.9197C29.8419 5.52165 29.6825 5.14047 29.4 4.86L25.035 0.525C24.754 0.245623 24.3738 0.0888108 23.9775 0.0888108C23.5812 0.0888108 23.201 0.245623 22.92 0.525L15.72 7.725L11.535 3.525C11.254 3.24562 10.8738 3.08881 10.4775 3.08881C10.0812 3.08881 9.70104 3.24562 9.42 3.525L3 9.945V1.5C3 1.10218 2.84196 0.720644 2.56066 0.43934C2.27936 0.158035 1.89782 0 1.5 0C1.10218 0 0.720644 0.158035 0.43934 0.43934C0.158035 0.720644 0 1.10218 0 1.5V28.5C0 28.8978 0.158035 29.2794 0.43934 29.5607C0.720644 29.842 1.10218 30 1.5 30H28.5C28.8978 30 29.2794 29.842 29.5607 29.5607C29.842 29.2794 30 28.8978 30 28.5C30 28.1022 29.842 27.7206 29.5607 27.4393C29.2794 27.158 28.8978 27 28.5 27Z" fill="#EFEFEF"/>
</svg>
