<svg width="24" height="24" viewBox="0 0 24 24" fill="none" xmlns="http://www.w3.org/2000/svg">
<path fill-rule="evenodd" clip-rule="evenodd" d="M7.04961 0.0902306C5.0066 0.502754 3.4617 2.06309 3.06523 4.11445C3.00764 4.41225 2.9765 4.99735 2.9765 5.78062V6.98772L2.3342 7.01281C1.79856 7.03364 1.62943 7.06654 1.31593 7.21059C0.827969 7.4349 0.399039 7.86019 0.176961 8.33989L0 8.72207V13.5072V18.2924L0.175457 18.6677C0.403802 19.1562 0.829849 19.5835 1.30903 19.8046L1.69191 19.9812L6.87202 19.9983L12.0521 20.0153L12.0964 19.8106C12.1545 19.542 12.3417 19.174 12.602 18.8173L12.8122 18.5291L12.5883 18.0933C12.2989 17.5302 12.1943 16.8777 12.2971 16.2779C12.521 14.9736 14.002 13.2106 15.5517 12.4036L16.0149 12.1624L15.997 10.4422L15.9791 8.72207L15.8037 8.34677C15.5739 7.85512 15.1489 7.43002 14.6701 7.21272C14.3517 7.06823 14.179 7.03464 13.6449 7.01331L13.0026 6.98772V5.78199C13.0026 4.04376 12.842 3.33588 12.2225 2.34369C11.1511 0.627857 9.0089 -0.305404 7.04961 0.0902306ZM7.24462 2.09674C6.18542 2.38103 5.35463 3.22216 5.07522 4.29303C5.00842 4.54905 4.98172 4.98659 4.98172 5.82659V7.00192H7.98956H10.9974V5.82659C10.9974 4.98659 10.9707 4.54905 10.9039 4.29303C10.4809 2.67177 8.81878 1.67415 7.24462 2.09674ZM18.2335 13.569C17.4818 13.6793 16.7425 13.9702 16.0709 14.42C15.2273 14.9851 14.3359 16.0944 14.2722 16.6587C14.2103 17.207 14.6191 17.6936 15.1828 17.7427C15.602 17.7792 15.8538 17.6218 16.2133 17.0983C16.9669 16.0013 18.0261 15.4459 19.2063 15.5291C19.6771 15.5622 20.292 15.7386 20.5694 15.9201L20.7175 16.0169L20.4744 16.2523C20.1155 16.6 20.0209 16.7612 20.0209 17.0249C20.0209 17.2078 20.07 17.3156 20.2354 17.4958L20.4499 17.7294H22.0201H23.5903L23.7952 17.5249L24 17.3205V15.7619V14.2035L23.8188 14.0148C23.4541 13.6347 23.0672 13.6819 22.5691 14.1673C22.3769 14.3547 22.1972 14.5073 22.1698 14.5064C22.1425 14.5055 21.9656 14.4066 21.7768 14.2865C20.8124 13.6732 19.4304 13.3934 18.2335 13.569ZM14.4701 19.8213C14.3984 19.8511 14.2644 19.9649 14.1724 20.0739L14.0052 20.2723V21.7696V23.267L14.2197 23.5007C14.4132 23.7113 14.4654 23.7343 14.7504 23.7343C15.0513 23.7343 15.0841 23.7169 15.4306 23.3746C15.6309 23.1768 15.8166 23.015 15.8434 23.015C15.8701 23.015 16.0759 23.1257 16.3006 23.261C17.9084 24.229 19.9687 24.2473 21.6501 23.3086C22.2321 22.9837 23.1572 22.088 23.5039 21.5137C23.812 21.0033 23.8447 20.5525 23.5985 20.2079C23.3966 19.9253 22.9651 19.7365 22.6399 19.7884C22.2816 19.8456 22.115 19.9794 21.7743 20.4833C21.0699 21.5254 19.9966 22.0761 18.8303 21.9939C18.3571 21.9606 17.7443 21.7842 17.4634 21.6004L17.3117 21.5012L17.648 21.1613C17.9634 20.8425 17.9843 20.8021 17.9843 20.512C17.9843 20.246 17.9556 20.1739 17.7796 19.9981L17.5748 19.7936L16.0877 19.7803C15.2698 19.773 14.5418 19.7914 14.4701 19.8213Z" fill="#142464"/>
</svg>
