<svg width="190" height="190" viewBox="0 0 384 384" fill="none" xmlns="http://www.w3.org/2000/svg">
<circle cx="190.5" cy="191.5" r="110.5" fill="#667CD5"/>
<circle cx="201.5" cy="199.5" r="102.5" fill="#8697DE"/>
<path fill-rule="evenodd" clip-rule="evenodd" d="M138.813 11.9806C138.345 12.0559 137.961 12.2479 137.961 12.4067C137.961 12.5659 137.265 12.696 136.413 12.696C135.562 12.696 134.865 12.8353 134.865 13.0057C134.865 13.176 134.377 13.3153 133.781 13.3153C133.024 13.3153 132.697 13.4553 132.697 13.7799C132.697 14.1044 132.37 14.2444 131.613 14.2444C131.017 14.2444 130.529 14.3837 130.529 14.554C130.529 14.7244 130.181 14.8637 129.755 14.8637C129.329 14.8637 128.981 15.0003 128.981 15.1675C128.981 15.3344 128.632 15.5586 128.207 15.6655C127.781 15.7723 127.432 15.9841 127.432 16.1359C127.432 16.2879 127.084 16.4121 126.658 16.4121C126.232 16.4121 125.884 16.5422 125.884 16.701C125.884 16.8599 125.571 17.0888 125.187 17.2098C124.804 17.3306 124.265 17.6886 123.99 18.0048C123.714 18.321 123.257 18.5799 122.973 18.5799C122.69 18.5799 122.378 18.7889 122.28 19.0444C122.182 19.2999 121.971 19.5089 121.811 19.5089C121.651 19.5089 121.185 19.8226 120.775 20.2057C119.65 21.2583 119.118 21.6766 118.905 21.6766C118.581 21.6766 116.284 24.1088 116.284 24.4516C116.284 24.6285 116.135 24.7734 115.952 24.7734C115.406 24.7734 114.736 25.6142 114.736 26.2998C114.736 26.6525 114.586 26.9411 114.404 26.9411C114.043 26.9411 113.187 27.7036 113.187 28.025C113.187 28.1346 113.013 28.4183 112.8 28.6558C111.881 29.6806 111.639 30.0308 111.639 30.3346C111.639 30.512 111.515 30.6573 111.363 30.6573C111.211 30.6573 110.999 31.0057 110.892 31.4315C110.785 31.8573 110.561 32.2057 110.394 32.2057C110.227 32.2057 110.091 32.554 110.091 32.9799C110.091 33.4057 109.951 33.754 109.781 33.754C109.611 33.754 109.471 34.1024 109.471 34.5282C109.471 35.0101 109.296 35.3024 109.007 35.3024C108.718 35.3024 108.542 35.5948 108.542 36.0766C108.542 36.5024 108.403 36.8508 108.232 36.8508C108.062 36.8508 107.923 37.3386 107.923 37.9347C107.923 38.5308 107.802 39.0186 107.655 39.0186C107.342 39.0186 106.374 41.4257 106.374 42.203C106.374 42.4956 106.257 42.7347 106.115 42.7347C105.972 42.7347 105.588 43.2906 105.263 43.97C104.938 44.6491 104.567 45.2065 104.439 45.2087C104.311 45.2106 104.207 45.476 104.207 45.7983C104.207 46.1207 103.998 46.4648 103.742 46.5629C103.487 46.6608 103.278 46.9556 103.278 47.2182C103.278 47.4805 102.864 48.1283 102.358 48.6576C101.852 49.1868 101.355 49.8824 101.253 50.2029C101.151 50.5237 100.938 50.7863 100.779 50.7863C100.621 50.7863 100.491 50.9953 100.491 51.2508C100.491 51.5063 100.341 51.7153 100.159 51.7153C99.9762 51.7153 99.6278 51.9145 99.3847 52.1579C99.1413 52.401 98.9422 52.7494 98.9422 52.9321C98.9422 53.1145 98.7966 53.2637 98.6185 53.2637C98.198 53.2637 96.7744 54.6873 96.7744 55.1079C96.7744 55.2859 96.6251 55.4315 96.4427 55.4315C96.26 55.4315 95.9166 55.6055 95.6791 55.8186C94.7501 56.6519 94.3156 56.9799 94.1418 56.9799C94.0418 56.9799 93.5844 57.3282 93.1255 57.7541C92.6662 58.1799 92.1147 58.5282 91.9001 58.5282C91.6855 58.5282 91.5099 58.6676 91.5099 58.8379C91.5099 59.0082 91.3009 59.1476 91.0454 59.1476C90.7899 59.1476 90.5809 59.287 90.5809 59.4573C90.5809 59.6276 90.2978 59.767 89.9519 59.767C89.6057 59.767 89.2424 59.976 89.1446 60.2315C89.0464 60.487 88.6327 60.696 88.2251 60.696C87.8176 60.696 87.4841 60.8353 87.4841 61.0057C87.4841 61.176 87.2054 61.3153 86.8647 61.3153C86.5207 61.3153 86.2454 61.5219 86.2454 61.7799C86.2454 62.1044 85.9184 62.2444 85.1615 62.2444C84.5654 62.2444 84.0776 62.3837 84.0776 62.5541C84.0776 62.7244 83.6943 62.8687 83.226 62.8746C82.7578 62.8808 82.026 63.0848 81.6002 63.3282C81.1744 63.5717 80.5126 63.7757 80.1292 63.7819C79.7459 63.7878 79.4325 63.9321 79.4325 64.1024C79.4325 64.2793 78.5034 64.4121 77.2647 64.4121C76.0725 64.4121 75.097 64.5338 75.097 64.6828C75.097 64.8317 73.05 65.0151 70.5481 65.0903C67.4263 65.1841 65.9612 65.3421 65.8773 65.5938C65.8033 65.8156 65.0987 65.9605 64.096 65.9605C63.1834 65.9605 62.3507 66.0999 62.2454 66.2702C62.1401 66.4405 61.5746 66.5799 60.9884 66.5799C60.2477 66.5799 59.9228 66.7214 59.9228 67.0444C59.9228 67.3689 59.5958 67.5089 58.8389 67.5089C58.2428 67.5089 57.7551 67.6482 57.7551 67.8186C57.7551 67.9889 57.4333 68.1282 57.04 68.1282C56.6467 68.1282 56.0546 68.3329 55.7239 68.5829C55.3935 68.8331 54.8791 69.0421 54.5809 69.0474C54.2826 69.0529 54.0389 69.1966 54.0389 69.367C54.0389 69.5373 53.6905 69.6766 53.2647 69.6766C52.8389 69.6766 52.4905 69.816 52.4905 69.9863C52.4905 70.1566 52.2815 70.296 52.026 70.296C51.7705 70.296 51.5615 70.505 51.5615 70.7605C51.5615 71.0185 51.2862 71.225 50.9422 71.225C50.6015 71.225 50.3228 71.3492 50.3228 71.5013C50.3228 71.653 49.9744 71.8648 49.5486 71.9716C49.1228 72.0785 48.7744 72.3027 48.7744 72.4696C48.7744 72.6368 48.6233 72.7734 48.439 72.7734C48.2545 72.7734 47.6298 73.2611 47.0507 73.8573C46.472 74.4534 45.8594 74.9411 45.6897 74.9411C45.3088 74.9411 41.9615 78.3098 41.9615 78.6929C41.9615 78.8453 41.2647 79.6523 40.4131 80.4862C39.5615 81.3199 38.8647 82.2316 38.8647 82.5115C38.8647 82.7918 38.5163 83.3693 38.0905 83.7951C37.6647 84.2209 37.3163 84.7719 37.3163 85.0196C37.3163 85.2673 37.177 85.4702 37.0067 85.4702C36.8363 85.4702 36.697 85.8186 36.697 86.2444C36.697 86.7262 36.5214 87.0186 36.2325 87.0186C35.977 87.0186 35.768 87.2889 35.768 87.6197C35.768 87.9504 35.6286 88.3068 35.4583 88.4121C35.288 88.5174 35.1486 88.9435 35.1486 89.3594C35.1486 89.7753 35.0092 90.1153 34.8389 90.1153C34.6686 90.1153 34.5293 90.3674 34.5293 90.6755C34.5293 90.9837 34.3246 91.5061 34.0746 91.8368C33.8244 92.1673 33.6154 92.8907 33.6101 93.4444C33.6046 93.9981 33.4609 94.4508 33.2905 94.4508C33.1202 94.4508 32.9809 95.0878 32.9809 95.8664C32.9809 96.7121 32.7938 97.4692 32.5163 97.7467C32.1869 98.0762 32.0518 98.8798 32.0518 100.512C32.0518 101.839 31.9208 102.812 31.7422 102.812C31.5601 102.812 31.4325 103.896 31.4325 105.444C31.4325 106.993 31.5601 108.077 31.7422 108.077C31.9208 108.077 32.0518 109.05 32.0518 110.377C32.0518 112.009 32.1869 112.813 32.5163 113.142C32.7938 113.419 32.9809 114.177 32.9809 115.022C32.9809 115.801 33.1202 116.438 33.2905 116.438C33.4609 116.438 33.6002 117.037 33.6002 117.77C33.6002 118.502 33.7544 119.255 33.9433 119.444C34.1319 119.633 34.3602 120.706 34.4503 121.829C34.5404 122.951 34.7343 123.87 34.8814 123.87C35.0284 123.87 35.1486 125.891 35.1486 128.36C35.1486 130.83 35.0284 132.851 34.8814 132.851C34.7343 132.851 34.5404 133.77 34.4503 134.892C34.3602 136.015 34.1319 137.088 33.9433 137.277C33.7544 137.466 33.6002 138.219 33.6002 138.951C33.6002 139.684 33.4609 140.283 33.2905 140.283C33.1202 140.283 32.9809 140.771 32.9809 141.367C32.9809 142.124 32.8409 142.451 32.5163 142.451C32.2274 142.451 32.0518 142.743 32.0518 143.225C32.0518 143.651 31.9125 143.999 31.7422 143.999C31.5718 143.999 31.4325 144.348 31.4325 144.773C31.4325 145.199 31.2959 145.548 31.1287 145.548C30.9618 145.548 30.7376 145.896 30.6307 146.322C30.5239 146.748 30.3121 147.096 30.1603 147.096C30.0083 147.096 29.8841 147.375 29.8841 147.715C29.8841 148.056 29.7599 148.335 29.6079 148.335C29.4561 148.335 29.2443 148.683 29.1375 149.109C29.0306 149.535 28.8064 149.883 28.6395 149.883C28.4723 149.883 28.3357 150.092 28.3357 150.348C28.3357 150.603 28.1963 150.812 28.026 150.812C27.8557 150.812 27.7163 151.019 27.7163 151.273C27.7163 151.526 27.0196 152.433 26.168 153.29C25.3164 154.146 24.6196 154.916 24.6196 155.001C24.6196 155.207 21.56 158.244 21.3525 158.244C21.263 158.244 20.5804 158.871 19.8357 159.638C19.0906 160.404 18.3359 161.031 18.1582 161.031C17.9804 161.031 17.4865 161.38 17.0607 161.806C16.6349 162.231 16.1406 162.58 15.9625 162.58C15.7845 162.58 15.6389 162.729 15.6389 162.91C15.6389 163.092 15.1512 163.701 14.5551 164.263C13.9589 164.825 13.4712 165.428 13.4712 165.603C13.4712 165.777 13.2621 166 13.0067 166.098C12.7512 166.196 12.5422 166.43 12.5422 166.617C12.5422 166.804 12.0544 167.417 11.4583 167.979C10.8622 168.541 10.3744 169.229 10.3744 169.507C10.3744 169.785 10.2682 170.012 10.1381 170.012C9.90154 170.012 9.34225 170.93 8.95826 171.948C8.84585 172.246 8.63062 172.49 8.48011 172.49C8.32992 172.49 8.20667 172.838 8.20667 173.264C8.20667 173.746 8.03108 174.038 7.74215 174.038C7.45323 174.038 7.27764 174.33 7.27764 174.812C7.27764 175.238 7.13828 175.586 6.96796 175.586C6.79764 175.586 6.65828 176.074 6.65828 176.67C6.65828 177.427 6.5183 177.754 6.19377 177.754C5.86923 177.754 5.72925 178.081 5.72925 178.838C5.72925 179.434 5.58989 179.922 5.41957 179.922C5.24925 179.922 5.1099 180.41 5.1099 181.006C5.1099 181.602 4.97054 182.09 4.80022 182.09C4.62773 182.09 4.49054 182.923 4.49054 183.97C4.49054 185.228 4.33694 186.004 4.02603 186.314C3.34289 186.998 3.34289 197.001 4.02603 197.684C4.33694 197.995 4.49054 198.77 4.49054 200.029C4.49054 201.076 4.62773 201.909 4.80022 201.909C4.97054 201.909 5.1099 202.397 5.1099 202.993C5.1099 203.589 5.24925 204.077 5.41957 204.077C5.58989 204.077 5.72925 204.564 5.72925 205.16C5.72925 205.917 5.86923 206.244 6.19377 206.244C6.5183 206.244 6.65828 206.571 6.65828 207.328C6.65828 207.924 6.79764 208.412 6.96796 208.412C7.13828 208.412 7.27764 208.76 7.27764 209.186C7.27764 209.668 7.45323 209.96 7.74215 209.96C8.03108 209.96 8.20667 210.253 8.20667 210.735C8.20667 211.161 8.31289 211.509 8.44295 211.509C8.67954 211.509 9.23883 212.426 9.62283 213.444C9.73524 213.742 9.95047 213.986 10.101 213.986C10.2512 213.986 10.3744 214.214 10.3744 214.492C10.3744 214.769 10.8343 215.432 11.3963 215.963C11.9584 216.494 12.5115 217.172 12.6255 217.47C12.7391 217.768 12.976 218.012 13.1519 218.012C13.3275 218.012 13.4712 218.17 13.4712 218.363C13.4712 218.555 13.9589 219.173 14.5551 219.735C15.1512 220.298 15.6389 220.906 15.6389 221.088C15.6389 221.27 15.7795 221.419 15.9514 221.419C16.1233 221.419 16.7014 221.837 17.2359 222.348C17.7707 222.859 18.3269 223.277 18.4719 223.277C18.6171 223.277 19.2931 223.834 19.9744 224.515C20.6557 225.197 21.2809 225.754 21.3639 225.754C21.6587 225.754 24.6196 228.848 24.6196 229.156C24.6196 229.329 24.8286 229.47 25.0841 229.47C25.3396 229.47 25.5486 229.621 25.5486 229.806C25.5486 229.99 26.0364 230.615 26.6325 231.194C27.2286 231.773 27.7163 232.458 27.7163 232.716C27.7163 232.975 27.8557 233.186 28.026 233.186C28.1963 233.186 28.3357 233.395 28.3357 233.651C28.3357 233.906 28.4723 234.115 28.6395 234.115C28.8064 234.115 29.0306 234.464 29.1375 234.89C29.2443 235.315 29.4561 235.664 29.6079 235.664C29.7599 235.664 29.8841 235.942 29.8841 236.283C29.8841 236.624 30.0083 236.902 30.1603 236.902C30.3121 236.902 30.5239 237.251 30.6307 237.677C30.7376 238.102 30.9618 238.451 31.1287 238.451C31.2959 238.451 31.4325 238.799 31.4325 239.225C31.4325 239.651 31.5718 239.999 31.7422 239.999C31.9125 239.999 32.0518 240.348 32.0518 240.773C32.0518 241.255 32.2274 241.548 32.5163 241.548C32.8409 241.548 32.9809 241.875 32.9809 242.631C32.9809 243.228 33.1202 243.715 33.2905 243.715C33.4609 243.715 33.6002 244.315 33.6002 245.047C33.6002 245.779 33.7544 246.533 33.9433 246.722C34.1319 246.91 34.3602 247.983 34.4503 249.106C34.5404 250.229 34.7343 251.148 34.8814 251.148C35.0284 251.148 35.1486 253.168 35.1486 255.638C35.1486 258.108 35.0294 260.128 34.8838 260.128C34.7383 260.128 34.5345 261.137 34.4311 262.369C34.328 263.602 34.0985 264.659 33.9217 264.718C33.7448 264.777 33.6002 265.44 33.6002 266.193C33.6002 266.945 33.4609 267.561 33.2905 267.561C33.1202 267.561 32.9809 268.198 32.9809 268.976C32.9809 269.822 32.7938 270.579 32.5163 270.856C32.1822 271.191 32.0518 272.005 32.0518 273.758C32.0518 275.098 31.9125 276.281 31.7422 276.386C31.3365 276.637 31.3365 280.567 31.7422 280.567C31.9242 280.567 32.0518 281.643 32.0518 283.177C32.0518 285.084 32.1769 285.912 32.5163 286.252C32.7938 286.529 32.9809 287.286 32.9809 288.132C32.9809 288.911 33.1202 289.548 33.2905 289.548C33.4609 289.548 33.6002 290.035 33.6002 290.631C33.6002 291.228 33.7334 291.715 33.896 291.715C34.0585 291.715 34.2831 292.203 34.3949 292.799C34.5066 293.395 34.7222 293.883 34.8733 293.883C35.0247 293.883 35.1486 294.231 35.1486 294.657C35.1486 295.083 35.288 295.431 35.4583 295.431C35.6286 295.431 35.768 295.78 35.768 296.206C35.768 296.688 35.9436 296.98 36.2325 296.98C36.5214 296.98 36.697 297.272 36.697 297.754C36.697 298.18 36.8363 298.528 37.0067 298.528C37.177 298.528 37.3163 298.731 37.3163 298.979C37.3163 299.227 37.6647 299.777 38.0905 300.203C38.5163 300.629 38.8647 301.263 38.8647 301.611C38.8647 301.968 39.0679 302.244 39.3293 302.244C39.5847 302.244 39.7938 302.423 39.7938 302.64C39.7938 302.858 40.0725 303.238 40.4131 303.483C40.7538 303.729 41.0325 304.108 41.0325 304.326C41.0325 304.543 41.2415 304.722 41.497 304.722C41.7525 304.722 41.9615 304.915 41.9615 305.152C41.9615 305.733 45.2627 309.057 45.839 309.057C46.091 309.057 46.297 309.266 46.297 309.522C46.297 309.777 46.4754 309.986 46.6931 309.986C46.9111 309.986 47.2901 310.265 47.5357 310.606C47.7813 310.946 48.1603 311.225 48.3783 311.225C48.596 311.225 48.7753 311.329 48.7763 311.457C48.7791 311.769 50.5696 312.773 51.1221 312.773C51.3636 312.773 51.5615 312.982 51.5615 313.238C51.5615 313.493 51.7705 313.702 52.026 313.702C52.2815 313.702 52.4905 313.842 52.4905 314.012C52.4905 314.182 52.8389 314.322 53.2647 314.322C53.6905 314.322 54.0389 314.458 54.0389 314.626C54.0389 314.793 54.3873 315.017 54.8131 315.124C55.2389 315.23 55.5873 315.442 55.5873 315.594C55.5873 315.746 56.0751 315.87 56.6712 315.87C57.2673 315.87 57.7551 316.01 57.7551 316.18C57.7551 316.35 58.0437 316.49 58.3964 316.49C58.7494 316.49 59.2471 316.699 59.5026 316.954C59.758 317.21 60.4449 317.419 61.0287 317.419C61.6127 317.419 62.0905 317.558 62.0905 317.728C62.0905 317.9 62.9078 318.038 63.9229 318.038C65.086 318.038 65.8008 318.175 65.8807 318.414C65.9686 318.678 67.2981 318.827 70.3193 318.91C72.6914 318.975 74.765 319.154 74.9267 319.307C75.0886 319.461 76.1685 319.586 77.3267 319.586C78.5242 319.586 79.4325 319.72 79.4325 319.896C79.4325 320.066 79.7542 320.206 80.1475 320.206C80.5408 320.206 81.1329 320.41 81.4636 320.66C81.7941 320.91 82.5175 321.12 83.0712 321.125C83.6249 321.13 84.0776 321.274 84.0776 321.444C84.0776 321.615 84.5654 321.754 85.1615 321.754C85.9184 321.754 86.2454 321.894 86.2454 322.219C86.2454 322.474 86.5157 322.683 86.8465 322.683C87.1772 322.683 87.5336 322.822 87.6389 322.993C87.7442 323.163 88.0858 323.302 88.3983 323.302C88.7107 323.302 89.0464 323.511 89.1446 323.767C89.2424 324.022 89.6057 324.231 89.9519 324.231C90.2978 324.231 90.5809 324.371 90.5809 324.541C90.5809 324.711 90.7899 324.851 91.0454 324.851C91.3009 324.851 91.5099 324.99 91.5099 325.16C91.5099 325.331 91.6855 325.47 91.9001 325.47C92.1147 325.47 92.6662 325.819 93.1255 326.244C93.5844 326.67 94.0458 327.019 94.1508 327.019C94.2555 327.019 94.5354 327.193 94.773 327.406C95.7977 328.325 96.1479 328.567 96.4517 328.567C96.6292 328.567 96.7744 328.712 96.7744 328.891C96.7744 329.311 98.198 330.735 98.6185 330.735C98.7966 330.735 98.9422 330.884 98.9422 331.066C98.9422 331.495 99.73 332.283 100.159 332.283C100.341 332.283 100.491 332.492 100.491 332.748C100.491 333.003 100.621 333.212 100.779 333.212C100.938 333.212 101.151 333.475 101.253 333.796C101.355 334.116 101.852 334.812 102.358 335.341C102.864 335.87 103.278 336.518 103.278 336.78C103.278 337.043 103.487 337.338 103.742 337.435C103.998 337.534 104.207 337.811 104.207 338.052C104.207 338.518 105.75 341.038 106.142 341.212C106.27 341.269 106.374 341.543 106.374 341.821C106.374 342.579 107.348 344.98 107.655 344.98C107.802 344.98 107.923 345.468 107.923 346.064C107.923 346.66 108.062 347.148 108.232 347.148C108.403 347.148 108.542 347.496 108.542 347.922C108.542 348.404 108.718 348.696 109.007 348.696C109.296 348.696 109.471 348.988 109.471 349.47C109.471 349.896 109.611 350.244 109.781 350.244C109.951 350.244 110.091 350.593 110.091 351.019C110.091 351.444 110.227 351.793 110.394 351.793C110.561 351.793 110.785 352.141 110.892 352.567C110.999 352.993 111.189 353.341 111.314 353.341C111.439 353.341 111.804 353.829 112.125 354.425C112.446 355.021 112.816 355.509 112.948 355.509C113.08 355.509 113.187 355.658 113.187 355.841C113.187 356.269 113.975 357.057 114.404 357.057C114.586 357.057 114.736 357.346 114.736 357.699C114.736 358.384 115.406 359.225 115.952 359.225C116.135 359.225 116.284 359.37 116.284 359.547C116.284 359.89 118.581 362.322 118.905 362.322C119.118 362.322 119.65 362.74 120.775 363.793C121.185 364.176 121.651 364.49 121.811 364.49C121.971 364.49 122.182 364.699 122.28 364.954C122.378 365.21 122.69 365.419 122.973 365.419C123.257 365.419 123.714 365.677 123.99 365.994C124.265 366.31 124.804 366.668 125.187 366.789C125.57 366.91 125.884 367.139 125.884 367.297C125.884 367.456 126.232 367.586 126.658 367.586C127.084 367.586 127.432 367.71 127.432 367.863C127.432 368.014 127.781 368.226 128.207 368.333C128.632 368.44 128.981 368.664 128.981 368.831C128.981 368.998 129.329 369.135 129.755 369.135C130.181 369.135 130.529 369.274 130.529 369.444C130.529 369.615 131.002 369.754 131.58 369.754C132.228 369.754 132.699 369.932 132.809 370.219C132.913 370.49 133.377 370.683 133.926 370.683C134.442 370.683 134.865 370.822 134.865 370.993C134.865 371.163 135.55 371.302 136.387 371.302C137.33 371.302 137.959 371.45 138.039 371.69C138.137 371.985 139.919 372.077 145.548 372.077C151.177 372.077 152.959 371.985 153.058 371.69C153.14 371.443 153.798 371.302 154.865 371.302C155.787 371.302 156.542 371.163 156.542 370.993C156.542 370.822 156.95 370.683 157.449 370.683C157.948 370.683 158.565 370.474 158.82 370.219C159.076 369.963 159.574 369.754 159.927 369.754C160.279 369.754 160.568 369.615 160.568 369.444C160.568 369.274 161.056 369.135 161.652 369.135C162.248 369.135 162.736 368.998 162.736 368.831C162.736 368.664 163.084 368.44 163.51 368.333C163.936 368.226 164.284 368.014 164.284 367.863C164.284 367.71 164.542 367.586 164.858 367.586C165.174 367.586 165.808 367.238 166.268 366.812C166.727 366.386 167.305 366.038 167.552 366.038C167.798 366.038 168 365.914 168 365.762C168 365.61 168.349 365.398 168.774 365.291C169.2 365.184 169.549 364.96 169.549 364.793C169.549 364.626 169.758 364.49 170.013 364.49C170.269 364.49 170.478 364.35 170.478 364.18C170.478 364.01 170.756 363.87 171.097 363.87C171.438 363.87 171.716 363.746 171.716 363.594C171.716 363.442 172.065 363.23 172.491 363.124C172.916 363.017 173.265 362.793 173.265 362.626C173.265 362.458 173.613 362.322 174.039 362.322C174.465 362.322 174.813 362.182 174.813 362.012C174.813 361.842 175.096 361.702 175.442 361.702C175.788 361.702 176.152 361.493 176.249 361.238C176.36 360.951 176.83 360.773 177.478 360.773C178.056 360.773 178.529 360.634 178.529 360.464C178.529 360.293 179.006 360.154 179.587 360.154C180.169 360.154 180.696 360.001 180.759 359.814C180.821 359.627 181.529 359.4 182.333 359.309C183.136 359.219 183.794 359.023 183.794 358.875C183.794 358.727 187.138 358.606 191.226 358.606C195.314 358.606 198.658 358.727 198.658 358.875C198.658 359.023 199.316 359.219 200.119 359.309C200.923 359.4 201.631 359.627 201.693 359.814C201.756 360.001 202.283 360.154 202.865 360.154C203.446 360.154 203.923 360.293 203.923 360.464C203.923 360.634 204.396 360.773 204.974 360.773C205.622 360.773 206.092 360.951 206.203 361.238C206.3 361.493 206.664 361.702 207.01 361.702C207.356 361.702 207.639 361.842 207.639 362.012C207.639 362.182 207.987 362.322 208.413 362.322C208.839 362.322 209.187 362.458 209.187 362.626C209.187 362.793 209.536 363.017 209.961 363.124C210.387 363.23 210.736 363.442 210.736 363.594C210.736 363.746 211.014 363.87 211.355 363.87C211.696 363.87 211.974 364.01 211.974 364.18C211.974 364.35 212.183 364.49 212.439 364.49C212.694 364.49 212.903 364.626 212.903 364.793C212.903 364.96 213.252 365.184 213.678 365.291C214.103 365.398 214.452 365.61 214.452 365.762C214.452 365.914 214.601 366.038 214.783 366.038C214.966 366.038 215.31 366.212 215.547 366.425C216.649 367.414 216.945 367.586 217.536 367.586C217.883 367.586 218.168 367.71 218.168 367.863C218.168 368.014 218.516 368.226 218.942 368.333C219.368 368.44 219.716 368.664 219.716 368.831C219.716 368.998 220.065 369.135 220.491 369.135C220.916 369.135 221.265 369.274 221.265 369.444C221.265 369.615 221.693 369.754 222.216 369.754C222.739 369.754 223.376 369.963 223.632 370.219C223.887 370.474 224.435 370.683 224.848 370.683C225.262 370.683 225.6 370.822 225.6 370.993C225.6 371.163 226.285 371.302 227.123 371.302C228.066 371.302 228.694 371.45 228.774 371.69C228.873 371.985 230.717 372.077 236.594 372.077C242.471 372.077 244.315 371.985 244.413 371.69C244.493 371.45 245.122 371.302 246.065 371.302C246.902 371.302 247.587 371.163 247.587 370.993C247.587 370.822 248.075 370.683 248.671 370.683C249.428 370.683 249.755 370.543 249.755 370.219C249.755 369.894 250.082 369.754 250.839 369.754C251.435 369.754 251.923 369.615 251.923 369.444C251.923 369.274 252.271 369.135 252.697 369.135C253.123 369.135 253.471 368.998 253.471 368.831C253.471 368.664 253.82 368.44 254.245 368.333C254.671 368.226 255.02 368.014 255.02 367.863C255.02 367.71 255.368 367.586 255.794 367.586C256.22 367.586 256.568 367.456 256.568 367.297C256.568 367.139 256.882 366.91 257.265 366.789C257.648 366.668 258.187 366.31 258.462 365.994C258.738 365.677 259.195 365.419 259.479 365.419C259.762 365.419 260.074 365.21 260.172 364.954C260.27 364.699 260.481 364.49 260.641 364.49C260.801 364.49 261.267 364.176 261.677 363.793C262.798 362.745 263.334 362.322 263.543 362.322C264.026 362.322 267.716 358.206 267.716 357.667C267.716 357.332 267.866 357.057 268.048 357.057C268.409 357.057 269.265 356.295 269.265 355.973C269.265 355.864 269.439 355.58 269.652 355.343C270.571 354.318 270.813 353.968 270.813 353.664C270.813 353.486 270.937 353.341 271.089 353.341C271.241 353.341 271.453 352.993 271.56 352.567C271.667 352.141 271.891 351.793 272.058 351.793C272.225 351.793 272.361 351.444 272.361 351.019C272.361 350.593 272.501 350.244 272.671 350.244C272.842 350.244 272.981 349.896 272.981 349.47C272.981 348.988 273.156 348.696 273.445 348.696C273.734 348.696 273.91 348.404 273.91 347.922C273.91 347.496 274.049 347.148 274.22 347.148C274.39 347.148 274.529 346.66 274.529 346.064C274.529 345.468 274.65 344.98 274.797 344.98C275.11 344.98 276.078 342.573 276.078 341.795C276.078 341.503 276.195 341.264 276.337 341.264C276.481 341.264 276.864 340.708 277.189 340.028C277.514 339.349 277.885 338.792 278.013 338.79C278.141 338.788 278.245 338.522 278.245 338.2C278.245 337.878 278.454 337.534 278.71 337.435C278.965 337.338 279.174 337.032 279.174 336.757C279.174 336.482 279.662 335.784 280.258 335.205C280.854 334.626 281.342 333.94 281.342 333.682C281.342 333.424 281.481 333.212 281.652 333.212C281.822 333.212 281.961 333.003 281.961 332.748C281.961 332.492 282.111 332.283 282.293 332.283C282.722 332.283 283.51 331.495 283.51 331.066C283.51 330.884 283.655 330.735 283.833 330.735C284.254 330.735 285.678 329.311 285.678 328.891C285.678 328.712 285.827 328.567 286.009 328.567C286.192 328.567 286.535 328.393 286.773 328.18C287.798 327.261 288.148 327.019 288.452 327.019C288.629 327.019 288.774 326.901 288.774 326.758C288.774 326.614 289.262 326.234 289.858 325.913C290.454 325.592 290.942 325.222 290.942 325.09C290.942 324.959 291.151 324.851 291.407 324.851C291.662 324.851 291.871 324.711 291.871 324.541C291.871 324.371 292.154 324.231 292.5 324.231C292.846 324.231 293.21 324.022 293.307 323.767C293.406 323.511 293.819 323.302 294.227 323.302C294.634 323.302 294.968 323.163 294.968 322.993C294.968 322.822 295.247 322.683 295.587 322.683C295.931 322.683 296.207 322.477 296.207 322.219C296.207 321.894 296.534 321.754 297.291 321.754C297.887 321.754 298.374 321.615 298.374 321.444C298.374 321.274 298.827 321.13 299.381 321.125C299.935 321.12 300.658 320.91 300.988 320.66C301.319 320.41 301.911 320.206 302.305 320.206C302.698 320.206 303.02 320.066 303.02 319.896C303.02 319.72 303.928 319.586 305.125 319.586C306.284 319.586 307.363 319.462 307.525 319.31C307.687 319.159 309.763 318.973 312.138 318.897C315.043 318.805 316.496 318.642 316.577 318.399C316.65 318.178 317.409 318.038 318.529 318.038C319.544 318.038 320.361 317.9 320.361 317.728C320.361 317.558 320.849 317.419 321.445 317.419C322.202 317.419 322.529 317.279 322.529 316.954C322.529 316.629 322.856 316.49 323.613 316.49C324.209 316.49 324.697 316.35 324.697 316.18C324.697 316.01 324.936 315.87 325.229 315.87C326.006 315.87 328.413 314.902 328.413 314.589C328.413 314.442 328.762 314.322 329.187 314.322C329.613 314.322 329.962 314.182 329.962 314.012C329.962 313.842 330.171 313.702 330.426 313.702C330.682 313.702 330.891 313.493 330.891 313.238C330.891 312.974 331.168 312.773 331.532 312.773C331.885 312.773 332.368 312.599 332.605 312.386C333.547 311.542 333.97 311.225 334.155 311.225C334.261 311.225 334.822 310.737 335.401 310.141C335.98 309.545 336.593 309.057 336.762 309.057C337.145 309.057 340.491 305.688 340.491 305.302C340.491 305.147 340.978 304.547 341.574 303.968C342.171 303.389 342.658 302.764 342.658 302.58C342.658 302.395 342.788 302.244 342.947 302.244C343.106 302.244 343.332 301.943 343.449 301.574C343.566 301.205 343.993 300.572 344.399 300.166C344.804 299.761 345.136 299.227 345.136 298.979C345.136 298.731 345.275 298.528 345.445 298.528C345.616 298.528 345.755 298.18 345.755 297.754C345.755 297.272 345.931 296.98 346.22 296.98C346.509 296.98 346.684 296.688 346.684 296.206C346.684 295.78 346.823 295.431 346.994 295.431C347.164 295.431 347.303 295.083 347.303 294.657C347.303 294.231 347.427 293.883 347.579 293.883C347.73 293.883 347.945 293.395 348.057 292.799C348.169 292.203 348.394 291.715 348.556 291.715C348.719 291.715 348.852 291.228 348.852 290.631C348.852 290.035 348.991 289.548 349.161 289.548C349.332 289.548 349.471 288.911 349.471 288.132C349.471 287.286 349.658 286.529 349.936 286.252C350.275 285.913 350.4 285.086 350.4 283.195C350.4 281.77 350.54 280.517 350.71 280.412C351.113 280.163 351.113 276.945 350.71 276.696C350.54 276.591 350.4 275.254 350.4 273.726C350.4 271.542 350.301 270.909 349.936 270.769C349.61 270.644 349.471 270.137 349.471 269.076C349.471 268.242 349.332 267.561 349.161 267.561C348.991 267.561 348.852 266.945 348.852 266.193C348.852 265.44 348.71 264.778 348.538 264.72C348.365 264.663 348.136 263.676 348.028 262.527C347.921 261.378 347.714 260.438 347.568 260.438C347.423 260.438 347.303 258.348 347.303 255.793C347.303 252.903 347.421 251.148 347.613 251.148C347.784 251.148 347.923 250.342 347.923 249.349C347.923 248.247 348.099 247.317 348.377 246.949C348.628 246.618 348.837 245.755 348.842 245.031C348.848 244.308 348.991 243.715 349.161 243.715C349.332 243.715 349.471 243.228 349.471 242.631C349.471 241.875 349.611 241.548 349.936 241.548C350.225 241.548 350.4 241.255 350.4 240.773C350.4 240.348 350.54 239.999 350.71 239.999C350.88 239.999 351.02 239.651 351.02 239.225C351.02 238.799 351.156 238.451 351.323 238.451C351.49 238.451 351.714 238.102 351.821 237.677C351.928 237.251 352.14 236.902 352.292 236.902C352.444 236.902 352.568 236.624 352.568 236.283C352.568 235.942 352.692 235.664 352.844 235.664C352.996 235.664 353.208 235.315 353.315 234.89C353.421 234.464 353.646 234.115 353.813 234.115C353.98 234.115 354.116 233.906 354.116 233.651C354.116 233.395 354.256 233.186 354.426 233.186C354.596 233.186 354.736 232.908 354.736 232.567C354.736 232.223 354.942 231.948 355.2 231.948C355.456 231.948 355.665 231.796 355.665 231.612C355.665 231.428 356.152 230.803 356.749 230.224C357.345 229.645 357.832 229.093 357.832 228.997C357.832 228.689 359.341 227.302 359.677 227.302C359.855 227.302 360 227.153 360 226.971C360 226.608 360.763 225.754 361.086 225.754C361.197 225.754 361.839 225.197 362.514 224.515C363.188 223.834 363.854 223.277 363.992 223.277C364.131 223.277 364.681 222.859 365.216 222.348C365.751 221.837 366.329 221.419 366.501 221.419C366.673 221.419 366.813 221.269 366.813 221.087C366.813 220.658 367.601 219.87 368.03 219.87C368.212 219.87 368.362 219.725 368.362 219.547C368.362 219.368 368.71 218.874 369.136 218.448C369.561 218.023 369.91 217.532 369.91 217.358C369.91 217.184 370.398 216.581 370.994 216.019C371.59 215.457 372.078 214.769 372.078 214.492C372.078 214.214 372.184 213.986 372.314 213.986C372.551 213.986 373.11 213.069 373.494 212.051C373.606 211.753 373.821 211.509 373.972 211.509C374.122 211.509 374.245 211.161 374.245 210.735C374.245 210.253 374.421 209.96 374.71 209.96C374.999 209.96 375.174 209.668 375.174 209.186C375.174 208.76 375.314 208.412 375.484 208.412C375.654 208.412 375.794 207.984 375.794 207.461C375.794 206.938 376.003 206.301 376.258 206.045C376.514 205.79 376.723 205.242 376.723 204.829C376.723 204.415 376.862 204.077 377.032 204.077C377.203 204.077 377.342 203.589 377.342 202.993C377.342 202.397 377.482 201.909 377.652 201.909C377.824 201.909 377.962 201.076 377.962 200.029C377.962 198.77 378.115 197.995 378.426 197.684C379.109 197.001 379.109 186.998 378.426 186.314C378.115 186.004 377.962 185.228 377.962 183.97C377.962 182.923 377.824 182.09 377.652 182.09C377.482 182.09 377.342 181.602 377.342 181.006C377.342 180.41 377.203 179.922 377.032 179.922C376.862 179.922 376.723 179.583 376.723 179.17C376.723 178.756 376.514 178.209 376.258 177.953C376.003 177.698 375.794 177.061 375.794 176.537C375.794 176.014 375.67 175.586 375.518 175.586C375.366 175.586 375.154 175.238 375.047 174.812C374.94 174.386 374.716 174.038 374.549 174.038C374.382 174.038 374.245 173.69 374.245 173.264C374.245 172.838 374.139 172.49 374.009 172.49C373.773 172.49 373.213 171.572 372.829 170.554C372.717 170.256 372.502 170.012 372.351 170.012C372.201 170.012 372.078 169.785 372.078 169.507C372.078 169.229 371.618 168.567 371.056 168.036C370.494 167.505 369.941 166.826 369.827 166.528C369.713 166.23 369.476 165.986 369.3 165.986C369.125 165.986 368.981 165.777 368.981 165.522C368.981 165.266 368.841 165.057 368.671 165.057C368.501 165.057 368.362 164.848 368.362 164.593C368.362 164.337 368.212 164.128 368.03 164.128C367.601 164.128 366.813 163.34 366.813 162.912C366.813 162.729 366.668 162.58 366.49 162.58C366.311 162.58 365.817 162.231 365.391 161.806C364.966 161.38 364.472 161.031 364.294 161.031C364.116 161.031 363.361 160.404 362.616 159.638C361.872 158.871 361.177 158.244 361.074 158.244C360.76 158.244 360 157.383 360 157.028C360 156.845 359.855 156.696 359.677 156.696C359.256 156.696 357.832 155.272 357.832 154.852C357.832 154.674 357.623 154.528 357.368 154.528C357.112 154.528 356.903 154.35 356.903 154.132C356.903 153.914 356.625 153.535 356.284 153.29C355.943 153.044 355.665 152.665 355.665 152.447C355.665 152.229 355.456 152.051 355.2 152.051C354.942 152.051 354.736 151.776 354.736 151.431C354.736 151.091 354.596 150.812 354.426 150.812C354.256 150.812 354.116 150.603 354.116 150.348C354.116 150.092 353.98 149.883 353.813 149.883C353.646 149.883 353.421 149.535 353.315 149.109C353.208 148.683 352.996 148.335 352.844 148.335C352.692 148.335 352.568 148.056 352.568 147.715C352.568 147.375 352.444 147.096 352.292 147.096C352.14 147.096 351.928 146.748 351.821 146.322C351.714 145.896 351.49 145.548 351.323 145.548C351.156 145.548 351.02 145.199 351.02 144.773C351.02 144.348 350.88 143.999 350.71 143.999C350.54 143.999 350.4 143.651 350.4 143.225C350.4 142.743 350.225 142.451 349.936 142.451C349.611 142.451 349.471 142.124 349.471 141.367C349.471 140.771 349.332 140.283 349.161 140.283C348.991 140.283 348.852 139.741 348.852 139.08C348.852 138.418 348.644 137.477 348.389 136.989C348.135 136.502 347.926 135.371 347.925 134.477C347.924 133.583 347.783 132.851 347.613 132.851C347.421 132.851 347.303 131.096 347.303 128.206C347.303 125.651 347.423 123.561 347.568 123.561C347.714 123.561 347.921 122.621 348.028 121.472C348.136 120.323 348.365 119.336 348.538 119.278C348.71 119.221 348.852 118.558 348.852 117.806C348.852 117.054 348.991 116.438 349.161 116.438C349.332 116.438 349.471 115.756 349.471 114.923C349.471 113.861 349.61 113.354 349.936 113.229C350.301 113.089 350.4 112.456 350.4 110.272C350.4 108.744 350.54 107.408 350.71 107.302C350.88 107.197 351.02 106.361 351.02 105.444C351.02 104.528 350.88 103.692 350.71 103.586C350.54 103.481 350.4 102.229 350.4 100.803C350.4 98.912 350.275 98.0855 349.936 97.7467C349.658 97.4692 349.471 96.7121 349.471 95.8664C349.471 95.0878 349.332 94.4508 349.161 94.4508C348.991 94.4508 348.852 93.9631 348.852 93.367C348.852 92.7708 348.719 92.2831 348.556 92.2831C348.394 92.2831 348.169 91.7953 348.057 91.1992C347.945 90.6031 347.73 90.1153 347.579 90.1153C347.427 90.1153 347.303 89.767 347.303 89.3411C347.303 88.9153 347.164 88.567 346.994 88.567C346.823 88.567 346.684 88.2186 346.684 87.7928C346.684 87.3109 346.509 87.0186 346.22 87.0186C345.931 87.0186 345.755 86.7262 345.755 86.2444C345.755 85.8186 345.616 85.4702 345.445 85.4702C345.275 85.4702 345.136 85.2673 345.136 85.0196C345.136 84.7719 344.804 84.2377 344.399 83.8323C343.993 83.4269 343.566 82.7933 343.449 82.4245C343.332 82.0557 343.106 81.7541 342.947 81.7541C342.788 81.7541 342.658 81.5757 342.658 81.358C342.658 81.14 342.38 80.7609 342.039 80.5153C341.698 80.2698 341.42 79.8907 341.42 79.6727C341.42 79.455 341.211 79.2766 340.955 79.2766C340.7 79.2766 340.491 79.0753 340.491 78.8291C340.491 78.2779 337.552 75.3428 336.744 75.0861C336.42 74.9836 336.155 74.6999 336.155 74.4559C336.155 74.2119 335.977 74.0121 335.759 74.0121C335.541 74.0121 335.162 73.7334 334.916 73.3928C334.671 73.0521 334.352 72.7734 334.207 72.7734C334.062 72.7734 333.749 72.5991 333.511 72.3863C332.409 71.3978 332.113 71.225 331.523 71.225C331.167 71.225 330.891 71.0219 330.891 70.7605C330.891 70.505 330.682 70.296 330.426 70.296C330.171 70.296 329.962 70.1566 329.962 69.9863C329.962 69.816 329.613 69.6766 329.187 69.6766C328.762 69.6766 328.413 69.5373 328.413 69.367C328.413 69.1966 328.169 69.0529 327.871 69.0474C327.573 69.0421 327.059 68.8331 326.728 68.5829C326.397 68.3329 325.805 68.1282 325.412 68.1282C325.019 68.1282 324.697 67.9889 324.697 67.8186C324.697 67.6482 324.209 67.5089 323.613 67.5089C322.856 67.5089 322.529 67.3689 322.529 67.0444C322.529 66.7198 322.202 66.5799 321.445 66.5799C320.849 66.5799 320.361 66.4405 320.361 66.2702C320.361 66.0986 319.544 65.9605 318.529 65.9605C317.353 65.9605 316.652 65.8239 316.57 65.579C316.479 65.3074 315.135 65.1637 311.899 65.0801C309.4 65.0154 307.355 64.8389 307.355 64.6874C307.355 64.536 306.38 64.4121 305.187 64.4121C303.995 64.4121 303.02 64.3044 303.02 64.1727C303.02 63.951 301.235 63.3849 299.226 62.9696C298.758 62.8727 298.374 62.6699 298.374 62.5191C298.374 62.3679 297.887 62.2444 297.291 62.2444C296.534 62.2444 296.207 62.1044 296.207 61.7799C296.207 61.5244 295.936 61.3153 295.606 61.3153C295.275 61.3153 294.918 61.176 294.813 61.0057C294.708 60.8353 294.366 60.696 294.054 60.696C293.741 60.696 293.406 60.487 293.307 60.2315C293.21 59.976 292.846 59.767 292.5 59.767C292.154 59.767 291.871 59.6276 291.871 59.4573C291.871 59.287 291.662 59.1476 291.407 59.1476C291.151 59.1476 290.942 59.0082 290.942 58.8379C290.942 58.6676 290.767 58.5282 290.552 58.5282C290.337 58.5282 289.786 58.1799 289.327 57.7541C288.868 57.3282 288.406 56.9799 288.301 56.9799C288.197 56.9799 287.917 56.8058 287.679 56.5928C286.654 55.6736 286.304 55.4315 286 55.4315C285.823 55.4315 285.678 55.2859 285.678 55.1079C285.678 54.6873 284.254 53.2637 283.833 53.2637C283.655 53.2637 283.51 53.1145 283.51 52.9321C283.51 52.5032 282.722 51.7153 282.293 51.7153C282.111 51.7153 281.961 51.5063 281.961 51.2508C281.961 50.9953 281.822 50.7863 281.652 50.7863C281.481 50.7863 281.342 50.5748 281.342 50.3162C281.342 50.0579 280.854 49.3726 280.258 48.7938C279.662 48.2147 279.174 47.5161 279.174 47.2411C279.174 46.9661 278.965 46.6608 278.71 46.5629C278.454 46.4648 278.245 46.1207 278.245 45.7983C278.245 45.476 278.141 45.2106 278.013 45.2087C277.885 45.2065 277.514 44.6491 277.189 43.97C276.864 43.2906 276.481 42.7347 276.337 42.7347C276.195 42.7347 276.078 42.4956 276.078 42.203C276.078 41.4257 275.11 39.0186 274.797 39.0186C274.65 39.0186 274.529 38.5308 274.529 37.9347C274.529 37.3386 274.39 36.8508 274.22 36.8508C274.049 36.8508 273.91 36.5024 273.91 36.0766C273.91 35.5948 273.734 35.3024 273.445 35.3024C273.156 35.3024 272.981 35.0101 272.981 34.5282C272.981 34.1024 272.842 33.754 272.671 33.754C272.501 33.754 272.361 33.4057 272.361 32.9799C272.361 32.554 272.225 32.2057 272.058 32.2057C271.891 32.2057 271.667 31.8573 271.56 31.4315C271.453 31.0057 271.263 30.6573 271.138 30.6573C271.013 30.6573 270.648 30.1695 270.327 29.5734C270.006 28.9773 269.636 28.4895 269.504 28.4895C269.372 28.4895 269.265 28.3403 269.265 28.1579C269.265 27.729 268.477 26.9411 268.048 26.9411C267.866 26.9411 267.716 26.6624 267.716 26.3218C267.716 25.9811 267.577 25.7024 267.407 25.7024C267.236 25.7024 267.097 25.5693 267.097 25.4067C267.097 25.08 263.86 21.6766 263.549 21.6766C263.335 21.6766 262.805 21.261 261.677 20.2057C261.267 19.8223 260.801 19.5089 260.641 19.5089C260.481 19.5089 260.27 19.2999 260.172 19.0444C260.074 18.7889 259.762 18.5799 259.479 18.5799C259.195 18.5799 258.738 18.321 258.462 18.0048C258.187 17.6886 257.648 17.3306 257.265 17.2098C256.882 17.0888 256.568 16.8599 256.568 16.701C256.568 16.5422 256.22 16.4121 255.794 16.4121C255.368 16.4121 255.02 16.2879 255.02 16.1359C255.02 15.9841 254.671 15.7723 254.245 15.6655C253.82 15.5586 253.471 15.3344 253.471 15.1675C253.471 15.0003 253.123 14.8637 252.697 14.8637C252.271 14.8637 251.923 14.7244 251.923 14.554C251.923 14.3837 251.435 14.2444 250.839 14.2444C250.082 14.2444 249.755 14.1044 249.755 13.7799C249.755 13.4553 249.428 13.3153 248.671 13.3153C248.075 13.3153 247.587 13.176 247.587 13.0057C247.587 12.8353 246.902 12.696 246.065 12.696C245.122 12.696 244.493 12.5486 244.413 12.3089C244.226 11.7474 228.961 11.7474 228.774 12.3089C228.694 12.5486 228.066 12.696 227.123 12.696C226.285 12.696 225.6 12.8353 225.6 13.0057C225.6 13.176 225.262 13.3153 224.848 13.3153C224.435 13.3153 223.887 13.5244 223.632 13.7799C223.376 14.0353 222.739 14.2444 222.216 14.2444C221.693 14.2444 221.265 14.3837 221.265 14.554C221.265 14.7244 220.916 14.8637 220.491 14.8637C220.009 14.8637 219.716 15.0393 219.716 15.3282C219.716 15.6172 219.424 15.7928 218.942 15.7928C218.516 15.7928 218.168 15.9321 218.168 16.1024C218.168 16.2728 217.91 16.4121 217.594 16.4121C217.278 16.4121 216.644 16.7605 216.184 17.1863C215.725 17.6121 215.147 17.9605 214.9 17.9605C214.654 17.9605 214.452 18.0999 214.452 18.2702C214.452 18.4405 214.238 18.5799 213.978 18.5799C213.717 18.5799 213.423 18.7889 213.325 19.0444C213.227 19.2999 212.883 19.5089 212.561 19.5089C212.238 19.5089 211.974 19.6482 211.974 19.8186C211.974 19.9889 211.696 20.1282 211.355 20.1282C211.011 20.1282 210.736 20.3348 210.736 20.5928C210.736 20.8817 210.443 21.0573 209.961 21.0573C209.536 21.0573 209.187 21.1966 209.187 21.367C209.187 21.5373 208.917 21.6766 208.586 21.6766C208.255 21.6766 207.899 21.816 207.794 21.9863C207.688 22.1566 207.327 22.296 206.992 22.296C206.656 22.296 206.3 22.505 206.203 22.7605C206.092 23.0473 205.622 23.225 204.974 23.225C204.396 23.225 203.923 23.3644 203.923 23.5347C203.923 23.705 203.446 23.8444 202.865 23.8444C202.283 23.8444 201.756 23.9974 201.693 24.1844C201.631 24.3714 200.923 24.5987 200.119 24.6892C199.316 24.7799 198.658 24.9753 198.658 25.1233C198.658 25.2717 195.314 25.3928 191.226 25.3928C186.478 25.3928 183.794 25.281 183.794 25.0831C183.794 24.9128 183.371 24.7734 182.855 24.7734C182.338 24.7734 181.415 24.5644 180.804 24.3089C180.193 24.0534 179.431 23.8444 179.111 23.8444C178.791 23.8444 178.529 23.705 178.529 23.5347C178.529 23.3644 178.056 23.225 177.478 23.225C176.83 23.225 176.36 23.0473 176.249 22.7605C176.152 22.505 175.796 22.296 175.46 22.296C175.125 22.296 174.764 22.1566 174.658 21.9863C174.553 21.816 174.197 21.6766 173.866 21.6766C173.535 21.6766 173.265 21.5373 173.265 21.367C173.265 21.1966 172.916 21.0573 172.491 21.0573C172.009 21.0573 171.716 20.8817 171.716 20.5928C171.716 20.3348 171.441 20.1282 171.097 20.1282C170.756 20.1282 170.478 19.9889 170.478 19.8186C170.478 19.6482 170.214 19.5089 169.891 19.5089C169.569 19.5089 169.225 19.2999 169.127 19.0444C169.029 18.7889 168.735 18.5799 168.474 18.5799C168.214 18.5799 168 18.4405 168 18.2702C168 18.0999 167.736 17.9605 167.414 17.9605C167.092 17.9605 166.748 17.7515 166.649 17.496C166.552 17.2405 166.258 17.0315 165.997 17.0315C165.736 17.0315 165.523 16.8921 165.523 16.7218C165.523 16.5515 165.244 16.4121 164.903 16.4121C164.563 16.4121 164.284 16.2879 164.284 16.1359C164.284 15.9841 163.936 15.7723 163.51 15.6655C163.084 15.5586 162.736 15.3344 162.736 15.1675C162.736 15.0003 162.248 14.8637 161.652 14.8637C161.056 14.8637 160.568 14.7244 160.568 14.554C160.568 14.3837 160.279 14.2444 159.927 14.2444C159.574 14.2444 159.076 14.0353 158.82 13.7799C158.565 13.5244 157.948 13.3153 157.449 13.3153C156.95 13.3153 156.542 13.176 156.542 13.0057C156.542 12.8353 155.787 12.696 154.865 12.696C153.798 12.696 153.14 12.5551 153.059 12.3089C152.962 12.0169 151.3 11.9122 146.297 11.8825C142.649 11.8608 139.281 11.9051 138.813 11.9806ZM187.51 88.2675C185.892 88.3941 183.209 88.5134 181.549 88.5323C179.765 88.5527 178.529 88.6936 178.529 88.8766C178.529 89.0507 177.665 89.1863 176.555 89.1863C175.47 89.1863 173.989 89.3953 173.265 89.6508C172.541 89.9063 171.408 90.1153 170.748 90.1153C170.088 90.1153 169.549 90.2547 169.549 90.425C169.549 90.5953 168.852 90.7347 168 90.7347C167.149 90.7347 166.452 90.861 166.452 91.0153C166.452 91.1698 165.755 91.3918 164.903 91.5089C164.052 91.6259 163.355 91.848 163.355 92.0025C163.355 92.1567 162.728 92.2831 161.961 92.2831C161.195 92.2831 160.568 92.4224 160.568 92.5928C160.568 92.7631 160.246 92.9024 159.853 92.9024C159.46 92.9024 158.867 93.1071 158.537 93.357C158.206 93.6073 157.483 93.8163 156.929 93.8215C156.376 93.8271 155.923 93.9708 155.923 94.1411C155.923 94.3115 155.634 94.4508 155.281 94.4508C154.928 94.4508 154.431 94.6599 154.175 94.9153C153.92 95.1708 153.372 95.3799 152.959 95.3799C152.545 95.3799 152.207 95.5192 152.207 95.6895C152.207 95.8599 151.858 95.9992 151.432 95.9992C151.007 95.9992 150.658 96.1386 150.658 96.3089C150.658 96.4792 150.414 96.6229 150.116 96.6285C149.818 96.6337 149.304 96.8428 148.973 97.093C148.643 97.3429 148.05 97.5476 147.657 97.5476C147.264 97.5476 146.942 97.6869 146.942 97.8573C146.942 98.0276 146.659 98.1669 146.313 98.1669C145.967 98.1669 145.604 98.376 145.506 98.6315C145.408 98.8869 145.064 99.096 144.741 99.096C144.419 99.096 144.155 99.2353 144.155 99.4057C144.155 99.576 143.807 99.7153 143.381 99.7153C142.955 99.7153 142.607 99.8395 142.607 99.9916C142.607 100.143 142.258 100.355 141.832 100.462C141.407 100.569 141.058 100.793 141.058 100.96C141.058 101.127 140.849 101.264 140.594 101.264C140.338 101.264 140.129 101.388 140.129 101.54C140.129 101.692 139.781 101.904 139.355 102.01C138.929 102.117 138.581 102.341 138.581 102.508C138.581 102.676 138.302 102.812 137.961 102.812C137.621 102.812 137.342 102.951 137.342 103.122C137.342 103.292 137.133 103.431 136.878 103.431C136.622 103.431 136.413 103.562 136.413 103.72C136.413 103.879 136.1 104.108 135.716 104.229C135.333 104.35 134.811 104.688 134.555 104.98C134.3 105.272 133.777 105.61 133.394 105.731C133.01 105.852 132.697 106.08 132.697 106.239C132.697 106.398 132.548 106.528 132.365 106.528C132.183 106.528 131.839 106.703 131.602 106.915C130.672 107.749 130.238 108.077 130.064 108.077C129.964 108.077 129.533 108.425 129.108 108.851C128.682 109.277 128.189 109.625 128.012 109.625C127.835 109.625 127.217 110.113 126.638 110.709C126.059 111.305 125.374 111.793 125.115 111.793C124.857 111.793 124.645 111.932 124.645 112.102C124.645 112.273 124.436 112.412 124.181 112.412C123.925 112.412 123.716 112.561 123.716 112.744C123.716 113.105 122.954 113.96 122.632 113.96C122.311 113.96 121.549 114.816 121.549 115.177C121.549 115.36 121.399 115.509 121.217 115.509C120.788 115.509 120 116.297 120 116.726C120 116.908 119.854 117.057 119.676 117.057C119.253 117.057 116.284 120.026 116.284 120.449C116.284 120.628 116.135 120.773 115.952 120.773C115.524 120.773 114.736 121.561 114.736 121.99C114.736 122.173 114.586 122.322 114.404 122.322C114.043 122.322 113.187 123.084 113.187 123.406C113.187 123.727 112.332 124.49 111.971 124.49C111.788 124.49 111.639 124.699 111.639 124.954C111.639 125.21 111.5 125.419 111.329 125.419C111.159 125.419 111.02 125.63 111.02 125.889C111.02 126.147 110.532 126.832 109.936 127.411C109.34 127.99 108.852 128.555 108.852 128.666C108.852 128.778 108.678 129.063 108.465 129.301C107.624 130.239 107.303 130.665 107.303 130.847C107.303 130.952 107.129 131.231 106.916 131.469C105.997 132.493 105.755 132.844 105.755 133.147C105.755 133.325 105.638 133.47 105.494 133.47C105.351 133.47 104.971 133.958 104.65 134.554C104.328 135.15 103.973 135.638 103.86 135.638C103.747 135.638 103.567 135.986 103.46 136.412C103.353 136.838 103.129 137.186 102.962 137.186C102.795 137.186 102.658 137.395 102.658 137.651C102.658 137.906 102.519 138.115 102.349 138.115C102.178 138.115 102.039 138.379 102.039 138.702C102.039 139.024 101.83 139.368 101.574 139.466C101.319 139.564 101.11 139.927 101.11 140.273C101.11 140.619 100.971 140.902 100.8 140.902C100.63 140.902 100.491 141.111 100.491 141.367C100.491 141.622 100.366 141.831 100.214 141.831C100.063 141.831 99.8507 142.18 99.7439 142.606C99.6371 143.031 99.4129 143.38 99.2459 143.38C99.0787 143.38 98.9422 143.728 98.9422 144.154C98.9422 144.58 98.8028 144.928 98.6325 144.928C98.4622 144.928 98.3228 145.192 98.3228 145.514C98.3228 145.837 98.1138 146.181 97.8583 146.279C97.6028 146.377 97.3938 146.74 97.3938 147.086C97.3938 147.432 97.2544 147.715 97.0841 147.715C96.9138 147.715 96.7744 148.064 96.7744 148.49C96.7744 148.915 96.6413 149.264 96.4787 149.264C96.3161 149.264 96.0916 149.751 95.9798 150.348C95.868 150.944 95.6525 151.431 95.5013 151.431C95.3499 151.431 95.226 151.78 95.226 152.206C95.226 152.631 95.0867 152.98 94.9163 152.98C94.746 152.98 94.6067 153.318 94.6067 153.732C94.6067 154.145 94.3976 154.693 94.1422 154.948C93.8867 155.204 93.6776 155.702 93.6776 156.055C93.6776 156.407 93.5383 156.696 93.368 156.696C93.1976 156.696 93.0539 157.149 93.0484 157.702C93.0431 158.256 92.8341 158.98 92.5838 159.31C92.3339 159.641 92.1292 160.233 92.1292 160.626C92.1292 161.019 91.9899 161.341 91.8196 161.341C91.6493 161.341 91.5099 161.968 91.5099 162.735C91.5099 163.501 91.3835 164.128 91.2293 164.128C91.0748 164.128 90.8528 164.825 90.7357 165.677C90.6186 166.528 90.3966 167.225 90.2421 167.225C90.0879 167.225 89.9615 167.922 89.9615 168.773C89.9615 169.625 89.8221 170.322 89.6518 170.322C89.4815 170.322 89.3421 170.884 89.3421 171.57C89.3421 172.257 89.1331 173.319 88.8776 173.931C88.6175 174.554 88.4131 175.98 88.4131 177.172C88.4131 178.344 88.2958 179.302 88.1521 179.302C87.8873 179.302 87.3605 187.75 87.3605 191.999C87.3605 196.248 87.8873 204.696 88.1521 204.696C88.2958 204.696 88.4131 205.584 88.4131 206.67C88.4131 207.756 88.6222 209.236 88.8776 209.96C89.1331 210.685 89.3421 211.817 89.3421 212.477C89.3421 213.137 89.4815 213.677 89.6518 213.677C89.8221 213.677 89.9615 214.373 89.9615 215.225C89.9615 216.077 90.0879 216.773 90.2421 216.773C90.3966 216.773 90.6186 217.47 90.7357 218.322C90.8528 219.173 91.0748 219.87 91.2293 219.87C91.3835 219.87 91.5099 220.497 91.5099 221.264C91.5099 222.03 91.6493 222.657 91.8196 222.657C91.9899 222.657 92.1292 222.979 92.1292 223.372C92.1292 223.766 92.3339 224.358 92.5838 224.688C92.8341 225.019 93.0431 225.742 93.0484 226.296C93.0539 226.85 93.1976 227.302 93.368 227.302C93.5383 227.302 93.6776 227.591 93.6776 227.944C93.6776 228.297 93.8867 228.794 94.1422 229.05C94.3976 229.305 94.6067 229.853 94.6067 230.266C94.6067 230.68 94.746 231.019 94.9163 231.019C95.0867 231.019 95.226 231.367 95.226 231.793C95.226 232.219 95.3499 232.567 95.5013 232.567C95.6525 232.567 95.868 233.055 95.9798 233.651C96.0916 234.247 96.3161 234.735 96.4787 234.735C96.6413 234.735 96.7744 235.083 96.7744 235.509C96.7744 235.935 96.9138 236.283 97.0841 236.283C97.2544 236.283 97.3938 236.566 97.3938 236.912C97.3938 237.258 97.6028 237.622 97.8583 237.719C98.1138 237.818 98.3228 238.162 98.3228 238.484C98.3228 238.806 98.4622 239.07 98.6325 239.07C98.8028 239.07 98.9422 239.419 98.9422 239.844C98.9422 240.27 99.0663 240.619 99.2184 240.619C99.3701 240.619 99.582 240.967 99.6888 241.393C99.7956 241.819 100.02 242.167 100.187 242.167C100.354 242.167 100.491 242.376 100.491 242.631C100.491 242.887 100.63 243.096 100.8 243.096C100.971 243.096 101.11 243.379 101.11 243.725C101.11 244.071 101.319 244.434 101.574 244.532C101.83 244.63 102.039 244.974 102.039 245.297C102.039 245.619 102.178 245.883 102.349 245.883C102.519 245.883 102.658 246.092 102.658 246.348C102.658 246.603 102.795 246.812 102.962 246.812C103.129 246.812 103.353 247.16 103.46 247.586C103.567 248.012 103.779 248.361 103.93 248.361C104.082 248.361 104.207 248.536 104.207 248.751C104.207 248.965 104.555 249.517 104.981 249.976C105.407 250.435 105.755 250.896 105.755 251.001C105.755 251.106 105.929 251.386 106.142 251.624C107.061 252.648 107.303 252.999 107.303 253.302C107.303 253.48 107.443 253.625 107.613 253.625C107.783 253.625 107.923 253.832 107.923 254.086C107.923 254.339 108.62 255.246 109.471 256.102C110.323 256.959 111.02 257.866 111.02 258.119C111.02 258.373 111.159 258.58 111.329 258.58C111.5 258.58 111.639 258.789 111.639 259.044C111.639 259.3 111.788 259.509 111.971 259.509C112.332 259.509 113.187 260.271 113.187 260.593C113.187 260.914 114.043 261.677 114.404 261.677C114.586 261.677 114.736 261.826 114.736 262.008C114.736 262.437 115.524 263.225 115.952 263.225C116.135 263.225 116.284 263.372 116.284 263.551C116.284 263.96 120.834 268.49 121.245 268.49C121.412 268.49 121.549 268.639 121.549 268.821C121.549 269.182 122.311 270.038 122.632 270.038C122.954 270.038 123.716 270.894 123.716 271.255C123.716 271.437 123.862 271.586 124.04 271.586C124.218 271.586 124.699 271.9 125.109 272.283C126.256 273.355 126.768 273.754 126.997 273.754C127.112 273.754 127.529 274.102 127.924 274.528C128.319 274.954 128.857 275.302 129.121 275.302C129.385 275.302 129.6 275.442 129.6 275.612C129.6 275.782 129.809 275.922 130.065 275.922C130.32 275.922 130.529 276.131 130.529 276.386C130.529 276.642 130.738 276.851 130.994 276.851C131.249 276.851 131.458 276.99 131.458 277.16C131.458 277.331 131.737 277.47 132.078 277.47C132.422 277.47 132.697 277.677 132.697 277.935C132.697 278.19 132.906 278.399 133.161 278.399C133.417 278.399 133.626 278.539 133.626 278.709C133.626 278.879 133.905 279.019 134.245 279.019C134.586 279.019 134.865 279.155 134.865 279.322C134.865 279.489 135.213 279.713 135.639 279.82C136.065 279.927 136.413 280.139 136.413 280.291C136.413 280.443 136.622 280.567 136.878 280.567C137.133 280.567 137.343 280.671 137.344 280.799C137.347 281.111 139.137 282.115 139.69 282.115C139.931 282.115 140.129 282.255 140.129 282.425C140.129 282.595 140.338 282.735 140.594 282.735C140.849 282.735 141.058 282.871 141.058 283.038C141.058 283.205 141.407 283.43 141.832 283.536C142.258 283.643 142.607 283.855 142.607 284.007C142.607 284.159 142.885 284.283 143.226 284.283C143.567 284.283 143.845 284.407 143.845 284.559C143.845 284.711 144.194 284.923 144.62 285.03C145.045 285.137 145.394 285.361 145.394 285.528C145.394 285.695 145.742 285.831 146.168 285.831C146.594 285.831 146.942 285.971 146.942 286.141C146.942 286.311 147.291 286.451 147.716 286.451C148.142 286.451 148.491 286.587 148.491 286.755C148.491 286.922 148.839 287.146 149.265 287.253C149.691 287.359 150.039 287.571 150.039 287.723C150.039 287.875 150.527 287.999 151.123 287.999C151.719 287.999 152.207 288.132 152.207 288.295C152.207 288.458 152.694 288.682 153.291 288.794C153.887 288.906 154.374 289.121 154.374 289.272C154.374 289.424 154.723 289.548 155.149 289.548C155.574 289.548 155.923 289.687 155.923 289.857C155.923 290.028 156.236 290.168 156.62 290.169C157.003 290.17 157.716 290.379 158.203 290.633C158.691 290.888 159.423 291.096 159.829 291.096C160.235 291.096 160.568 291.221 160.568 291.373C160.568 291.526 161.091 291.726 161.729 291.818C163.51 292.074 165.832 292.757 165.832 293.024C165.832 293.156 166.599 293.264 167.536 293.264C168.472 293.264 169.239 293.392 169.239 293.549C169.239 293.706 170.145 293.931 171.252 294.049C172.359 294.168 173.265 294.388 173.265 294.538C173.265 294.689 174.31 294.812 175.587 294.812C176.865 294.812 177.91 294.93 177.91 295.074C177.91 295.427 185.31 295.868 191.226 295.868C197.142 295.868 204.542 295.427 204.542 295.074C204.542 294.93 205.587 294.812 206.865 294.812C208.142 294.812 209.187 294.689 209.187 294.538C209.187 294.388 210.093 294.168 211.2 294.049C212.307 293.931 213.213 293.706 213.213 293.549C213.213 293.392 213.98 293.264 214.916 293.264C215.853 293.264 216.62 293.156 216.62 293.024C216.62 292.757 218.942 292.074 220.723 291.818C221.362 291.726 221.884 291.526 221.884 291.373C221.884 291.221 222.337 291.092 222.891 291.086C223.444 291.081 224.168 290.872 224.498 290.622C224.829 290.372 225.421 290.167 225.814 290.167C226.207 290.167 226.529 290.028 226.529 289.857C226.529 289.687 227.017 289.548 227.613 289.548C228.209 289.548 228.697 289.411 228.697 289.244C228.697 289.077 229.045 288.853 229.471 288.746C229.897 288.639 230.245 288.427 230.245 288.275C230.245 288.123 230.733 287.999 231.329 287.999C231.925 287.999 232.413 287.875 232.413 287.723C232.413 287.571 232.761 287.359 233.187 287.253C233.613 287.146 233.961 286.922 233.961 286.755C233.961 286.587 234.31 286.451 234.736 286.451C235.161 286.451 235.51 286.311 235.51 286.141C235.51 285.971 235.858 285.831 236.284 285.831C236.71 285.831 237.058 285.695 237.058 285.528C237.058 285.361 237.407 285.137 237.832 285.03C238.258 284.923 238.607 284.711 238.607 284.559C238.607 284.407 238.885 284.283 239.226 284.283C239.567 284.283 239.845 284.159 239.845 284.007C239.845 283.855 240.194 283.643 240.62 283.536C241.045 283.43 241.394 283.205 241.394 283.038C241.394 282.871 241.742 282.735 242.168 282.735C242.594 282.735 242.942 282.625 242.942 282.492C242.942 282.358 243.395 281.986 243.949 281.664C244.502 281.341 245.025 280.998 245.11 280.9C245.195 280.802 245.787 280.456 246.426 280.131C247.065 279.806 247.587 279.423 247.587 279.28C247.587 279.136 247.866 279.019 248.207 279.019C248.547 279.019 248.826 278.879 248.826 278.709C248.826 278.539 249.035 278.399 249.291 278.399C249.546 278.399 249.755 278.19 249.755 277.935C249.755 277.677 250.03 277.47 250.374 277.47C250.715 277.47 250.994 277.331 250.994 277.16C250.994 276.99 251.203 276.851 251.458 276.851C251.714 276.851 251.923 276.642 251.923 276.386C251.923 276.131 252.132 275.922 252.387 275.922C252.643 275.922 252.852 275.782 252.852 275.612C252.852 275.442 253.067 275.302 253.331 275.302C253.595 275.302 254.133 274.954 254.528 274.528C254.923 274.102 255.34 273.754 255.455 273.754C255.684 273.754 256.196 273.355 257.343 272.283C257.753 271.9 258.234 271.586 258.412 271.586C258.59 271.586 258.736 271.377 258.736 271.122C258.736 270.866 258.879 270.657 259.055 270.657C259.678 270.657 269.884 260.452 269.884 259.828C269.884 259.653 270.093 259.509 270.349 259.509C270.604 259.509 270.813 259.363 270.813 259.185C270.813 259.007 271.126 258.526 271.51 258.116C272.582 256.97 272.981 256.458 272.981 256.228C272.981 256.113 273.329 255.696 273.755 255.301C274.181 254.906 274.529 254.368 274.529 254.104C274.529 253.841 274.669 253.625 274.839 253.625C275.009 253.625 275.149 253.416 275.149 253.16C275.149 252.905 275.358 252.696 275.613 252.696C275.869 252.696 276.078 252.487 276.078 252.231C276.078 251.976 276.217 251.767 276.387 251.767C276.558 251.767 276.697 251.488 276.697 251.148C276.697 250.804 276.904 250.528 277.161 250.528C277.417 250.528 277.626 250.319 277.626 250.064C277.626 249.808 277.765 249.599 277.936 249.599C278.106 249.599 278.245 249.321 278.245 248.98C278.245 248.639 278.363 248.361 278.506 248.361C278.65 248.361 279.033 247.838 279.358 247.199C279.683 246.561 280.029 245.968 280.127 245.883C280.225 245.798 280.568 245.275 280.89 244.722C281.212 244.168 281.585 243.715 281.719 243.715C281.852 243.715 281.961 243.367 281.961 242.941C281.961 242.515 282.098 242.167 282.265 242.167C282.432 242.167 282.656 241.819 282.763 241.393C282.87 240.967 283.082 240.619 283.234 240.619C283.386 240.619 283.51 240.34 283.51 239.999C283.51 239.659 283.634 239.38 283.786 239.38C283.938 239.38 284.15 239.031 284.257 238.606C284.363 238.18 284.588 237.831 284.754 237.831C284.922 237.831 285.058 237.483 285.058 237.057C285.058 236.631 285.198 236.283 285.368 236.283C285.538 236.283 285.678 235.935 285.678 235.509C285.678 235.083 285.814 234.735 285.981 234.735C286.148 234.735 286.373 234.386 286.479 233.96C286.586 233.535 286.798 233.186 286.95 233.186C287.102 233.186 287.226 232.71 287.226 232.128C287.226 231.546 287.33 231.024 287.458 230.967C287.82 230.806 288.774 228.59 288.774 227.911C288.774 227.576 288.914 227.302 289.084 227.302C289.254 227.302 289.394 226.981 289.394 226.587C289.394 226.194 289.598 225.602 289.848 225.271C290.099 224.941 290.308 224.217 290.313 223.664C290.318 223.11 290.448 222.657 290.6 222.657C290.752 222.657 290.952 222.135 291.044 221.496C291.301 219.716 291.984 217.393 292.251 217.393C292.383 217.393 292.491 216.626 292.491 215.69C292.491 214.753 292.619 213.986 292.775 213.986C292.932 213.986 293.158 213.081 293.276 211.973C293.395 210.866 293.615 209.96 293.765 209.96C293.916 209.96 294.039 208.915 294.039 207.638C294.039 206.361 294.157 205.315 294.301 205.315C294.654 205.315 295.095 197.915 295.095 191.999C295.095 186.083 294.654 178.683 294.301 178.683C294.157 178.683 294.039 177.638 294.039 176.361C294.039 175.083 293.916 174.038 293.765 174.038C293.615 174.038 293.395 173.132 293.276 172.025C293.158 170.918 292.932 170.012 292.775 170.012C292.619 170.012 292.491 169.246 292.491 168.309C292.491 167.372 292.383 166.606 292.251 166.606C291.984 166.606 291.301 164.283 291.044 162.502C290.952 161.864 290.752 161.341 290.6 161.341C290.448 161.341 290.318 160.888 290.313 160.335C290.308 159.781 290.099 159.058 289.848 158.727C289.598 158.396 289.394 157.804 289.394 157.411C289.394 157.018 289.254 156.696 289.084 156.696C288.914 156.696 288.774 156.422 288.774 156.087C288.774 155.408 287.82 153.192 287.458 153.032C287.33 152.975 287.226 152.452 287.226 151.87C287.226 151.288 287.102 150.812 286.95 150.812C286.798 150.812 286.586 150.464 286.479 150.038C286.373 149.612 286.148 149.264 285.981 149.264C285.814 149.264 285.678 148.915 285.678 148.49C285.678 148.064 285.538 147.715 285.368 147.715C285.198 147.715 285.058 147.367 285.058 146.941C285.058 146.515 284.922 146.167 284.754 146.167C284.588 146.167 284.363 145.819 284.257 145.393C284.15 144.967 283.938 144.619 283.786 144.619C283.634 144.619 283.51 144.34 283.51 143.999C283.51 143.659 283.386 143.38 283.234 143.38C283.082 143.38 282.87 143.031 282.763 142.606C282.656 142.18 282.432 141.831 282.265 141.831C282.098 141.831 281.961 141.483 281.961 141.057C281.961 140.631 281.852 140.283 281.719 140.283C281.585 140.283 281.212 139.83 280.89 139.277C280.568 138.723 280.225 138.2 280.127 138.115C280.029 138.03 279.683 137.438 279.358 136.799C279.033 136.161 278.65 135.638 278.506 135.638C278.363 135.638 278.245 135.359 278.245 135.019C278.245 134.678 278.106 134.399 277.936 134.399C277.765 134.399 277.626 134.19 277.626 133.935C277.626 133.679 277.417 133.47 277.161 133.47C276.904 133.47 276.697 133.195 276.697 132.851C276.697 132.51 276.558 132.231 276.387 132.231C276.217 132.231 276.078 132.086 276.078 131.907C276.078 131.729 275.729 131.26 275.303 130.865C274.878 130.47 274.529 129.983 274.529 129.781C274.529 129.58 274.181 129.092 273.755 128.697C273.329 128.303 272.981 127.885 272.981 127.77C272.981 127.541 272.582 127.029 271.51 125.882C271.127 125.472 270.813 124.991 270.813 124.813C270.813 124.635 270.664 124.49 270.481 124.49C270.12 124.49 269.265 123.727 269.265 123.406C269.265 123.084 268.409 122.322 268.048 122.322C267.866 122.322 267.716 122.174 267.716 121.993C267.716 121.579 261.623 115.509 261.209 115.509C261.041 115.509 260.903 115.36 260.903 115.177C260.903 114.816 260.141 113.96 259.82 113.96C259.498 113.96 258.736 113.105 258.736 112.744C258.736 112.561 258.586 112.412 258.404 112.412C258.221 112.412 257.878 112.238 257.64 112.025C256.699 111.181 256.276 110.864 256.091 110.864C255.984 110.864 255.423 110.376 254.844 109.78C254.265 109.184 253.58 108.696 253.322 108.696C253.063 108.696 252.852 108.557 252.852 108.386C252.852 108.216 252.703 108.077 252.52 108.077C252.337 108.077 251.994 107.903 251.756 107.69C250.801 106.832 250.391 106.528 250.191 106.528C250.075 106.528 249.658 106.18 249.263 105.754C248.869 105.328 248.33 104.98 248.067 104.98C247.803 104.98 247.587 104.856 247.587 104.704C247.587 104.552 247.239 104.34 246.813 104.233C246.387 104.126 246.039 103.902 246.039 103.735C246.039 103.568 245.83 103.431 245.574 103.431C245.319 103.431 245.11 103.292 245.11 103.122C245.11 102.951 244.846 102.812 244.524 102.812C244.201 102.812 243.857 102.603 243.759 102.348C243.661 102.092 243.298 101.883 242.952 101.883C242.606 101.883 242.323 101.744 242.323 101.573C242.323 101.403 242.114 101.264 241.858 101.264C241.603 101.264 241.394 101.127 241.394 100.96C241.394 100.793 241.045 100.569 240.62 100.462C240.194 100.355 239.845 100.143 239.845 99.9916C239.845 99.8395 239.497 99.7153 239.071 99.7153C238.645 99.7153 238.297 99.576 238.297 99.4057C238.297 99.2353 238.033 99.096 237.711 99.096C237.388 99.096 237.044 98.8869 236.946 98.6315C236.848 98.376 236.485 98.1669 236.139 98.1669C235.793 98.1669 235.51 98.0276 235.51 97.8573C235.51 97.6869 235.221 97.5476 234.869 97.5476C234.516 97.5476 234.018 97.3386 233.762 97.0831C233.507 96.8276 232.959 96.6186 232.546 96.6186C232.132 96.6186 231.794 96.4792 231.794 96.3089C231.794 96.1386 231.445 95.9992 231.02 95.9992C230.594 95.9992 230.245 95.8599 230.245 95.6895C230.245 95.5192 229.907 95.3799 229.493 95.3799C229.08 95.3799 228.532 95.1708 228.277 94.9153C228.021 94.6599 227.454 94.4508 227.016 94.4508C226.578 94.4508 226.22 94.3115 226.22 94.1411C226.22 93.9708 225.836 93.8271 225.368 93.8215C224.899 93.8163 224.246 93.6073 223.915 93.357C223.585 93.1071 222.992 92.9024 222.599 92.9024C222.206 92.9024 221.884 92.7631 221.884 92.5928C221.884 92.4224 221.257 92.2831 220.491 92.2831C219.724 92.2831 219.097 92.1567 219.097 92.0025C219.097 91.848 218.4 91.6259 217.549 91.5089C216.697 91.3918 216 91.1698 216 91.0153C216 90.861 215.303 90.7347 214.452 90.7347C213.6 90.7347 212.903 90.5953 212.903 90.425C212.903 90.2547 212.364 90.1153 211.704 90.1153C211.044 90.1153 209.911 89.9063 209.187 89.6508C208.463 89.3953 206.982 89.1863 205.897 89.1863C204.811 89.1863 203.923 89.0689 203.923 88.9253C203.923 88.7816 201.658 88.5648 198.891 88.4428C196.123 88.3211 193.092 88.1802 192.155 88.1294C191.218 88.0786 189.128 88.1408 187.51 88.2675Z" fill="#2645C3"/>
<path fill-rule="evenodd" clip-rule="evenodd" d="M229.065 143.068C228.426 143.145 227.903 143.338 227.903 143.498C227.903 143.658 227.415 143.789 226.819 143.789C226.223 143.789 225.735 143.929 225.735 144.099C225.735 144.269 225.387 144.409 224.961 144.409C224.479 144.409 224.187 144.584 224.187 144.873C224.187 145.135 223.91 145.338 223.553 145.338C222.903 145.338 218.303 149.666 218.303 150.278C218.303 150.456 218.154 150.602 217.972 150.602C217.61 150.602 216.755 151.365 216.755 151.686C216.755 152.007 215.899 152.77 215.538 152.77C215.356 152.77 215.206 152.985 215.206 153.249C215.206 153.513 214.858 154.051 214.432 154.446C214.006 154.841 213.658 155.243 213.658 155.341C213.658 155.438 212.822 156.383 211.8 157.44C210.778 158.498 209.942 159.471 209.942 159.603C209.942 159.735 209.106 160.679 208.084 161.701C207.062 162.723 206.226 163.646 206.226 163.753C206.226 163.859 205.912 164.282 205.529 164.692C204.367 165.934 204.058 166.355 204.058 166.692C204.058 166.87 203.909 167.015 203.726 167.015C203.365 167.015 202.51 167.778 202.51 168.099C202.51 168.42 201.654 169.183 201.293 169.183C201.111 169.183 200.961 169.328 200.961 169.506C200.961 169.684 200.613 170.205 200.187 170.664C199.761 171.123 199.413 171.606 199.413 171.737C199.413 171.867 198.437 172.948 197.245 174.138C196.053 175.327 195.077 176.378 195.077 176.471C195.077 176.695 194.557 177.323 193.142 178.805C192.503 179.474 191.981 180.101 191.981 180.198C191.981 180.502 191.112 181.26 190.764 181.26C190.582 181.26 190.432 181.406 190.432 181.584C190.432 181.762 190.119 182.243 189.735 182.653C188.574 183.895 188.265 184.316 188.265 184.654C188.265 184.831 188.115 184.976 187.933 184.976C187.579 184.976 186.716 185.736 186.716 186.047C186.716 186.15 186.019 186.949 185.168 187.823C184.316 188.697 183.619 189.535 183.619 189.683C183.619 189.832 182.992 190.564 182.226 191.309C181.459 192.054 180.832 192.815 180.832 193C180.832 193.186 180.683 193.338 180.501 193.338C180.14 193.338 179.284 194.1 179.284 194.422C179.284 194.531 179.11 194.815 178.897 195.052C177.978 196.077 177.735 196.427 177.735 196.731C177.735 196.909 177.586 197.054 177.404 197.054C177.043 197.054 176.187 197.816 176.187 198.138C176.187 198.459 175.331 199.222 174.97 199.222C174.788 199.222 174.639 199.367 174.639 199.545C174.639 199.891 173.248 201.389 172.927 201.389C172.627 201.389 171.852 200.536 171.852 200.206C171.852 200.042 171.643 199.827 171.387 199.729C171.132 199.631 170.923 199.421 170.923 199.262C170.923 199.104 169.599 197.633 167.981 195.994C166.363 194.355 165.039 192.877 165.039 192.711C165.039 192.545 164.889 192.409 164.707 192.409C164.346 192.409 163.49 191.646 163.49 191.325C163.49 191.003 162.635 190.241 162.274 190.241C162.091 190.241 161.942 190.092 161.942 189.909C161.942 189.48 161.154 188.692 160.725 188.692C160.543 188.692 160.394 188.575 160.394 188.431C160.394 188.288 159.906 187.908 159.31 187.587C158.714 187.266 158.226 186.896 158.226 186.764C158.226 186.633 157.877 186.525 157.452 186.525C157.026 186.525 156.677 186.392 156.677 186.229C156.677 186.066 156.188 185.842 155.59 185.73C154.992 185.617 154.426 185.402 154.333 185.251C154.113 184.895 147.077 184.891 147.077 185.246C147.077 185.395 146.52 185.606 145.839 185.715C145.157 185.824 144.6 186.05 144.6 186.219C144.6 186.387 144.311 186.525 143.959 186.525C143.606 186.525 143.123 186.699 142.885 186.912C141.926 187.772 141.519 188.073 141.315 188.073C140.991 188.073 137.168 192.081 137.168 192.421C137.168 192.585 137.028 192.718 136.858 192.718C136.688 192.718 136.544 192.962 136.538 193.26C136.533 193.558 136.324 194.073 136.074 194.403C135.824 194.734 135.619 195.326 135.619 195.719C135.619 196.113 135.48 196.434 135.31 196.434C135.118 196.434 135 198.086 135 200.77C135 203.454 135.118 205.105 135.31 205.105C135.48 205.105 135.619 205.427 135.619 205.82C135.619 206.214 135.824 206.806 136.074 207.137C136.324 207.467 136.533 207.982 136.538 208.28C136.544 208.578 136.688 208.822 136.858 208.822C137.028 208.822 137.168 208.971 137.168 209.153C137.168 209.336 137.342 209.679 137.555 209.917C138.365 210.82 138.716 211.278 138.716 211.431C138.716 211.519 140.388 213.271 142.432 215.325C144.476 217.379 146.148 219.135 146.148 219.227C146.148 219.524 147.022 220.28 147.365 220.28C147.548 220.28 147.697 220.425 147.697 220.602C147.697 220.991 148.025 221.396 149.942 223.376C150.751 224.212 151.413 225.041 151.413 225.22C151.413 225.398 151.562 225.544 151.745 225.544C151.927 225.544 152.276 225.743 152.519 225.987C152.762 226.23 152.961 226.578 152.961 226.761C152.961 226.943 153.111 227.092 153.293 227.092C153.654 227.092 154.51 227.855 154.51 228.176C154.51 228.435 155.335 229.26 155.594 229.26C155.852 229.26 156.677 230.086 156.677 230.344C156.677 230.666 157.533 231.428 157.894 231.428C158.077 231.428 158.226 231.574 158.226 231.751C158.226 231.929 158.574 232.45 159 232.909C159.426 233.368 159.774 233.92 159.774 234.135C159.774 234.349 159.92 234.525 160.098 234.525C160.276 234.525 160.764 234.867 161.182 235.285C161.6 235.703 161.942 236.191 161.942 236.369C161.942 236.547 162.091 236.692 162.274 236.692C162.456 236.692 162.8 236.867 163.037 237.08C164.062 237.999 164.412 238.241 164.716 238.241C164.893 238.241 165.04 238.345 165.041 238.473C165.043 238.785 166.834 239.789 167.386 239.789C167.628 239.789 167.826 239.929 167.826 240.099C167.826 240.269 168.286 240.409 168.848 240.409C169.41 240.409 170.029 240.568 170.225 240.764C170.84 241.379 174.944 241.477 176.304 240.909C176.963 240.634 177.902 240.409 178.393 240.409C178.883 240.409 179.284 240.269 179.284 240.099C179.284 239.929 179.572 239.789 179.925 239.789C180.278 239.789 180.761 239.615 180.999 239.402C182.023 238.483 182.374 238.241 182.677 238.241C182.855 238.241 183 238.111 183 237.952C183 237.793 183.268 237.578 183.596 237.474C184.249 237.267 186.097 235.493 186.097 235.074C186.097 234.93 186.724 234.202 187.49 233.457C188.257 232.712 188.884 231.951 188.884 231.765C188.884 231.58 189.033 231.428 189.216 231.428C189.577 231.428 190.432 230.666 190.432 230.344C190.432 230.234 190.607 229.951 190.819 229.713C191.738 228.689 191.981 228.338 191.981 228.035C191.981 227.857 192.13 227.712 192.312 227.712C192.658 227.712 193.529 226.955 193.529 226.654C193.529 226.559 194.191 225.792 195 224.949C196.659 223.221 197.245 222.538 197.245 222.332C197.245 222.255 198.081 221.342 199.103 220.305C200.125 219.267 200.961 218.343 200.961 218.252C200.961 218.064 201.413 217.498 202.432 216.408C202.815 215.998 203.129 215.517 203.129 215.339C203.129 215.161 203.278 215.015 203.461 215.015C203.822 215.015 204.677 214.253 204.677 213.931C204.677 213.61 205.533 212.847 205.894 212.847C206.077 212.847 206.226 212.698 206.226 212.516C206.226 212.333 206.4 211.99 206.613 211.752C207.435 210.835 207.774 210.39 207.774 210.226C207.774 210.132 208.75 209.082 209.942 207.893C211.134 206.703 212.11 205.61 212.11 205.466C212.11 205.321 212.806 204.475 213.658 203.587C214.51 202.699 215.206 201.901 215.206 201.814C215.206 201.524 216.086 200.77 216.423 200.77C216.606 200.77 216.755 200.625 216.755 200.447C216.755 200.11 217.064 199.689 218.226 198.446C218.609 198.037 218.923 197.555 218.923 197.377C218.923 197.199 219.132 197.054 219.387 197.054C219.643 197.054 219.852 196.902 219.852 196.717C219.852 196.531 220.479 195.77 221.245 195.025C222.012 194.28 222.639 193.548 222.639 193.398C222.639 193.248 223.475 192.268 224.497 191.22C225.519 190.172 226.355 189.175 226.355 189.004C226.355 188.833 226.564 188.692 226.819 188.692C227.075 188.692 227.284 188.547 227.284 188.37C227.284 188.032 227.593 187.611 228.755 186.369C229.138 185.959 229.452 185.478 229.452 185.3C229.452 185.122 229.601 184.976 229.783 184.976C230.132 184.976 231 184.219 231 183.914C231 183.817 231.523 183.19 232.161 182.521C233.608 181.005 234.097 180.411 234.097 180.166C234.097 180.061 235.072 179.011 236.265 177.832C237.457 176.654 238.432 175.579 238.432 175.443C238.432 175.307 238.92 174.679 239.516 174.047C240.112 173.415 240.6 172.758 240.6 172.589C240.6 172.419 240.809 172.28 241.065 172.28C241.32 172.28 241.529 172.128 241.529 171.944C241.529 171.76 242.017 171.135 242.613 170.556C243.209 169.977 243.697 169.355 243.697 169.174C243.697 168.992 244.045 168.521 244.471 168.126C244.897 167.731 245.245 167.181 245.245 166.902C245.245 166.624 245.369 166.396 245.521 166.396C245.673 166.396 245.885 166.047 245.992 165.622C246.099 165.196 246.323 164.847 246.49 164.847C246.657 164.847 246.794 164.429 246.794 163.918C246.794 163.407 246.933 162.989 247.103 162.989C247.294 162.989 247.413 161.441 247.413 158.963C247.413 156.486 247.294 154.938 247.103 154.938C246.933 154.938 246.794 154.45 246.794 153.854C246.794 153.258 246.657 152.77 246.49 152.77C246.323 152.77 246.099 152.422 245.992 151.996C245.885 151.57 245.673 151.222 245.521 151.222C245.369 151.222 245.245 150.933 245.245 150.58C245.245 149.895 244.575 149.054 244.028 149.054C243.846 149.054 243.697 148.909 243.697 148.732C243.697 148.304 241.36 145.957 240.934 145.957C240.75 145.957 240.599 145.853 240.598 145.725C240.595 145.413 238.805 144.409 238.252 144.409C238.011 144.409 237.813 144.269 237.813 144.099C237.813 143.929 237.337 143.789 236.755 143.789C236.173 143.789 235.65 143.659 235.593 143.5C235.475 143.168 230.802 142.859 229.065 143.068Z" fill="white"/>
</svg>
