<svg width="24" height="24" viewBox="0 0 24 24" fill="none" xmlns="http://www.w3.org/2000/svg">
<mask id="mask0_601_2521" style="mask-type:alpha" maskUnits="userSpaceOnUse" x="0" y="0" width="24" height="24">
<rect width="24" height="24" fill="#D9D9D9"/>
</mask>
<g mask="url(#mask0_601_2521)">
<path fill-rule="evenodd" clip-rule="evenodd" d="M11.1546 1.08866C9.64762 1.42255 8.45739 2.54502 8.04676 4.01951C7.96255 4.32184 7.94405 4.51101 7.9447 5.06274C7.94541 5.65885 7.96002 5.78388 8.07104 6.14552C8.37619 7.13948 8.94171 7.89083 9.79656 8.4381C10.486 8.87944 11.1862 9.07981 12.0235 9.07521C13.8553 9.06512 15.3848 7.91764 15.9291 6.1451C16.04 5.78392 16.0546 5.65867 16.0553 5.06274C16.056 4.51101 16.0374 4.32184 15.9532 4.01951C15.7317 3.22415 15.2582 2.48804 14.6268 1.95773C14.2467 1.63839 13.5298 1.2623 13.0568 1.13402C12.6592 1.02615 11.5554 0.99984 11.1546 1.08866ZM3.08614 4.06324C2.35022 4.26765 1.76205 4.742 1.42483 5.40314C0.935296 6.3628 1.13016 7.55219 1.90215 8.31614C2.41691 8.82553 3.01231 9.07084 3.73386 9.07084C4.95978 9.07084 5.96435 8.2798 6.24756 7.09137C6.53913 5.86782 5.81068 4.556 4.60274 4.12929C4.23194 3.99827 3.4436 3.96397 3.08614 4.06324ZM19.6184 4.06324C18.8825 4.26765 18.2943 4.742 17.9571 5.40314C17.4676 6.3628 17.6625 7.55219 18.4344 8.31614C18.9492 8.82553 19.5446 9.07084 20.2661 9.07084C21.4921 9.07084 22.4966 8.2798 22.7799 7.09137C23.0714 5.86782 22.343 4.556 21.135 4.12929C20.7642 3.99827 19.9759 3.96397 19.6184 4.06324ZM10.9902 10.6671C9.59342 10.8678 8.78442 11.1708 7.91361 11.819C6.95925 12.5295 6.33191 13.3831 5.98788 14.4391C5.6663 15.4263 5.58247 16.5024 5.64286 18.8675L5.68499 20.5186L5.81101 20.7734C5.98215 21.1195 6.27955 21.407 6.64579 21.5804L6.95108 21.7248H11.7652C16.8565 21.7248 17.0067 21.7191 17.501 21.5087C17.7781 21.3907 18.0276 21.1273 18.1933 20.7776L18.317 20.5164L18.3308 18.2343C18.3459 15.7374 18.3223 15.3988 18.0798 14.637C17.4583 12.6845 15.7109 11.1036 13.7847 10.7511C13.4423 10.6884 11.2916 10.6238 10.9902 10.6671ZM2.3953 10.7613C1.36917 11.0056 0.473894 11.8351 0.136297 12.8544L0 13.266V16.2637V19.2615L0.139303 19.5105C0.294012 19.7868 0.504 19.9787 0.821918 20.1342C1.02472 20.2334 1.09381 20.2381 2.53066 20.2526C3.35418 20.261 4.07831 20.2553 4.13979 20.24L4.25157 20.2123L4.24283 18.2264C4.23377 16.1623 4.26472 15.6193 4.43911 14.7877C4.69033 13.5896 5.2753 12.4496 6.07087 11.608L6.28185 11.3848L6.1703 11.291C5.9651 11.1186 5.31081 10.825 4.97847 10.7561C4.529 10.6631 2.7933 10.6665 2.3953 10.7613ZM19.0014 10.7568C18.6462 10.8352 18.0985 11.0836 17.8826 11.2642L17.73 11.3919L18.0147 11.7015C18.7891 12.5435 19.3203 13.5991 19.5604 14.7734C19.7267 15.5871 19.7596 16.1724 19.7542 18.2264L19.7489 20.2124L19.8606 20.2401C19.9221 20.2554 20.6355 20.2611 21.446 20.2527C22.8346 20.2384 22.9323 20.2318 23.1368 20.1382C23.4346 20.002 23.7245 19.7316 23.8745 19.4504L24 19.215V16.2405V13.266L23.8625 12.8509C23.5515 11.9118 22.8264 11.1836 21.8553 10.8352C21.5233 10.716 21.4707 10.7112 20.407 10.7009C19.5871 10.693 19.2257 10.7073 19.0014 10.7568Z" fill="#142464"/>
</g>
</svg>
