<svg width="22" height="20" viewBox="0 0 22 20" fill="none" xmlns="http://www.w3.org/2000/svg">
<path fill-rule="evenodd" clip-rule="evenodd" d="M19.745 2.255C18.62 1.13 17.21 0.545 15.5 0.5C13.805 0.545 12.38 1.13 11.255 2.255C10.13 3.38 9.56 4.79 9.515 6.5C9.515 6.95 9.56 7.385 9.65 7.835L0.5 17V18.5L2 20H5L6.5 18.5V17H8V15.5H9.5V14H12.5L14.135 12.335C14.585 12.455 15.02 12.5 15.5 12.5C17.21 12.455 18.62 11.87 19.745 10.745C20.87 9.62 21.455 8.21 21.5 6.5C21.455 4.79 20.87 3.38 19.745 2.255ZM17 7.07C15.845 7.07 14.93 6.155 14.93 5C14.93 3.845 15.845 2.93 17 2.93C18.155 2.93 19.07 3.845 19.07 5C19.07 6.155 18.155 7.07 17 7.07Z" fill="white"/>
</svg>
