<svg width="18" height="14" viewBox="0 0 18 14" fill="none" xmlns="http://www.w3.org/2000/svg">
<path d="M17.2667 6.66732C15.5834 2.75898 12.4167 0.333984 9.00006 0.333984C5.58339 0.333984 2.41672 2.75898 0.733389 6.66732C0.687503 6.77246 0.663818 6.88594 0.663818 7.00065C0.663818 7.11537 0.687503 7.22885 0.733389 7.33398C2.41672 11.2423 5.58339 13.6673 9.00006 13.6673C12.4167 13.6673 15.5834 11.2423 17.2667 7.33398C17.3126 7.22885 17.3363 7.11537 17.3363 7.00065C17.3363 6.88594 17.3126 6.77246 17.2667 6.66732ZM9.00006 12.0007C6.35839 12.0007 3.85839 10.0923 2.41672 7.00065C3.85839 3.90898 6.35839 2.00065 9.00006 2.00065C11.6417 2.00065 14.1417 3.90898 15.5834 7.00065C14.1417 10.0923 11.6417 12.0007 9.00006 12.0007ZM9.00006 3.66732C8.34078 3.66732 7.69632 3.86281 7.14816 4.22909C6.59999 4.59536 6.17275 5.11595 5.92046 5.72504C5.66816 6.33413 5.60215 7.00435 5.73077 7.65095C5.85939 8.29755 6.17686 8.8915 6.64303 9.35767C7.10921 9.82385 7.70315 10.1413 8.34975 10.2699C8.99636 10.3986 9.66658 10.3325 10.2757 10.0802C10.8848 9.82796 11.4053 9.40071 11.7716 8.85255C12.1379 8.30439 12.3334 7.65992 12.3334 7.00065C12.3334 6.1166 11.9822 5.26875 11.3571 4.64363C10.732 4.01851 9.88411 3.66732 9.00006 3.66732ZM9.00006 8.66732C8.67042 8.66732 8.34819 8.56957 8.07411 8.38643C7.80002 8.2033 7.5864 7.943 7.46026 7.63846C7.33411 7.33391 7.3011 6.9988 7.36541 6.6755C7.42972 6.3522 7.58846 6.05523 7.82154 5.82214C8.05463 5.58905 8.3516 5.43032 8.6749 5.36601C8.99821 5.3017 9.33332 5.33471 9.63786 5.46085C9.9424 5.587 10.2027 5.80062 10.3858 6.0747C10.569 6.34878 10.6667 6.67101 10.6667 7.00065C10.6667 7.44268 10.4911 7.8666 10.1786 8.17916C9.86601 8.49172 9.44208 8.66732 9.00006 8.66732Z" fill="#0983DB"/>
</svg>
