<svg width="16" height="16" viewBox="0 0 16 16" fill="none" xmlns="http://www.w3.org/2000/svg">
<g opacity="0.5">
<path d="M3.99992 12.6667C3.99992 13.4 4.59992 14 5.33325 14H10.6666C11.3999 14 11.9999 13.4 11.9999 12.6667V6C11.9999 5.26667 11.3999 4.66667 10.6666 4.66667H5.33325C4.59992 4.66667 3.99992 5.26667 3.99992 6V12.6667ZM11.9999 2.66667H10.3333L9.85992 2.19333C9.73992 2.07333 9.56659 2 9.39325 2H6.60659C6.43325 2 6.25992 2.07333 6.13992 2.19333L5.66659 2.66667H3.99992C3.63325 2.66667 3.33325 2.96667 3.33325 3.33333C3.33325 3.7 3.63325 4 3.99992 4H11.9999C12.3666 4 12.6666 3.7 12.6666 3.33333C12.6666 2.96667 12.3666 2.66667 11.9999 2.66667Z" fill="black"/>
</g>
</svg>
