<svg width="24" height="24" viewBox="0 0 24 24" fill="none" xmlns="http://www.w3.org/2000/svg">
<path fill-rule="evenodd" clip-rule="evenodd" d="M10.2451 1.23295V2.46591L9.789 2.57512C8.8136 2.80866 7.70199 3.27291 6.83008 3.81084L6.47922 4.02731L5.60202 3.1508L4.72478 2.27423L3.5086 3.49219L2.29238 4.71014L3.16401 5.58441L4.03559 6.45862L3.79041 6.86536C3.23596 7.78514 2.80426 8.82623 2.56998 9.80859L2.46098 10.2656H1.23049H0V12V13.7344H1.23049H2.46098L2.56998 14.1914C2.80426 15.1738 3.23596 16.2149 3.79041 17.1346L4.03559 17.5414L3.16401 18.4156L2.29238 19.2899L3.5086 20.5078L4.72478 21.7258L5.60202 20.8492L6.47922 19.9727L6.83008 20.1885C7.70938 20.7293 8.81693 21.1921 9.789 21.4249L10.2451 21.5341V22.767V24H11.976H13.7069V22.767V21.5341L14.1631 21.425C15.1335 21.1929 16.1053 20.7929 17.0213 20.2484L17.5054 19.9606L18.373 20.8367L19.2406 21.7128L20.4616 20.4894L21.6826 19.266L20.8083 18.3869L19.9341 17.5078L20.1892 17.0859C20.7227 16.2037 21.1496 15.1681 21.382 14.1922L21.4907 13.7359L22.7331 13.7234L23.9754 13.7109L23.9877 11.9766L24 10.2422L22.7459 10.2554L21.4917 10.2685L21.3825 9.81005C21.1496 8.83181 20.7232 7.797 20.1892 6.91406L19.9341 6.49219L20.8083 5.61309L21.6826 4.73405L20.4616 3.51061L19.2406 2.28717L18.373 3.16327L17.5054 4.03936L17.0213 3.75108C16.0884 3.19561 15.1664 2.81634 14.1631 2.57545L13.7069 2.46591V1.23295V0H11.976H10.2451V1.23295ZM12.0917 8.35547C12.0451 8.48091 10.5233 15.3881 10.5389 15.4037C10.5848 15.4498 11.8108 15.6996 11.8396 15.6688C11.8788 15.6267 13.4376 8.62073 13.4131 8.59627C13.3984 8.5815 12.1817 8.29688 12.1333 8.29688C12.1224 8.29688 12.1036 8.32327 12.0917 8.35547ZM6.73642 10.6642L5.40367 12.0002L6.7483 13.3476L8.09299 14.6949L8.57221 14.2147L9.05144 13.7346L8.18683 12.8673L7.32222 12L8.18655 11.133L9.05083 10.266L8.58456 9.79706C8.32815 9.53916 8.10725 9.32812 8.09373 9.32812C8.08021 9.32812 7.46944 9.92934 6.73642 10.6642ZM15.3675 9.79706L14.9012 10.266L15.7655 11.133L16.6298 12L15.7652 12.8673L14.9006 13.7346L15.3798 14.2147L15.8591 14.6949L17.2037 13.3476L18.5484 12.0002L17.2156 10.6642C16.4826 9.92934 15.8718 9.32812 15.8583 9.32812C15.8448 9.32812 15.6239 9.53916 15.3675 9.79706ZM0.0211919 12C0.0211919 12.9668 0.0274139 13.3623 0.0350392 12.8789C0.0426178 12.3955 0.0426178 11.6045 0.0350392 11.1211C0.0274139 10.6377 0.0211919 11.0332 0.0211919 12Z" fill="#142464"/>
</svg>
