<svg width="19" height="19" viewBox="0 -3 19 19" fill="none" xmlns="http://www.w3.org/2000/svg">
<path d="M3.26562 16.625C2.71447 16.625 2.18589 16.4061 1.79617 16.0163C1.40644 15.6266 1.1875 15.098 1.1875 14.5469V11.5781C1.1875 11.3419 1.28133 11.1154 1.44836 10.9484C1.61538 10.7813 1.84192 10.6875 2.07812 10.6875C2.31433 10.6875 2.54087 10.7813 2.70789 10.9484C2.87492 11.1154 2.96875 11.3419 2.96875 11.5781V14.5469C2.96875 14.7108 3.10175 14.8438 3.26562 14.8438H15.7344C15.8131 14.8438 15.8886 14.8125 15.9443 14.7568C16 14.7011 16.0312 14.6256 16.0312 14.5469V11.5781C16.0312 11.3419 16.1251 11.1154 16.2921 10.9484C16.4591 10.7813 16.6857 10.6875 16.9219 10.6875C17.1581 10.6875 17.3846 10.7813 17.5516 10.9484C17.7187 11.1154 17.8125 11.3419 17.8125 11.5781V14.5469C17.8125 15.098 17.5936 15.6266 17.2038 16.0163C16.8141 16.4061 16.2855 16.625 15.7344 16.625H3.26562Z" fill="#2645C3"/>
<path d="M8.60931 9.13069V2.375C8.60931 2.13879 8.70314 1.91226 8.87017 1.74523C9.03719 1.57821 9.26373 1.48438 9.49993 1.48438C9.73614 1.48438 9.96268 1.57821 10.1297 1.74523C10.2967 1.91226 10.3906 2.13879 10.3906 2.375V9.13069L12.7299 6.7925C12.8126 6.70985 12.9107 6.64429 13.0187 6.59956C13.1267 6.55483 13.2424 6.5318 13.3593 6.5318C13.4762 6.5318 13.5919 6.55483 13.6999 6.59956C13.8079 6.64429 13.906 6.70985 13.9887 6.7925C14.0713 6.87515 14.1369 6.97327 14.1816 7.08126C14.2264 7.18925 14.2494 7.30499 14.2494 7.42187C14.2494 7.53876 14.2264 7.6545 14.1816 7.76249C14.1369 7.87048 14.0713 7.9686 13.9887 8.05125L10.1293 11.9106C10.0467 11.9934 9.94859 12.059 9.8406 12.1038C9.73261 12.1485 9.61684 12.1716 9.49993 12.1716C9.38302 12.1716 9.26726 12.1485 9.15927 12.1038C9.05127 12.059 8.95317 11.9934 8.87056 11.9106L5.01118 8.05125C4.92853 7.9686 4.86297 7.87048 4.81824 7.76249C4.77351 7.6545 4.75049 7.53876 4.75049 7.42187C4.75049 7.30499 4.77351 7.18925 4.81824 7.08126C4.86297 6.97327 4.92853 6.87515 5.01118 6.7925C5.09383 6.70985 5.19196 6.64429 5.29994 6.59956C5.40793 6.55483 5.52367 6.5318 5.64056 6.5318C5.75744 6.5318 5.87319 6.55483 5.98117 6.59956C6.08916 6.64429 6.18728 6.70985 6.26993 6.7925L8.60931 9.13069Z" fill="#2645C3"/>
</svg>
