<svg width="4" height="16" viewBox="0 0 4 16" fill="none" xmlns="http://www.w3.org/2000/svg">
<path d="M3.89293e-07 2C3.40944e-07 3.10457 0.895431 4 2 4C3.10457 4 4 3.10457 4 2C4 0.895431 3.10457 -3.90863e-08 2 -8.73018e-08C0.895431 -1.35517e-07 4.37642e-07 0.89543 3.89293e-07 2Z" fill="#1C1C1C"/>
<path d="M3.89293e-07 8C3.40944e-07 9.10457 0.895431 10 2 10C3.10457 10 4 9.10457 4 8C4 6.89543 3.10457 6 2 6C0.895431 6 4.37642e-07 6.89543 3.89293e-07 8Z" fill="#1C1C1C"/>
<path d="M3.89293e-07 14C3.40944e-07 15.1046 0.895431 16 2 16C3.10457 16 4 15.1046 4 14C4 12.8954 3.10457 12 2 12C0.895431 12 4.37642e-07 12.8954 3.89293e-07 14Z" fill="#1C1C1C"/>
</svg>
