<svg width="14" height="14" viewBox="0 0 14 14" fill="none" xmlns="http://www.w3.org/2000/svg">
<path d="M12.9999 8.33398C12.8231 8.33398 12.6535 8.40422 12.5285 8.52925C12.4035 8.65427 12.3333 8.82384 12.3333 9.00065V11.6673C12.3333 11.8441 12.263 12.0137 12.138 12.1387C12.013 12.2637 11.8434 12.334 11.6666 12.334H2.33325C2.15644 12.334 1.98687 12.2637 1.86185 12.1387C1.73682 12.0137 1.66659 11.8441 1.66659 11.6673V9.00065C1.66659 8.82384 1.59635 8.65427 1.47132 8.52925C1.3463 8.40422 1.17673 8.33398 0.999919 8.33398C0.823108 8.33398 0.653538 8.40422 0.528514 8.52925C0.40349 8.65427 0.333252 8.82384 0.333252 9.00065V11.6673C0.333252 12.1978 0.543966 12.7065 0.919038 13.0815C1.29411 13.4566 1.80282 13.6673 2.33325 13.6673H11.6666C12.197 13.6673 12.7057 13.4566 13.0808 13.0815C13.4559 12.7065 13.6666 12.1978 13.6666 11.6673V9.00065C13.6666 8.82384 13.5963 8.65427 13.4713 8.52925C13.3463 8.40422 13.1767 8.33398 12.9999 8.33398ZM6.52659 9.47398C6.58999 9.53468 6.66475 9.58226 6.74659 9.61399C6.82639 9.64925 6.91267 9.66747 6.99992 9.66747C7.08717 9.66747 7.17345 9.64925 7.25325 9.61399C7.33509 9.58226 7.40985 9.53468 7.47325 9.47398L10.1399 6.80732C10.2655 6.68178 10.336 6.51152 10.336 6.33398C10.336 6.15645 10.2655 5.98619 10.1399 5.86065C10.0144 5.73512 9.84412 5.66459 9.66659 5.66459C9.48905 5.66459 9.31879 5.73512 9.19325 5.86065L7.66659 7.39398V1.00065C7.66659 0.82384 7.59635 0.654271 7.47132 0.529246C7.3463 0.404222 7.17673 0.333984 6.99992 0.333984C6.82311 0.333984 6.65354 0.404222 6.52851 0.529246C6.40349 0.654271 6.33325 0.82384 6.33325 1.00065V7.39398L4.80659 5.86065C4.74443 5.79849 4.67063 5.74918 4.58942 5.71554C4.5082 5.6819 4.42116 5.66459 4.33325 5.66459C4.24535 5.66459 4.1583 5.6819 4.07709 5.71554C3.99587 5.74918 3.92208 5.79849 3.85992 5.86065C3.79776 5.92281 3.74845 5.9966 3.71481 6.07782C3.68117 6.15903 3.66386 6.24608 3.66386 6.33398C3.66386 6.42189 3.68117 6.50894 3.71481 6.59015C3.74845 6.67137 3.79776 6.74516 3.85992 6.80732L6.52659 9.47398Z" fill="#0983DB"/>
</svg>
