<svg width="32" height="32" viewBox="0 0 32 32" fill="none" xmlns="http://www.w3.org/2000/svg">
<path d="M25.3333 2.66663H6.66663C5.60576 2.66663 4.58834 3.08805 3.8382 3.8382C3.08805 4.58834 2.66663 5.60576 2.66663 6.66663V8.22663C2.66644 8.77722 2.77991 9.32192 2.99996 9.82663V9.90663C3.18833 10.3346 3.45515 10.7235 3.78663 11.0533L12 19.2133V28C11.9995 28.2266 12.0568 28.4495 12.1665 28.6478C12.2761 28.8461 12.4345 29.0132 12.6266 29.1333C12.8388 29.2648 13.0837 29.3341 13.3333 29.3333C13.542 29.332 13.7475 29.2818 13.9333 29.1866L19.2666 26.52C19.4865 26.4092 19.6714 26.2396 19.8009 26.0302C19.9303 25.8207 19.9992 25.5795 20 25.3333V19.2133L28.16 11.0533C28.4914 10.7235 28.7583 10.3346 28.9466 9.90663V9.82663C29.185 9.32587 29.3167 8.781 29.3333 8.22663V6.66663C29.3333 5.60576 28.9119 4.58834 28.1617 3.8382C27.4116 3.08805 26.3942 2.66663 25.3333 2.66663ZM17.72 17.72C17.5964 17.8445 17.4986 17.9923 17.4323 18.1548C17.3659 18.3172 17.3323 18.4912 17.3333 18.6666V24.5066L14.6666 25.84V18.6666C14.6676 18.4912 14.634 18.3172 14.5677 18.1548C14.5013 17.9923 14.4035 17.8445 14.28 17.72L7.21329 10.6666H24.7866L17.72 17.72ZM26.6666 7.99996H5.33329V6.66663C5.33329 6.313 5.47377 5.97387 5.72382 5.72382C5.97387 5.47377 6.313 5.33329 6.66663 5.33329H25.3333C25.6869 5.33329 26.0261 5.47377 26.2761 5.72382C26.5261 5.97387 26.6666 6.313 26.6666 6.66663V7.99996Z" fill="#3783FB"/>
</svg>
