<svg width="40" height="40" viewBox="0 0 40 40" fill="none" xmlns="http://www.w3.org/2000/svg">
<path d="M0.3125 8.84375V3.59375C0.313521 2.72382 0.659551 1.88982 1.27468 1.27468C1.88982 0.659551 2.72382 0.313521 3.59375 0.3125H8.84375C9.0178 0.3125 9.18472 0.38164 9.30779 0.504711C9.43086 0.627782 9.5 0.794702 9.5 0.96875C9.5 1.1428 9.43086 1.30972 9.30779 1.43279C9.18472 1.55586 9.0178 1.625 8.84375 1.625H3.59375C3.07178 1.62557 2.57135 1.83317 2.20226 2.20226C1.83317 2.57135 1.62557 3.07178 1.625 3.59375V8.84375C1.625 9.0178 1.55586 9.18472 1.43279 9.30779C1.30972 9.43086 1.1428 9.5 0.96875 9.5C0.794702 9.5 0.627782 9.43086 0.504711 9.30779C0.38164 9.18472 0.3125 9.0178 0.3125 8.84375ZM11.4688 15.4062C11.4665 13.921 11.852 12.4609 12.5871 11.1704C13.3223 9.87985 14.3816 8.8036 15.6603 8.04809C16.9391 7.29258 18.3929 6.884 19.878 6.86276C21.3631 6.84152 22.828 7.20835 24.1278 7.92697C25.4276 8.64559 26.5173 9.6911 27.289 10.9601C28.0608 12.2291 28.4879 13.6775 28.5281 15.1622C28.5683 16.6469 28.2202 18.1164 27.5182 19.4253C26.8163 20.7342 25.7848 21.8371 24.5257 22.625H24.5938C27.2036 22.6279 29.7057 23.6659 31.5511 25.5114C33.3966 27.3568 34.4346 29.8589 34.4375 32.4688C34.4375 32.5549 34.4206 32.6403 34.3876 32.7199C34.3546 32.7995 34.3063 32.8719 34.2453 32.9328C34.1844 32.9938 34.112 33.0421 34.0324 33.0751C33.9528 33.1081 33.8674 33.125 33.7812 33.125H6.21875C6.13256 33.125 6.04722 33.1081 5.96759 33.0751C5.88796 33.0421 5.8156 32.9938 5.75466 32.9328C5.69372 32.8719 5.64538 32.7995 5.61241 32.7199C5.57944 32.6403 5.56248 32.5549 5.5625 32.4688C5.5654 29.8589 6.60344 27.3568 8.44888 25.5114C10.2943 23.6659 12.7964 22.6279 15.4062 22.625H15.4743C14.2499 21.8595 13.24 20.7955 12.5394 19.5328C11.8388 18.2702 11.4704 16.8503 11.4688 15.4062ZM12.7812 15.4062C12.7812 16.834 13.2046 18.2297 13.9978 19.4168C14.791 20.6039 15.9184 21.5291 17.2375 22.0755C18.5566 22.6219 20.008 22.7648 21.4083 22.4863C22.8086 22.2078 24.0949 21.5202 25.1044 20.5107C26.114 19.5011 26.8015 18.2149 27.08 16.8146C27.3586 15.4143 27.2156 13.9628 26.6693 12.6438C26.1229 11.3247 25.1976 10.1973 24.0105 9.40408C22.8234 8.61087 21.4277 8.1875 20 8.1875C18.0861 8.18966 16.2513 8.9509 14.898 10.3042C13.5447 11.6575 12.7834 13.4924 12.7812 15.4062ZM8.84375 38.375H3.59375C3.07178 38.3744 2.57135 38.1668 2.20226 37.7977C1.83317 37.4286 1.62557 36.9282 1.625 36.4062V31.1562C1.625 30.9822 1.55586 30.8153 1.43279 30.6922C1.30972 30.5691 1.1428 30.5 0.96875 30.5C0.794702 30.5 0.627782 30.5691 0.504711 30.6922C0.38164 30.8153 0.3125 30.9822 0.3125 31.1562V36.4062C0.313521 37.2762 0.659551 38.1102 1.27468 38.7253C1.88982 39.3404 2.72382 39.6865 3.59375 39.6875H8.84375C9.0178 39.6875 9.18472 39.6184 9.30779 39.4953C9.43086 39.3722 9.5 39.2053 9.5 39.0312C9.5 38.8572 9.43086 38.6903 9.30779 38.5672C9.18472 38.4441 9.0178 38.375 8.84375 38.375ZM36.4062 0.3125H31.1562C30.9822 0.3125 30.8153 0.38164 30.6922 0.504711C30.5691 0.627782 30.5 0.794702 30.5 0.96875C30.5 1.1428 30.5691 1.30972 30.6922 1.43279C30.8153 1.55586 30.9822 1.625 31.1562 1.625H36.4062C36.9282 1.62557 37.4286 1.83317 37.7977 2.20226C38.1668 2.57135 38.3744 3.07178 38.375 3.59375V8.84375C38.375 9.0178 38.4441 9.18472 38.5672 9.30779C38.6903 9.43086 38.8572 9.5 39.0312 9.5C39.2053 9.5 39.3722 9.43086 39.4953 9.30779C39.6184 9.18472 39.6875 9.0178 39.6875 8.84375V3.59375C39.6865 2.72382 39.3404 1.88982 38.7253 1.27468C38.1102 0.659551 37.2762 0.313521 36.4062 0.3125ZM39.0312 30.5C38.9451 30.5 38.8597 30.5169 38.7801 30.5499C38.7005 30.5829 38.6281 30.6312 38.5672 30.6922C38.5062 30.7531 38.4579 30.8255 38.4249 30.9051C38.3919 30.9847 38.375 31.0701 38.375 31.1562V36.4062C38.3744 36.9282 38.1668 37.4286 37.7977 37.7977C37.4286 38.1668 36.9282 38.3744 36.4062 38.375H31.1562C30.9822 38.375 30.8153 38.4441 30.6922 38.5672C30.5691 38.6903 30.5 38.8572 30.5 39.0312C30.5 39.2053 30.5691 39.3722 30.6922 39.4953C30.8153 39.6184 30.9822 39.6875 31.1562 39.6875H36.4062C37.2762 39.6865 38.1102 39.3404 38.7253 38.7253C39.3404 38.1102 39.6865 37.2762 39.6875 36.4062V31.1562C39.6875 31.0701 39.6706 30.9847 39.6376 30.9051C39.6046 30.8255 39.5563 30.7531 39.4953 30.6922C39.4344 30.6312 39.362 30.5829 39.2824 30.5499C39.2028 30.5169 39.1174 30.5 39.0312 30.5Z" fill="#2F42A7"/>
</svg>
