<svg width="32" height="32" viewBox="0 0 32 32" fill="none" xmlns="http://www.w3.org/2000/svg">
<path d="M28 18.6666C27.6463 18.6666 27.3072 18.8071 27.0571 19.0572C26.8071 19.3072 26.6666 19.6463 26.6666 20V25.3333C26.6666 25.6869 26.5262 26.0261 26.2761 26.2761C26.0261 26.5262 25.6869 26.6666 25.3333 26.6666H6.66663C6.313 26.6666 5.97387 26.5262 5.72382 26.2761C5.47377 26.0261 5.33329 25.6869 5.33329 25.3333V20C5.33329 19.6463 5.19282 19.3072 4.94277 19.0572C4.69272 18.8071 4.35358 18.6666 3.99996 18.6666C3.64634 18.6666 3.3072 18.8071 3.05715 19.0572C2.8071 19.3072 2.66663 19.6463 2.66663 20V25.3333C2.66663 26.3942 3.08805 27.4116 3.8382 28.1617C4.58834 28.9119 5.60576 29.3333 6.66663 29.3333H25.3333C26.3942 29.3333 27.4116 28.9119 28.1617 28.1617C28.9119 27.4116 29.3333 26.3942 29.3333 25.3333V20C29.3333 19.6463 29.1928 19.3072 28.9428 19.0572C28.6927 18.8071 28.3536 18.6666 28 18.6666ZM15.0533 20.9466C15.1801 21.068 15.3296 21.1632 15.4933 21.2266C15.6529 21.2972 15.8255 21.3336 16 21.3336C16.1745 21.3336 16.347 21.2972 16.5066 21.2266C16.6703 21.1632 16.8198 21.068 16.9466 20.9466L22.28 15.6133C22.531 15.3622 22.6721 15.0217 22.6721 14.6666C22.6721 14.3116 22.531 13.971 22.28 13.72C22.0289 13.4689 21.6884 13.3278 21.3333 13.3278C20.9782 13.3278 20.6377 13.4689 20.3866 13.72L17.3333 16.7866V3.99996C17.3333 3.64634 17.1928 3.3072 16.9428 3.05715C16.6927 2.8071 16.3536 2.66663 16 2.66663C15.6463 2.66663 15.3072 2.8071 15.0572 3.05715C14.8071 3.3072 14.6666 3.64634 14.6666 3.99996V16.7866L11.6133 13.72C11.489 13.5956 11.3414 13.497 11.179 13.4297C11.0165 13.3625 10.8424 13.3278 10.6666 13.3278C10.4908 13.3278 10.3167 13.3625 10.1543 13.4297C9.99186 13.497 9.84428 13.5956 9.71996 13.72C9.59564 13.8443 9.49703 13.9919 9.42975 14.1543C9.36247 14.3167 9.32784 14.4908 9.32784 14.6666C9.32784 14.8424 9.36247 15.0165 9.42975 15.179C9.49703 15.3414 9.59564 15.489 9.71996 15.6133L15.0533 20.9466Z" fill="#3783FB"/>
</svg>
