<svg width="16" height="16" viewBox="0 0 16 16" fill="none" xmlns="http://www.w3.org/2000/svg">
<path d="M0 1.5631C0 1.01601 9.53674e-07 0.742471 0.110001 0.533407C0.2055 0.349662 0.358136 0.200203 0.546 0.106486C0.759999 2.03805e-07 1.04 0 1.6 0H14.4C14.96 0 15.24 2.03805e-07 15.454 0.106486C15.6422 0.200147 15.7951 0.349593 15.891 0.533407C16 0.742471 16 1.01601 16 1.5631V2.2831C16 2.52245 16 2.64163 15.972 2.75398C15.9475 2.854 15.907 2.94962 15.852 3.03729C15.791 3.13499 15.704 3.21998 15.532 3.38899L10.469 8.33424C10.296 8.50325 10.209 8.58824 10.148 8.68594C10.093 8.77386 10.052 8.8696 10.028 8.96925C10 9.08062 10 9.19883 10 9.43232V14.0786C10 14.9159 10 15.335 9.82 15.587C9.74191 15.696 9.64184 15.7883 9.52594 15.8582C9.41004 15.9281 9.28075 15.9741 9.146 15.9934C8.835 16.0384 8.451 15.8518 7.685 15.4766L6.885 15.0858C6.563 14.9295 6.403 14.8514 6.286 14.7341C6.18221 14.6306 6.10331 14.5058 6.055 14.3688C6 14.2144 6 14.0386 6 13.6878V9.44013C6 9.20078 6 9.0816 5.972 8.96925C5.94755 8.86922 5.90704 8.7736 5.852 8.68594C5.792 8.58824 5.705 8.50423 5.535 8.33815L5.531 8.33424L0.468 3.38899C0.296 3.21998 0.210001 3.13499 0.148001 3.03729C0.0928955 2.94966 0.0523901 2.85403 0.0279999 2.75398C0 2.64359 0 2.5244 0 2.29091V1.5631Z" fill="#ABABAB"/>
</svg>
