<svg width="30" height="31" viewBox="0 0 30 31" fill="none" xmlns="http://www.w3.org/2000/svg">
<path d="M10.5 16.0001H7.50001C7.10219 16.0001 6.72066 16.1581 6.43935 16.4394C6.15805 16.7207 6.00001 17.1023 6.00001 17.5001C6.00001 17.8979 6.15805 18.2795 6.43935 18.5608C6.72066 18.8421 7.10219 19.0001 7.50001 19.0001H10.5C10.8978 19.0001 11.2794 18.8421 11.5607 18.5608C11.842 18.2795 12 17.8979 12 17.5001C12 17.1023 11.842 16.7207 11.5607 16.4394C11.2794 16.1581 10.8978 16.0001 10.5 16.0001ZM9.00001 13.0001H15C15.3978 13.0001 15.7794 12.8421 16.0607 12.5608C16.342 12.2795 16.5 11.8979 16.5 11.5001C16.5 11.1023 16.342 10.7207 16.0607 10.4394C15.7794 10.1581 15.3978 10.0001 15 10.0001H9.00001C8.60219 10.0001 8.22066 10.1581 7.93935 10.4394C7.65805 10.7207 7.50001 11.1023 7.50001 11.5001C7.50001 11.8979 7.65805 12.2795 7.93935 12.5608C8.22066 12.8421 8.60219 13.0001 9.00001 13.0001ZM10.5 22.0001H7.50001C7.10219 22.0001 6.72066 22.1581 6.43935 22.4394C6.15805 22.7207 6.00001 23.1023 6.00001 23.5001C6.00001 23.8979 6.15805 24.2795 6.43935 24.5608C6.72066 24.8421 7.10219 25.0001 7.50001 25.0001H10.5C10.8978 25.0001 11.2794 24.8421 11.5607 24.5608C11.842 24.2795 12 23.8979 12 23.5001C12 23.1023 11.842 22.7207 11.5607 22.4394C11.2794 22.1581 10.8978 22.0001 10.5 22.0001ZM28.5 16.0001H24V2.5001C24.0011 2.23579 23.9322 1.97589 23.8005 1.74672C23.6688 1.51755 23.4789 1.32726 23.25 1.1951C23.022 1.06345 22.7633 0.994141 22.5 0.994141C22.2367 0.994141 21.978 1.06345 21.75 1.1951L17.25 3.7751L12.75 1.1951C12.522 1.06345 12.2633 0.994141 12 0.994141C11.7367 0.994141 11.478 1.06345 11.25 1.1951L6.75001 3.7751L2.25001 1.1951C2.02198 1.06345 1.76332 0.994141 1.50001 0.994141C1.23671 0.994141 0.978041 1.06345 0.750012 1.1951C0.521105 1.32726 0.331184 1.51755 0.199479 1.74672C0.0677742 1.97589 -0.00103753 2.23579 1.18243e-05 2.5001V26.5001C1.18243e-05 27.6936 0.474118 28.8382 1.31803 29.6821C2.16195 30.526 3.30654 31.0001 4.50001 31.0001H25.5C26.6935 31.0001 27.8381 30.526 28.682 29.6821C29.5259 28.8382 30 27.6936 30 26.5001V17.5001C30 17.1023 29.842 16.7207 29.5607 16.4394C29.2794 16.1581 28.8978 16.0001 28.5 16.0001ZM4.50001 28.0001C4.10219 28.0001 3.72066 27.8421 3.43935 27.5608C3.15805 27.2795 3.00001 26.8979 3.00001 26.5001V5.0951L6.00001 6.8051C6.23152 6.92602 6.48883 6.98917 6.75001 6.98917C7.0112 6.98917 7.26851 6.92602 7.50001 6.8051L12 4.2251L16.5 6.8051C16.7315 6.92602 16.9888 6.98917 17.25 6.98917C17.5112 6.98917 17.7685 6.92602 18 6.8051L21 5.0951V26.5001C21.0041 27.0118 21.0954 27.5191 21.27 28.0001H4.50001ZM27 26.5001C27 26.8979 26.842 27.2795 26.5607 27.5608C26.2794 27.8421 25.8978 28.0001 25.5 28.0001C25.1022 28.0001 24.7207 27.8421 24.4394 27.5608C24.158 27.2795 24 26.8979 24 26.5001V19.0001H27V26.5001ZM17.34 22.2551C17.2564 22.1983 17.1656 22.1529 17.07 22.1201C16.9807 22.0744 16.8844 22.044 16.785 22.0301C16.544 21.9818 16.2949 21.9935 16.0595 22.0642C15.8241 22.1348 15.6096 22.2622 15.435 22.4351C15.1609 22.7226 15.0055 23.103 15 23.5001C14.9976 23.6951 15.0333 23.8887 15.105 24.0701C15.1865 24.2524 15.2981 24.4197 15.435 24.5651C15.5808 24.6976 15.7482 24.8041 15.93 24.8801C16.1096 24.9595 16.3037 25.0005 16.5 25.0005C16.6963 25.0005 16.8905 24.9595 17.07 24.8801C17.2518 24.8041 17.4192 24.6976 17.565 24.5651C17.704 24.4249 17.814 24.2587 17.8887 24.076C17.9633 23.8932 18.0012 23.6975 18 23.5001C17.9945 23.103 17.8391 22.7226 17.565 22.4351C17.4937 22.3706 17.4186 22.3105 17.34 22.2551ZM17.55 16.4351C17.3749 16.2645 17.1607 16.1394 16.9261 16.0705C16.6915 16.0016 16.4437 15.9911 16.2041 16.0399C15.9645 16.0887 15.7405 16.1953 15.5516 16.3505C15.3626 16.5056 15.2145 16.7046 15.12 16.9301C15.0267 17.1574 14.9905 17.4041 15.0148 17.6485C15.0391 17.893 15.1231 18.1278 15.2594 18.3322C15.3957 18.5366 15.5801 18.7044 15.7964 18.8209C16.0127 18.9373 16.2543 18.9989 16.5 19.0001C16.8978 19.0001 17.2794 18.8421 17.5607 18.5608C17.842 18.2795 18 17.8979 18 17.5001C17.9976 17.3041 17.9569 17.1104 17.88 16.9301C17.8077 16.7428 17.6951 16.5738 17.55 16.4351Z" fill="#EFEFEF"/>
</svg>
