<svg width="24" height="28" viewBox="0 0 24 28" fill="none" xmlns="http://www.w3.org/2000/svg">
<path d="M1.78088 12.2892C2.19208 9.67391 3.59732 7.37532 5.73776 5.81724C7.32883 4.65873 9.18438 4.0131 11.1064 3.92687L9.81691 5.2164L10.9912 6.3907L14.1868 3.19535L10.9914 0L9.81711 1.1743L10.9161 2.27329C8.71219 2.39388 6.58679 3.14474 4.76043 4.47462C2.26137 6.29399 0.6207 8.97772 0.140514 12.0312C-0.291051 14.7765 0.279099 17.5861 1.74601 19.9425L3.15575 19.0649C1.89961 17.0471 1.41128 14.6407 1.78098 12.2893L1.78088 12.2892Z" fill="white"/>
<path d="M21.6347 7.7271L20.225 8.60468C21.4811 10.6225 21.9694 13.0287 21.5997 15.3803C21.1885 17.9956 19.7833 20.2942 17.6428 21.8523C16.052 23.0106 14.1962 23.6563 12.2742 23.7427L13.5637 22.4531L12.3894 21.2788L9.19385 24.4744L12.3892 27.6695L13.5635 26.4952L12.4649 25.3967C14.6686 25.2759 16.7938 24.5246 18.6201 23.1949C21.1191 21.3756 22.7598 18.6918 23.24 15.6384C23.6716 12.893 23.1014 10.0834 21.6345 7.72705L21.6347 7.7271Z" fill="white"/>
<path d="M18.9123 13.8504C18.9123 9.80341 15.6198 6.51099 11.5728 6.51099C7.52582 6.51099 4.2334 9.80361 4.2334 13.8504C4.2334 17.8972 7.52582 21.1899 11.5728 21.1899C15.6198 21.1899 18.9123 17.8972 18.9123 13.8504ZM5.89391 13.8504C5.89391 10.7191 8.4414 8.17149 11.5728 8.17149C14.7043 8.17149 17.2518 10.719 17.2518 13.8504C17.2518 16.9818 14.7043 19.5293 11.5728 19.5293C8.44155 19.5293 5.89391 16.9816 5.89391 13.8504Z" fill="white"/>
<path d="M12.9727 12.7031L12.793 13.3203H9.16797L9.34766 12.7031H12.9727ZM11.3477 17L9.28125 14.5859L9.27734 14.1016H10.2305C10.5065 14.1016 10.7344 14.056 10.9141 13.9648C11.0964 13.8711 11.2331 13.7448 11.3242 13.5859C11.4154 13.4271 11.4609 13.2487 11.4609 13.0508C11.4609 12.8294 11.418 12.6354 11.332 12.4688C11.2461 12.2995 11.1107 12.168 10.9258 12.0742C10.7435 11.9779 10.5039 11.9297 10.207 11.9297H9.17578L9.35938 11.3125H10.207C10.6602 11.3125 11.0339 11.3815 11.3281 11.5195C11.625 11.6549 11.8464 11.8529 11.9922 12.1133C12.138 12.3737 12.2109 12.6888 12.2109 13.0586C12.2109 13.3763 12.1497 13.6615 12.0273 13.9141C11.9076 14.1641 11.7083 14.3607 11.4297 14.5039C11.1536 14.6471 10.7812 14.7188 10.3125 14.7188L12.2344 16.9531V17H11.3477ZM12.9727 11.3125L12.793 11.9297H9.87109L10.0508 11.3125H12.9727Z" fill="white"/>
</svg>
