<svg width="16" height="20" viewBox="0 0 16 20" fill="none" xmlns="http://www.w3.org/2000/svg">
<path d="M11 6H15.4L10 0.6V5C10 5.6 10.4 6 11 6ZM11 8C9.3 8 8 6.7 8 5V0H3C1.3 0 0 1.3 0 3V17C0 18.7 1.3 20 3 20H13C14.7 20 16 18.7 16 17V8H11ZM5 6H6C6.6 6 7 6.4 7 7C7 7.6 6.6 8 6 8H5C4.4 8 4 7.6 4 7C4 6.4 4.4 6 5 6ZM11.8 11.6L9.5 14.6C9.2 15 8.5 15.1 8.1 14.8C8.1 14.8 8.1 14.8 8 14.8L7.1 14L5.8 15.7C5.5 16.1 4.8 16.2 4.4 15.9C4 15.6 3.9 14.9 4.2 14.5L6.2 12C6.4 11.8 6.6 11.7 6.9 11.6C7.2 11.6 7.4 11.7 7.7 11.9L8.6 12.7L10.3 10.5C10.6 10.1 11.3 10 11.7 10.3C12 10.5 12.1 11.2 11.8 11.6Z" fill="white"/>
</svg>
