<svg width="138" height="42" viewBox="0 0 138 42" fill="none" xmlns="http://www.w3.org/2000/svg">
<mask id="mask0_674_2374" style="mask-type:alpha" maskUnits="userSpaceOnUse" x="0" y="0" width="138" height="35">
<path d="M137.619 0.357422H0.32373V34.7981H137.619V0.357422Z" fill="#D9D9D9"/>
</mask>
<g mask="url(#mask0_674_2374)">
<path d="M10.1266 24.4491C13.4461 24.4491 16.0821 23.0531 17.3514 21.0938V16.1956H12.9579L12.9823 19.5999C12.2745 20.2366 11.4446 20.3591 10.1266 20.3591C7.63698 20.3591 6.07487 18.6202 6.07487 15.9017C6.07487 13.3056 7.61257 11.4688 9.93133 11.4688C11.8351 11.4688 12.7627 12.3015 13.4461 13.5506L17.1317 11.4933C15.9357 8.72579 13.0555 7.20734 10.1266 7.20734C5.14736 7.20734 1.43735 11.0035 1.43735 15.8282C1.43735 20.653 5.19618 24.4491 10.1266 24.4491ZM25.8865 24.4246C28.6202 24.4246 30.6949 23.0531 31.7444 20.7755L28.3761 19.0856C27.9368 20.0407 27.0093 20.6775 25.8377 20.6775C24.4953 20.6775 23.5678 19.9427 23.2749 18.7182H31.7685V17.6161C31.7685 14.3343 29.5477 11.3463 25.5448 11.3463C21.6883 11.3463 19.0523 14.2853 19.0523 17.812C19.0523 21.8286 21.9812 24.4246 25.8865 24.4246ZM23.4701 16.4405C23.7386 15.7303 24.4465 15.118 25.4956 15.118C26.5211 15.118 27.2046 15.7548 27.3998 16.4405H23.4701ZM40.5756 15.7548C42.1865 15.7548 42.7967 17.0528 42.7967 18.5957V24.0818H47.1901V18.0569C47.1901 14.4567 45.091 11.4688 40.5756 11.4688C36.0601 11.4688 33.961 14.4567 33.961 18.0569V24.0818H38.3544V18.5957C38.3544 17.0528 38.9646 15.7548 40.5756 15.7548ZM56.2359 15.7548C57.8469 15.7548 58.4571 17.0528 58.4571 18.5957V24.0818H62.8505V18.0569C62.8505 14.4567 60.7514 11.4688 56.2359 11.4688C51.7205 11.4688 49.6214 14.4567 49.6214 18.0569V24.0818H54.0148V18.5957C54.0148 17.0528 54.625 15.7548 56.2359 15.7548ZM67.9663 10.5381C69.4063 10.5381 70.6023 9.33807 70.6023 7.89309C70.6023 6.44811 69.4063 5.24805 67.9663 5.24805C66.5262 5.24805 65.3302 6.44811 65.3302 7.89309C65.3302 9.33807 66.5262 10.5381 67.9663 10.5381ZM65.7696 11.8362V24.0818H70.163V11.8362H65.7696ZM79.4456 24.4246C82.1793 24.4246 84.254 23.0531 85.3036 20.7755L81.9353 19.0856C81.4959 20.0407 80.5684 20.6775 79.3968 20.6775C78.0544 20.6775 77.1269 19.9427 76.834 18.7182H85.328V17.6161C85.328 14.3343 83.1068 11.3463 79.1039 11.3463C75.2475 11.3463 72.6114 14.2853 72.6114 17.812C72.6114 21.8286 75.5404 24.4246 79.4456 24.4246ZM77.0293 16.4405C77.2977 15.7303 78.0056 15.118 79.0551 15.118C80.0803 15.118 80.7637 15.7548 80.9589 16.4405H77.0293Z" fill="#142464"/>
<path d="M137.619 -1.17383H89.5654V33.2669H137.619V-1.17383Z" fill="#FC9414"/>
<path d="M96.0335 24.0578V20.0413H98.0838C102.868 20.0413 105.577 17.6902 105.577 13.7226C105.577 9.87748 102.721 7.55078 97.8397 7.55078H91.5181V24.0823L96.0335 24.0578ZM97.9618 11.7143C99.9144 11.7143 100.94 12.4246 100.94 13.7226C100.94 15.1186 99.9876 15.8778 97.9618 15.8778H96.0335V11.7143H97.9618ZM112.891 24.4497C114.307 24.4497 115.405 23.9844 116.187 23.1762V24.0823H120.336V17.9351C120.336 14.1879 117.529 11.4449 113.624 11.4449C109.816 11.4449 106.911 14.3839 106.911 17.9351C106.911 21.5108 109.328 24.4497 112.891 24.4497ZM113.624 20.3107C112.232 20.3107 111.305 19.2331 111.305 17.9595C111.305 16.6615 112.232 15.5839 113.624 15.5839C115.015 15.5839 115.942 16.6615 115.942 17.9595C115.942 19.2331 115.015 20.3107 113.624 20.3107ZM128.949 30.1072C133.001 30.1072 136.027 27.3152 136.027 22.9068V11.8367H131.56V17.8126C131.56 19.1596 130.56 20.0658 129.486 20.0658C128.192 20.0658 127.411 19.1596 127.411 17.8126V11.8367H123.091V17.9106C123.091 21.5843 124.775 24.2048 128.9 24.2048C130.096 24.2048 130.999 23.9109 131.634 23.2496C131.512 25.0375 130.462 26.0906 128.876 26.0906C127.362 26.0906 126.557 25.2334 126.166 24.4007L122.53 26.36C123.652 28.7602 125.776 30.1072 128.949 30.1072Z" fill="white"/>
</g>
<path d="M34.8122 36.4365H31.6819V37.012H32.9328V40.5387H33.5552V37.012H34.8122V36.4365ZM36.1791 40.5387V39.0509C36.1791 38.4692 36.5513 38.0406 37.0822 38.0406C37.6496 38.0406 37.9425 38.4999 37.9425 39.0325V40.5387H38.5466V38.9713C38.5466 38.0529 38.0524 37.4651 37.1737 37.4651C36.7709 37.4651 36.4109 37.6243 36.1791 37.8753V36.1609H35.575V40.5387H36.1791ZM40.9291 40.6061C41.5149 40.6061 41.9969 40.3306 42.2593 39.8163L41.7956 39.5775C41.6186 39.9081 41.2891 40.0673 40.923 40.0673C40.386 40.0673 39.9955 39.706 39.9284 39.1917H42.3203V38.9468C42.3203 38.108 41.759 37.4529 40.8559 37.4529C39.9589 37.4529 39.3426 38.157 39.3426 39.0203C39.3426 39.9448 40.0199 40.6061 40.9291 40.6061ZM39.9528 38.7999C40.0138 38.3529 40.3433 37.9978 40.8498 37.9978C41.344 37.9978 41.6918 38.3223 41.7162 38.7999H39.9528ZM48.7358 37.4529C48.1683 37.4529 47.7473 37.759 47.5825 38.2243C47.43 37.759 46.9968 37.4529 46.3988 37.4529C45.5018 37.4529 45.0258 38.1264 45.0258 38.9652V40.5387H45.6299V39.057C45.6299 38.5121 45.8801 38.0345 46.4415 38.0345C46.9968 38.0345 47.2713 38.4937 47.2713 39.0448V40.5387H47.8754V39.0448C47.8754 38.4937 48.15 38.0345 48.6931 38.0345C49.2545 38.0345 49.523 38.5121 49.523 39.057V40.5387H50.1271V38.9591C50.1271 38.1264 49.6389 37.4529 48.7358 37.4529ZM52.4245 40.6122C52.9126 40.6122 53.3093 40.3796 53.535 40.0122V40.5387H54.1086V39.0325C54.1086 38.1386 53.4191 37.4651 52.516 37.4651C51.6068 37.4651 50.9234 38.1753 50.9234 39.0325C50.9234 39.902 51.558 40.6122 52.4245 40.6122ZM52.516 40.0367C51.9607 40.0367 51.5275 39.5836 51.5275 39.0387C51.5275 38.4876 51.9607 38.0345 52.516 38.0345C53.0774 38.0345 53.5045 38.4876 53.5045 39.0387C53.5045 39.5836 53.0774 40.0367 52.516 40.0367ZM56.4445 41.9898C57.3965 41.9898 58.0921 41.3102 58.0921 40.2693V39.0325C58.0921 38.1386 57.4026 37.4651 56.4995 37.4651C55.5903 37.4651 54.9068 38.1692 54.9068 39.0264C54.9068 39.9081 55.5781 40.5816 56.4262 40.5816C56.9266 40.5816 57.2927 40.3489 57.488 40.0367V40.2755C57.488 40.9796 57.0608 41.4327 56.4323 41.4327C55.9991 41.4327 55.6696 41.2245 55.4926 40.9L54.9862 41.1755C55.2608 41.7082 55.7977 41.9898 56.4445 41.9898ZM56.4934 40.0122C55.9503 40.0122 55.5048 39.5713 55.5048 39.0203C55.5048 38.4692 55.9503 38.0406 56.4934 38.0406C57.0425 38.0406 57.4819 38.4692 57.4819 39.0203C57.4819 39.5713 57.0425 40.0122 56.4934 40.0122ZM59.5005 36.9447C59.7202 36.9447 59.891 36.7671 59.891 36.5467C59.891 36.3263 59.7202 36.1426 59.5005 36.1426C59.2808 36.1426 59.1039 36.3263 59.1039 36.5467C59.1039 36.7671 59.2808 36.9447 59.5005 36.9447ZM59.2015 37.5386V40.5387H59.8056V37.5386H59.2015ZM62.2849 40.6061C62.8341 40.6061 63.3406 40.3612 63.6152 39.8163L63.1148 39.5407C62.9378 39.8652 62.6388 40.0367 62.2849 40.0367C61.7601 40.0367 61.3269 39.5836 61.3269 39.0325C61.3269 38.4876 61.7601 38.0406 62.2849 38.0406C62.6388 38.0406 62.9378 38.2121 63.1148 38.5366L63.6152 38.2549C63.3406 37.7161 62.8341 37.4651 62.2849 37.4651C61.4245 37.459 60.7228 38.1692 60.7228 39.0325C60.7228 39.902 61.4245 40.6183 62.2849 40.6061ZM65.665 40.6122C66.1532 40.6122 66.5498 40.3796 66.7756 40.0122V40.5387H67.3492V39.0325C67.3492 38.1386 66.6597 37.4651 65.7566 37.4651C64.8474 37.4651 64.1639 38.1753 64.1639 39.0325C64.1639 39.902 64.7986 40.6122 65.665 40.6122ZM65.7566 40.0367C65.2013 40.0367 64.7681 39.5836 64.7681 39.0387C64.7681 38.4876 65.2013 38.0345 65.7566 38.0345C66.318 38.0345 66.7451 38.4876 66.7451 39.0387C66.7451 39.5836 66.318 40.0367 65.7566 40.0367ZM68.4586 36.1609V40.5387H69.0627V36.1609H68.4586ZM72.8364 40.5387V39.357H73.5442C74.5999 39.357 75.326 38.8672 75.326 37.8876C75.326 36.9324 74.6121 36.4365 73.5137 36.4365H72.214V40.5387H72.8364ZM73.532 37.012C74.2216 37.012 74.6853 37.2875 74.6853 37.8876C74.6853 38.5121 74.2033 38.7754 73.532 38.7754H72.8364V37.012H73.532ZM77.3858 40.6122C77.874 40.6122 78.2706 40.3796 78.4964 40.0122V40.5387H79.07V39.0325C79.07 38.1386 78.3805 37.4651 77.4774 37.4651C76.5682 37.4651 75.8847 38.1753 75.8847 39.0325C75.8847 39.902 76.5193 40.6122 77.3858 40.6122ZM77.4774 40.0367C76.9221 40.0367 76.4888 39.5836 76.4888 39.0387C76.4888 38.4876 76.9221 38.0345 77.4774 38.0345C78.0387 38.0345 78.4659 38.4876 78.4659 39.0387C78.4659 39.5836 78.0387 40.0367 77.4774 40.0367ZM81.4242 41.996C82.3944 41.996 82.9802 41.3041 82.9802 40.3V37.5386H82.37V39.0203C82.37 39.5713 82.0283 40.0122 81.5035 40.0122C80.9605 40.0122 80.6676 39.6264 80.6676 39.0631V37.5386H80.0696V39.0938C80.0696 39.9754 80.515 40.5816 81.4303 40.5816C81.8819 40.5816 82.1992 40.3796 82.3761 40.0428V40.3061C82.3761 40.9551 82.0466 41.4327 81.412 41.4327C81.0032 41.4327 80.6676 41.2429 80.4967 40.9184L79.9963 41.1939C80.2648 41.7266 80.7896 41.996 81.4242 41.996ZM87.715 37.4529C87.1475 37.4529 86.7265 37.759 86.5617 38.2243C86.4092 37.759 85.9759 37.4529 85.3779 37.4529C84.4809 37.4529 84.005 38.1264 84.005 38.9652V40.5387H84.6091V39.057C84.6091 38.5121 84.8592 38.0345 85.4206 38.0345C85.9759 38.0345 86.2505 38.4937 86.2505 39.0448V40.5387H86.8546V39.0448C86.8546 38.4937 87.1292 38.0345 87.6723 38.0345C88.2337 38.0345 88.5021 38.5121 88.5021 39.057V40.5387H89.1062V38.9591C89.1062 38.1264 88.6181 37.4529 87.715 37.4529ZM91.4895 40.6061C92.0752 40.6061 92.5573 40.3306 92.8197 39.8163L92.3559 39.5775C92.179 39.9081 91.8495 40.0673 91.4833 40.0673C90.9464 40.0673 90.5558 39.706 90.4887 39.1917H92.8807V38.9468C92.8807 38.108 92.3193 37.4529 91.4162 37.4529C90.5192 37.4529 89.9029 38.157 89.9029 39.0203C89.9029 39.9448 90.5803 40.6061 91.4895 40.6061ZM90.5131 38.7999C90.5741 38.3529 90.9037 37.9978 91.4101 37.9978C91.9044 37.9978 92.2522 38.3223 92.2766 38.7999H90.5131ZM95.2067 38.0468C95.8047 38.0468 96.1098 38.5305 96.1098 39.0938V40.5387H96.7139V39.0203C96.7139 38.1509 96.183 37.4651 95.2067 37.4651C94.2426 37.4651 93.7239 38.1509 93.7239 39.0264V40.5387H94.328V39.0876C94.328 38.5305 94.6209 38.0468 95.2067 38.0468ZM99.062 40.6183C99.2817 40.6183 99.5197 40.551 99.6722 40.4469V39.8897C99.5258 39.9938 99.3122 40.0673 99.1169 40.0673C98.7569 40.0673 98.5251 39.8346 98.5251 39.4428V38.0651H99.6722V37.5386H98.5251V36.761H97.921V37.5386H97.3291V38.0651H97.921V39.4611C97.921 40.1469 98.3176 40.6183 99.062 40.6183ZM104.324 40.6122C105.026 40.6122 105.667 40.2571 105.978 39.6571L105.471 39.3632C105.24 39.7734 104.825 40.0244 104.3 40.0244C103.5 40.0244 102.884 39.357 102.884 38.4815C102.884 37.6182 103.507 36.9569 104.3 36.9569C104.825 36.9569 105.233 37.2079 105.471 37.6182L105.978 37.3243C105.667 36.7242 105.026 36.363 104.324 36.363C103.171 36.363 102.243 37.2998 102.243 38.4815C102.243 39.6754 103.171 40.6122 104.324 40.6122ZM108.082 40.6122C108.979 40.6122 109.668 39.902 109.668 39.0325C109.668 38.1753 108.985 37.4651 108.082 37.4651C107.185 37.4651 106.483 38.1692 106.483 39.0325C106.483 39.902 107.179 40.6122 108.082 40.6122ZM108.082 40.0367C107.521 40.0367 107.087 39.5836 107.087 39.0387C107.087 38.4876 107.521 38.0345 108.082 38.0345C108.637 38.0345 109.064 38.4876 109.064 39.0387C109.064 39.5836 108.637 40.0367 108.082 40.0367ZM114.175 37.4529C113.608 37.4529 113.187 37.759 113.022 38.2243C112.869 37.759 112.436 37.4529 111.838 37.4529C110.941 37.4529 110.465 38.1264 110.465 38.9652V40.5387H111.069V39.057C111.069 38.5121 111.319 38.0345 111.881 38.0345C112.436 38.0345 112.711 38.4937 112.711 39.0448V40.5387H113.315V39.0448C113.315 38.4937 113.589 38.0345 114.132 38.0345C114.694 38.0345 114.962 38.5121 114.962 39.057V40.5387H115.566V38.9591C115.566 38.1264 115.078 37.4529 114.175 37.4529ZM117.156 41.9164V40.1653C117.4 40.4347 117.767 40.6122 118.169 40.6122C119.078 40.6122 119.731 39.9387 119.731 39.0325C119.731 38.1753 119.048 37.4651 118.145 37.4651C117.242 37.4651 116.552 38.1386 116.552 39.0325V41.9164H117.156ZM118.145 40.0428C117.583 40.0428 117.156 39.5836 117.156 39.0387C117.156 38.4876 117.583 38.0406 118.145 38.0406C118.7 38.0406 119.127 38.4876 119.127 39.0387C119.127 39.5836 118.7 40.0428 118.145 40.0428ZM121.848 40.6122C122.336 40.6122 122.732 40.3796 122.958 40.0122V40.5387H123.532V39.0325C123.532 38.1386 122.842 37.4651 121.939 37.4651C121.03 37.4651 120.347 38.1753 120.347 39.0325C120.347 39.902 120.981 40.6122 121.848 40.6122ZM121.939 40.0367C121.384 40.0367 120.951 39.5836 120.951 39.0387C120.951 38.4876 121.384 38.0345 121.939 38.0345C122.501 38.0345 122.928 38.4876 122.928 39.0387C122.928 39.5836 122.501 40.0367 121.939 40.0367ZM126.002 38.0468C126.6 38.0468 126.905 38.5305 126.905 39.0938V40.5387H127.509V39.0203C127.509 38.1509 126.978 37.4651 126.002 37.4651C125.038 37.4651 124.519 38.1509 124.519 39.0264V40.5387H125.123V39.0876C125.123 38.5305 125.416 38.0468 126.002 38.0468ZM128.918 36.9447C129.137 36.9447 129.308 36.7671 129.308 36.5467C129.308 36.3263 129.137 36.1426 128.918 36.1426C128.698 36.1426 128.521 36.3263 128.521 36.5467C128.521 36.7671 128.698 36.9447 128.918 36.9447ZM128.619 37.5386V40.5387H129.223V37.5386H128.619ZM131.738 40.6122C132.635 40.6122 133.325 39.902 133.325 39.0325C133.325 38.1753 132.641 37.4651 131.738 37.4651C130.841 37.4651 130.139 38.1692 130.139 39.0325C130.139 39.902 130.835 40.6122 131.738 40.6122ZM131.738 40.0367C131.177 40.0367 130.744 39.5836 130.744 39.0387C130.744 38.4876 131.177 38.0345 131.738 38.0345C132.293 38.0345 132.721 38.4876 132.721 39.0387C132.721 39.5836 132.293 40.0367 131.738 40.0367ZM135.604 38.0468C136.202 38.0468 136.507 38.5305 136.507 39.0938V40.5387H137.111V39.0203C137.111 38.1509 136.581 37.4651 135.604 37.4651C134.64 37.4651 134.121 38.1509 134.121 39.0264V40.5387H134.726V39.0876C134.726 38.5305 135.018 38.0468 135.604 38.0468Z" fill="#142464"/>
</svg>
