<svg width="43" height="46" viewBox="0 0 43 46" fill="none" xmlns="http://www.w3.org/2000/svg">
<path fill-rule="evenodd" clip-rule="evenodd" d="M12.7971 0.141133C11.5494 0.546773 10.686 1.7703 10.645 3.19098L10.6228 3.95387L10.1761 4.07495C8.97958 4.3993 8.08938 5.53941 7.98179 6.88562C7.9255 7.58867 7.88835 7.68495 7.69641 7.62383C7.43932 7.5419 7.08041 7.97999 7.08461 8.37078C7.08922 8.79773 7.54172 9.65476 7.80724 9.73945C7.95693 9.78709 8.09262 9.97525 8.14281 10.2046C8.19101 10.4244 8.51453 10.8876 8.89698 11.2837C9.38315 11.7875 9.56675 12.0735 9.56675 12.3271C9.56675 12.6473 9.52827 12.6762 9.10086 12.6767C7.43734 12.6784 4.76028 13.4673 3.45037 14.3416C1.76376 15.4676 0 17.9533 0 19.2044C0 21.5313 1.40545 23.5121 3.54977 24.2076L4.17994 24.4118L4.77146 26.3787C5.09673 27.4604 5.72565 29.2389 6.16908 30.3307C6.6125 31.4227 7.1295 32.7369 7.31782 33.2512C7.50618 33.7656 7.84091 34.566 8.06169 35.03C8.57677 36.1127 10.0765 38.3803 10.2411 38.3252C10.3991 38.2724 13.5355 33.1208 13.5396 32.9072C13.5417 32.7927 13.3663 32.7675 12.8903 32.8141C11.8377 32.9173 8.16889 33.1374 8.13808 33.0992C8.12256 33.0799 9.05811 31.7556 10.2169 30.1562C11.3759 28.5569 12.2913 27.2154 12.2513 27.1751C12.2112 27.135 10.898 27.181 9.33319 27.2773L6.48787 27.4528L6.7043 27.1411C6.82348 26.9696 9.45359 23.0697 12.5491 18.4746C15.6446 13.8795 18.606 9.50265 19.1299 8.74825C20.215 7.18602 20.2918 7.06482 20.1991 7.06482C20.162 7.06482 19.2006 8.31341 18.0626 9.83933C16.9245 11.3654 15.9528 12.6595 15.9032 12.7152C15.8535 12.7711 15.33 12.7773 14.7399 12.7293L13.6668 12.6419V12.2495C13.6668 11.9485 13.7509 11.8072 14.028 11.6429C14.3935 11.4262 15.1577 10.3913 15.1577 10.1129C15.1577 10.0296 15.2892 9.87511 15.4498 9.76949C15.8114 9.5317 16.1517 8.83527 16.1517 8.33301C16.1517 7.872 15.8406 7.52721 15.5174 7.63007C15.3062 7.69742 15.282 7.63593 15.282 7.03329C15.282 5.78493 14.218 4.3261 13.1512 4.11199C12.7438 4.03018 12.694 3.76109 12.9827 3.20058C13.2526 2.67685 13.6459 2.45102 14.288 2.45102C15.0182 2.45102 15.2779 2.64555 16.0187 3.7475C16.3537 4.24554 16.7862 4.75818 16.9799 4.88672C17.5249 5.24823 18.4341 5.19837 19.2282 4.76315C19.8629 4.41538 21.933 2.60054 21.822 2.48906C21.7916 2.45863 21.4241 2.68683 21.0053 2.99633C20.1737 3.61083 19.1783 4.11896 18.5383 4.25603C17.9179 4.38882 17.5651 4.09029 17.3253 3.22963C16.8378 1.47988 16.4139 0.847169 15.3718 0.31359C14.7143 -0.023093 13.5436 -0.101527 12.7971 0.141133Z" fill="#142464"/>
<path fill-rule="evenodd" clip-rule="evenodd" d="M17.6859 19.6737L14.1814 23.5718L14.6339 23.6514C14.8828 23.6952 15.8436 23.769 16.769 23.8155C17.6943 23.8621 18.5504 23.9285 18.6714 23.9633C18.8394 24.0115 18.0732 24.8666 15.4311 27.5792C13.5279 29.5333 11.9541 31.1791 11.9336 31.2365C11.9132 31.2939 12.6703 31.3779 13.6161 31.4231C14.5619 31.4684 15.4276 31.5443 15.5399 31.5921C15.703 31.6614 15.2195 32.3439 13.137 34.9841C10.6618 38.1221 6.2398 44.1328 6.08439 44.5706C5.99878 44.812 6.05251 44.7462 8.52115 41.5976C9.57138 40.2582 10.4756 39.1462 10.5305 39.1259C10.5855 39.106 10.875 39.3823 11.1739 39.7393C11.4727 40.0967 12.195 40.8077 12.7787 41.3194C16.9158 44.9456 21.0836 45.978 24.7133 44.2759C26.4569 43.4581 27.6625 42.4276 29.4555 40.2226C31.0118 38.3081 31.7203 37.6033 32.088 37.6033C32.6304 37.6033 33.6683 38.8534 35.0217 41.1368C36.9789 44.4385 38.0844 45.4316 39.6702 45.3122C40.0642 45.2823 40.6 45.1553 40.8612 45.0298C41.3986 44.7715 42.5427 43.778 42.4329 43.6652C42.3928 43.6242 42.0565 43.7547 41.685 43.9548C40.3902 44.6525 39.5329 44.5778 38.7839 43.7015C38.2568 43.0858 37.9687 42.3365 37.2548 39.7278C35.9891 35.1013 34.4488 33.284 31.67 33.138C29.9135 33.0457 28.5879 33.5933 25.8853 35.5276C23.6865 37.1013 22.7079 37.5887 22.0692 37.4282C21.6234 37.3163 20.3452 35.9678 19.6942 34.9227C18.9816 33.7784 18.4178 32.4569 18.2112 31.4464C18.0104 30.4646 18.2097 29.4962 19.2655 26.3239C19.9952 24.1313 20.0387 24.0405 20.4536 23.8426C21.5203 23.3335 22.6057 21.9603 22.9319 20.7069C23.2437 19.5088 23.1887 18.6791 22.7397 17.8078C22.3278 17.0085 21.5242 15.8844 21.3164 15.8166C21.247 15.794 19.6132 17.5297 17.6859 19.6737Z" fill="#FC9414"/>
</svg>
