<svg width="22" height="21" viewBox="0 0 22 21" fill="none" xmlns="http://www.w3.org/2000/svg">
<path d="M18.928 1.93374C18.8135 1.93374 18.6989 1.97749 18.6195 2.06499L17.9232 2.75624C17.747 2.93124 17.4737 2.93124 17.2975 2.75624L16.6011 2.06499C16.4249 1.88999 16.1516 1.88999 15.9754 2.06499L15.279 2.75624C15.1028 2.93124 14.8295 2.93124 14.6533 2.75624L13.957 2.06499C13.7807 1.88999 13.5074 1.88999 13.3312 2.06499L12.6349 2.75624C12.4586 2.93124 12.1853 2.93124 12.0091 2.75624L11.3128 2.06499C11.1365 1.88999 10.8632 1.88999 10.687 2.06499L9.99066 2.75624C9.81438 2.93124 9.54114 2.93124 9.36487 2.75624L8.65975 2.05624C8.48347 1.88124 8.21023 1.88124 8.03395 2.05624L7.33765 2.75624C7.16137 2.93124 6.88814 2.93124 6.71186 2.75624L6.01555 2.05624C5.83927 1.88124 5.56604 1.88124 5.38976 2.05624L4.69345 2.75624C4.51717 2.93124 4.24394 2.93124 4.06766 2.75624L3.37136 2.05624C3.29203 1.97749 3.17745 1.93374 3.06287 1.93374V19.075C3.17745 19.075 3.29203 19.0312 3.37136 18.9437L4.06766 18.2525C4.24394 18.0775 4.51717 18.0775 4.69345 18.2525L5.38976 18.9437C5.56604 19.1187 5.83927 19.1187 6.01555 18.9437L6.71186 18.2525C6.88814 18.0775 7.16137 18.0775 7.33765 18.2525L8.03395 18.9437C8.21023 19.1187 8.48347 19.1187 8.65975 18.9437L9.35605 18.2525C9.53233 18.0775 9.80556 18.0775 9.98184 18.2525L10.6781 18.9437C10.8544 19.1187 11.1277 19.1187 11.3039 18.9437L12.0002 18.2525C12.1765 18.0775 12.4498 18.0775 12.626 18.2525L13.3223 18.9437C13.4986 19.1187 13.7719 19.1187 13.9481 18.9437L14.6444 18.2525C14.8207 18.0775 15.094 18.0775 15.2702 18.2525L15.9665 18.9437C16.1428 19.1187 16.4161 19.1187 16.5923 18.9437L17.2886 18.2525C17.4649 18.0775 17.7382 18.0775 17.9144 18.2525L18.6107 18.9437C18.6989 19.0312 18.8135 19.075 18.9192 19.075V1.93374H18.928ZM15.4024 14.875H6.58846C6.10369 14.875 5.70706 14.4812 5.70706 14C5.70706 13.5187 6.10369 13.125 6.58846 13.125H15.4024C15.8872 13.125 16.2838 13.5187 16.2838 14C16.2838 14.4812 15.8872 14.875 15.4024 14.875ZM15.4024 11.375H6.58846C6.10369 11.375 5.70706 10.9812 5.70706 10.5C5.70706 10.0187 6.10369 9.62499 6.58846 9.62499H15.4024C15.8872 9.62499 16.2838 10.0187 16.2838 10.5C16.2838 10.9812 15.8872 11.375 15.4024 11.375ZM15.4024 7.87499H6.58846C6.10369 7.87499 5.70706 7.48124 5.70706 6.99999C5.70706 6.51874 6.10369 6.12499 6.58846 6.12499H15.4024C15.8872 6.12499 16.2838 6.51874 16.2838 6.99999C16.2838 7.48124 15.8872 7.87499 15.4024 7.87499Z" fill="#3783FB"/>
</svg>
