<svg width="23" height="24" viewBox="0 0 23 24" fill="none" xmlns="http://www.w3.org/2000/svg">
<path d="M1.96619 5.55499H2.46619V5.05499V3.06C2.46619 1.64613 3.61233 0.5 5.02612 0.5H19.4762C20.8901 0.5 22.0361 1.64612 22.0361 3.06V20.95C22.0361 22.3528 20.8912 23.5 19.4762 23.5H5.02612C3.61127 23.5 2.46619 22.3528 2.46619 20.95V18.9515V18.4515H1.96619H1C0.723567 18.4515 0.5 18.2277 0.5 17.9515C0.5 17.6752 0.723567 17.4515 1 17.4515H1.96619H2.46619V16.9515V13.0032V12.5032H1.96619H1C0.723567 12.5032 0.5 12.2795 0.5 12.0032C0.5 11.727 0.723567 11.5032 1 11.5032H1.96619H2.46619V11.0032V7.05499V6.55499H1.96619H1C0.723567 6.55499 0.5 6.33126 0.5 6.05499C0.5 5.77873 0.723567 5.55499 1 5.55499H1.96619Z" stroke="white"/>
<path d="M15.0176 9.58398L14.7305 10.6211H9.24609L9.5332 9.58398H15.0176ZM12.3633 16L9.41602 12.5254L9.41016 11.6523H10.8105C11.1738 11.6523 11.4727 11.5879 11.707 11.459C11.9453 11.3262 12.123 11.1484 12.2402 10.9258C12.3574 10.6992 12.416 10.4473 12.416 10.1699C12.416 9.86914 12.3613 9.60352 12.252 9.37305C12.1426 9.14258 11.9688 8.96289 11.7305 8.83398C11.4922 8.70508 11.1777 8.64062 10.7871 8.64062H9.25195L9.56836 7.46875H10.7871C11.4785 7.46875 12.0527 7.57227 12.5098 7.7793C12.9668 7.98633 13.3086 8.28711 13.5352 8.68164C13.7656 9.07617 13.8809 9.55273 13.8809 10.1113C13.8809 10.5996 13.7969 11.0312 13.6289 11.4062C13.4609 11.7773 13.1895 12.0781 12.8145 12.3086C12.4395 12.5352 11.9414 12.6758 11.3203 12.7305L14.0156 15.9238V16H12.3633ZM15.0234 7.46875L14.7305 8.50586H10.248L10.5352 7.46875H15.0234Z" fill="white"/>
</svg>
