<svg width="19" height="19" viewBox="0 0 26 24" fill="none" xmlns="http://www.w3.org/2000/svg">
<g clip-path="url(#clip0_739_2329)">
<path fill-rule="evenodd" clip-rule="evenodd" d="M11.3343 0.0909456C10.5162 0.352508 9.90789 1.07996 9.79773 1.92845C9.73848 2.38506 9.73848 11.0689 9.79773 11.5255C9.94243 12.6399 10.8718 13.4536 12 13.4536C13.1282 13.4536 14.0576 12.6399 14.2023 11.5255C14.2615 11.0689 14.2615 2.38506 14.2023 1.92845C14.1189 1.28659 13.6954 0.634977 13.1419 0.297008C12.6649 0.00577373 11.8804 -0.0836638 11.3343 0.0909456ZM5.47492 5.52845C5.0747 5.65641 4.84253 5.8118 4.44414 6.2184C3.19375 7.49462 2.26337 9.1479 1.82936 10.865C1.56756 11.901 1.52725 12.2514 1.5265 13.5004C1.5257 14.793 1.59967 15.3681 1.90206 16.4191C2.9469 20.0506 5.9034 22.8655 9.58595 23.735C11.1025 24.0931 12.9005 24.093 14.4141 23.7347C16.3158 23.2846 18.0627 22.3087 19.4297 20.9328C20.9971 19.3554 21.9694 17.4759 22.3654 15.2582C22.4599 14.7291 22.4741 14.4977 22.4735 13.5004C22.4728 12.2514 22.4325 11.901 22.1707 10.865C21.741 9.16501 20.8172 7.51632 19.5787 6.2394C19.3936 6.04857 19.1473 5.83163 19.0313 5.75724C18.3714 5.33434 17.3507 5.33396 16.6875 5.75645C16.1412 6.10445 15.7367 6.72751 15.6618 7.33637C15.5692 8.08866 15.7829 8.67184 16.4004 9.35199C17.4706 10.5309 17.9756 11.7496 18.0343 13.2948C18.0969 14.9446 17.5313 16.4519 16.4018 17.6451C15.5695 18.5243 14.6529 19.0604 13.4063 19.3971C12.9963 19.5078 12.8846 19.5174 12 19.5174C11.1154 19.5174 11.0037 19.5078 10.5938 19.3971C9.34707 19.0604 8.43048 18.5243 7.59826 17.6451C6.54109 16.5283 5.95314 15.062 5.95314 13.5424C5.95314 11.8905 6.49145 10.5574 7.6831 9.25824C8.38248 8.49582 8.55067 7.5452 8.13789 6.6878C7.96675 6.33235 7.60942 5.9341 7.28251 5.73451C6.80556 5.44327 6.02101 5.35384 5.47492 5.52845Z" fill="#2645c3"/>
</g>
<defs>
<clipPath id="clip0_739_2329">
<rect width="24" height="24" fill="white"/>
</clipPath>
</defs>
</svg>
