<svg width="244" height="68" viewBox="0 0 244 68" fill="none" xmlns="http://www.w3.org/2000/svg">
<path fill-rule="evenodd" clip-rule="evenodd" d="M18.154 0.200631C16.3841 0.777278 15.1592 2.51661 15.101 4.53621L15.0696 5.62072L14.4358 5.79284C12.7385 6.25393 11.4756 7.87467 11.323 9.78841C11.2432 10.7878 11.1905 10.9247 10.9182 10.8378C10.5535 10.7214 10.0443 11.3441 10.0503 11.8997C10.0568 12.5066 10.6987 13.725 11.0754 13.8453C11.2877 13.9131 11.4802 14.1806 11.5514 14.5065C11.6198 14.819 12.0788 15.4775 12.6213 16.0406C13.311 16.7568 13.5714 17.1634 13.5714 17.5238C13.5714 17.979 13.5168 18.0202 12.9105 18.0209C10.5506 18.0233 6.75296 19.1447 4.89472 20.3877C2.50208 21.9883 0 25.5219 0 27.3005C0 30.6083 1.99377 33.4242 5.03572 34.4128L5.92969 34.7032L6.76881 37.4992C7.23025 39.037 8.12244 41.5652 8.75148 43.1173C9.38053 44.6696 10.1139 46.5378 10.3811 47.2691C10.6483 48.0003 11.1232 49.1382 11.4364 49.7978C12.1671 51.3368 14.2946 54.5605 14.528 54.4821C14.7522 54.4071 19.2015 47.0836 19.2073 46.78C19.2103 46.6173 18.9615 46.5815 18.2862 46.6477C16.793 46.7943 11.5884 47.1072 11.5447 47.053C11.5227 47.0255 12.8499 45.1429 14.4938 42.8693C16.1379 40.5957 17.4365 38.6887 17.3797 38.6314C17.3228 38.5743 15.46 38.6397 13.2401 38.7768L9.20372 39.0262L9.51075 38.583C9.67982 38.3393 13.4109 32.7953 17.8022 26.263C22.1936 19.7308 26.3945 13.5087 27.1378 12.4363C28.677 10.2154 28.7861 10.0432 28.6545 10.0432C28.6019 10.0432 27.2381 11.8181 25.6236 13.9873C24.0092 16.1567 22.6306 17.9964 22.5604 18.0756C22.4898 18.155 21.7473 18.1639 20.9101 18.0957L19.3878 17.9714V17.4135C19.3878 16.9856 19.5071 16.7848 19.9002 16.5513C20.4187 16.2432 21.5028 14.7719 21.5028 14.3762C21.5028 14.2579 21.6893 14.0382 21.9172 13.888C22.4301 13.55 22.9128 12.56 22.9128 11.846C22.9128 11.1906 22.4715 10.7005 22.0131 10.8467C21.7135 10.9425 21.6791 10.855 21.6791 9.99834C21.6791 8.2237 20.1697 6.14987 18.6564 5.8455C18.0784 5.72919 18.0077 5.34667 18.4173 4.54986C18.8002 3.80534 19.3582 3.48431 20.269 3.48431C21.3049 3.48431 21.6733 3.76085 22.7242 5.32735C23.1994 6.03535 23.813 6.7641 24.0878 6.94683C24.861 7.46074 26.1506 7.38986 27.2772 6.77117C28.1777 6.27678 31.1142 3.69686 30.9568 3.53838C30.9137 3.49512 30.3923 3.81952 29.7982 4.2595C28.6185 5.13306 27.2064 5.8554 26.2985 6.05026C25.4185 6.23903 24.9179 5.81465 24.5777 4.59116C23.8861 2.10376 23.2849 1.20431 21.8065 0.445791C20.8738 -0.0328285 19.213 -0.144329 18.154 0.200631Z" fill="#142464"/>
<path fill-rule="evenodd" clip-rule="evenodd" d="M25.0893 27.9686L20.1179 33.5101L20.7598 33.6232C21.1129 33.6854 22.4758 33.7904 23.7885 33.8565C25.1013 33.9226 26.3157 34.0171 26.4874 34.0666C26.7257 34.1351 25.6388 35.3506 21.8906 39.2068C19.1907 41.9847 16.9581 44.3244 16.9291 44.406C16.9001 44.4875 17.9741 44.607 19.3159 44.6712C20.6576 44.7356 21.8857 44.8436 22.045 44.9114C22.2764 45.01 21.5904 45.9802 18.6363 49.7334C15.1249 54.1944 8.85184 62.739 8.63137 63.3613C8.50991 63.7046 8.58614 63.611 12.0882 59.135C13.578 57.231 14.8607 55.6501 14.9387 55.6213C15.0167 55.593 15.4273 55.9858 15.8513 56.4933C16.2753 57.0014 17.2999 58.0122 18.1279 58.7395C23.9968 63.8944 29.9094 65.3621 35.0585 62.9424C37.5318 61.7799 39.2422 60.3149 41.7857 57.1804C43.9935 54.4588 44.9986 53.4568 45.5202 53.4568C46.2896 53.4568 47.762 55.234 49.682 58.48C52.4585 63.1736 54.0267 64.5853 56.2763 64.4156C56.8352 64.3732 57.5954 64.1925 57.966 64.0141C58.7282 63.6469 60.3513 62.2347 60.1955 62.0742C60.1387 62.016 59.6615 62.2015 59.1346 62.486C57.2978 63.4777 56.0816 63.3717 55.019 62.1259C54.2713 61.2506 53.8626 60.1854 52.8499 56.477C51.0544 49.9001 48.8693 47.3166 44.9272 47.1091C42.4354 46.9779 40.555 47.7563 36.7211 50.5061C33.6018 52.7431 32.2136 53.436 31.3075 53.2079C30.6751 53.0488 28.8618 51.1318 27.9384 49.6461C26.9274 48.0194 26.1276 46.1409 25.8345 44.7043C25.5497 43.3086 25.8323 41.932 27.3302 37.4223C28.3653 34.3055 28.4271 34.1764 29.0157 33.895C30.5288 33.1712 32.0686 31.2191 32.5313 29.4374C32.9736 27.7342 32.8957 26.5548 32.2586 25.3161C31.6743 24.1798 30.5343 22.5818 30.2396 22.4855C30.1411 22.4534 27.8235 24.9207 25.0893 27.9686Z" fill="#FC9414"/>
<mask id="mask0_311_5971" style="mask-type:alpha" maskUnits="userSpaceOnUse" x="48" y="7" width="196" height="50">
<path d="M243.459 7.61603H48.6919V56.576H243.459V7.61603Z" fill="#D9D9D9"/>
</mask>
<g mask="url(#mask0_311_5971)">
<path d="M62.5983 41.8662C67.3074 41.8662 71.0469 39.8817 72.8474 37.0964V30.1332H66.6149L66.6495 34.9726C65.6454 35.8778 64.4681 36.0519 62.5983 36.0519C59.0666 36.0519 56.8505 33.58 56.8505 29.7154C56.8505 26.0249 59.0319 23.4137 62.3213 23.4137C65.0221 23.4137 66.3379 24.5974 67.3074 26.3731L72.5358 23.4485C70.8391 19.5143 66.7534 17.3557 62.5983 17.3557C55.5348 17.3557 50.2717 22.7522 50.2717 29.6109C50.2717 36.4697 55.604 41.8662 62.5983 41.8662ZM84.9554 41.8314C88.8335 41.8314 91.7766 39.8817 93.2655 36.6438L88.4872 34.2415C87.864 35.5993 86.5482 36.5045 84.8862 36.5045C82.9818 36.5045 81.666 35.46 81.2505 33.7192H93.2996V32.1525C93.2996 27.4872 90.1492 23.2396 84.4707 23.2396C78.9999 23.2396 75.2604 27.4175 75.2604 32.431C75.2604 38.1409 79.4154 41.8314 84.9554 41.8314ZM81.5275 30.4813C81.9084 29.4717 82.9126 28.6013 84.4009 28.6013C85.8557 28.6013 86.8252 29.5065 87.1022 30.4813H81.5275ZM105.793 29.5065C108.079 29.5065 108.944 31.3517 108.944 33.5452V41.3439H115.177V32.7792C115.177 27.6613 112.199 23.4137 105.793 23.4137C99.3877 23.4137 96.4099 27.6613 96.4099 32.7792V41.3439H102.642V33.5452C102.642 31.3517 103.508 29.5065 105.793 29.5065ZM128.009 29.5065C130.295 29.5065 131.16 31.3517 131.16 33.5452V41.3439H137.393V32.7792C137.393 27.6613 134.415 23.4137 128.009 23.4137C121.604 23.4137 118.626 27.6613 118.626 32.7792V41.3439H124.858V33.5452C124.858 31.3517 125.724 29.5065 128.009 29.5065ZM144.65 22.0907C146.693 22.0907 148.389 20.3847 148.389 18.3306C148.389 16.2764 146.693 14.5704 144.65 14.5704C142.607 14.5704 140.91 16.2764 140.91 18.3306C140.91 20.3847 142.607 22.0907 144.65 22.0907ZM141.534 23.9359V41.3439H147.766V23.9359H141.534ZM160.935 41.8314C164.813 41.8314 167.756 39.8817 169.245 36.6438L164.466 34.2415C163.843 35.5993 162.527 36.5045 160.865 36.5045C158.961 36.5045 157.645 35.46 157.23 33.7192H169.279V32.1525C169.279 27.4872 166.128 23.2396 160.45 23.2396C154.979 23.2396 151.24 27.4175 151.24 32.431C151.24 38.1409 155.395 41.8314 160.935 41.8314ZM157.507 30.4813C157.888 29.4717 158.892 28.6013 160.381 28.6013C161.835 28.6013 162.804 29.5065 163.081 30.4813H157.507Z" fill="#142464"/>
<path d="M243.459 5.44H175.291V54.4H243.459V5.44Z" fill="#FC9414"/>
<path d="M184.466 41.3092V35.5994H187.375C194.161 35.5994 198.005 32.2571 198.005 26.6169C198.005 21.1508 193.954 17.8432 187.029 17.8432H178.061V41.344L184.466 41.3092ZM187.202 23.7619C189.972 23.7619 191.426 24.7716 191.426 26.6169C191.426 28.6014 190.076 29.6807 187.202 29.6807H184.466V23.7619H187.202ZM208.381 41.8662C210.389 41.8662 211.947 41.2048 213.055 40.0559V41.344H218.942V32.6052C218.942 27.2784 214.96 23.379 209.42 23.379C204.018 23.379 199.898 27.5569 199.898 32.6052C199.898 37.6884 203.326 41.8662 208.381 41.8662ZM209.42 35.9823C207.446 35.9823 206.13 34.4504 206.13 32.64C206.13 30.7948 207.446 29.2628 209.42 29.2628C211.393 29.2628 212.709 30.7948 212.709 32.64C212.709 34.4504 211.393 35.9823 209.42 35.9823ZM231.16 49.9088C236.908 49.9088 241.201 45.9398 241.201 39.6729V23.936H234.865V32.4312C234.865 34.346 233.445 35.6342 231.922 35.6342C230.087 35.6342 228.979 34.346 228.979 32.4312V23.936H222.85V32.5704C222.85 37.7928 225.239 41.5181 231.091 41.5181C232.787 41.5181 234.069 41.1003 234.969 40.1603C234.796 42.7018 233.307 44.199 231.056 44.199C228.909 44.199 227.767 42.9804 227.213 41.7967L222.054 44.5819C223.646 47.9939 226.659 49.9088 231.16 49.9088Z" fill="white"/>
</g>
<path d="M97.6172 58.9043H93.1765V59.7225H94.9511V64.736H95.834V59.7225H97.6172V58.9043ZM99.5562 64.736V62.6209C99.5562 61.794 100.084 61.1848 100.837 61.1848C101.642 61.1848 102.058 61.8376 102.058 62.5948V64.736H102.915V62.5078C102.915 61.2022 102.214 60.3666 100.967 60.3666C100.396 60.3666 99.8852 60.5929 99.5562 60.9497V58.5126H98.6992V64.736H99.5562ZM106.295 64.8317C107.126 64.8317 107.809 64.44 108.182 63.7089L107.524 63.3695C107.273 63.8395 106.805 64.0658 106.286 64.0658C105.524 64.0658 104.97 63.5522 104.875 62.8211H108.268V62.4729C108.268 61.2805 107.472 60.3492 106.191 60.3492C104.918 60.3492 104.044 61.3501 104.044 62.5774C104.044 63.8917 105.005 64.8317 106.295 64.8317ZM104.91 62.264C104.996 61.6287 105.464 61.1238 106.182 61.1238C106.883 61.1238 107.377 61.5851 107.411 62.264H104.91ZM117.369 60.3492C116.564 60.3492 115.967 60.7844 115.733 61.4459C115.517 60.7844 114.902 60.3492 114.054 60.3492C112.781 60.3492 112.106 61.3066 112.106 62.4991V64.736H112.963V62.6296C112.963 61.855 113.318 61.176 114.115 61.176C114.902 61.176 115.292 61.8288 115.292 62.6122V64.736H116.149V62.6122C116.149 61.8288 116.538 61.176 117.309 61.176C118.105 61.176 118.486 61.855 118.486 62.6296V64.736H119.343V62.4904C119.343 61.3066 118.65 60.3492 117.369 60.3492ZM122.602 64.8404C123.295 64.8404 123.857 64.5097 124.177 63.9874V64.736H124.991V62.5948C124.991 61.324 124.013 60.3666 122.732 60.3666C121.442 60.3666 120.473 61.3762 120.473 62.5948C120.473 63.8308 121.373 64.8404 122.602 64.8404ZM122.732 64.0223C121.944 64.0223 121.33 63.3782 121.33 62.6035C121.33 61.8201 121.944 61.176 122.732 61.176C123.528 61.176 124.134 61.8201 124.134 62.6035C124.134 63.3782 123.528 64.0223 122.732 64.0223ZM128.305 66.7988C129.655 66.7988 130.642 65.8327 130.642 64.353V62.5948C130.642 61.324 129.664 60.3666 128.383 60.3666C127.093 60.3666 126.124 61.3675 126.124 62.5861C126.124 63.8395 127.076 64.7969 128.279 64.7969C128.989 64.7969 129.508 64.4662 129.785 64.0223V64.3617C129.785 65.3627 129.179 66.0068 128.288 66.0068C127.673 66.0068 127.206 65.7108 126.955 65.2495L126.236 65.6412C126.626 66.3984 127.387 66.7988 128.305 66.7988ZM128.374 63.9874C127.604 63.9874 126.972 63.3607 126.972 62.5774C126.972 61.794 127.604 61.1848 128.374 61.1848C129.153 61.1848 129.777 61.794 129.777 62.5774C129.777 63.3607 129.153 63.9874 128.374 63.9874ZM132.64 59.6267C132.952 59.6267 133.194 59.3743 133.194 59.061C133.194 58.7476 132.952 58.4865 132.64 58.4865C132.329 58.4865 132.077 58.7476 132.077 59.061C132.077 59.3743 132.329 59.6267 132.64 59.6267ZM132.216 60.471V64.736H133.073V60.471H132.216ZM136.59 64.8317C137.369 64.8317 138.088 64.4836 138.477 63.7089L137.767 63.3172C137.516 63.7785 137.092 64.0223 136.59 64.0223C135.846 64.0223 135.231 63.3782 135.231 62.5948C135.231 61.8201 135.846 61.1848 136.59 61.1848C137.092 61.1848 137.516 61.4285 137.767 61.8898L138.477 61.4894C138.088 60.7234 137.369 60.3666 136.59 60.3666C135.37 60.3579 134.374 61.3675 134.374 62.5948C134.374 63.8308 135.37 64.8491 136.59 64.8317ZM141.385 64.8404C142.078 64.8404 142.64 64.5097 142.961 63.9874V64.736H143.774V62.5948C143.774 61.324 142.796 60.3666 141.515 60.3666C140.225 60.3666 139.256 61.3762 139.256 62.5948C139.256 63.8308 140.156 64.8404 141.385 64.8404ZM141.515 64.0223C140.727 64.0223 140.113 63.3782 140.113 62.6035C140.113 61.8201 140.727 61.176 141.515 61.176C142.311 61.176 142.917 61.8201 142.917 62.6035C142.917 63.3782 142.311 64.0223 141.515 64.0223ZM145.348 58.5126V64.736H146.205V58.5126H145.348ZM151.559 64.736V63.0561H152.563C154.06 63.0561 155.09 62.3598 155.09 60.9671C155.09 59.6093 154.078 58.9043 152.519 58.9043H150.676V64.736H151.559ZM152.545 59.7225C153.524 59.7225 154.181 60.1142 154.181 60.9671C154.181 61.855 153.498 62.2292 152.545 62.2292H151.559V59.7225H152.545ZM158.012 64.8404C158.705 64.8404 159.268 64.5097 159.588 63.9874V64.736H160.401V62.5948C160.401 61.324 159.423 60.3666 158.142 60.3666C156.852 60.3666 155.883 61.3762 155.883 62.5948C155.883 63.8308 156.783 64.8404 158.012 64.8404ZM158.142 64.0223C157.354 64.0223 156.74 63.3782 156.74 62.6035C156.74 61.8201 157.354 61.176 158.142 61.176C158.939 61.176 159.545 61.8201 159.545 62.6035C159.545 63.3782 158.939 64.0223 158.142 64.0223ZM163.741 66.8075C165.118 66.8075 165.949 65.824 165.949 64.3965V60.471H165.083V62.5774C165.083 63.3607 164.598 63.9874 163.854 63.9874C163.083 63.9874 162.668 63.4391 162.668 62.6383V60.471H161.82V62.6818C161.82 63.9352 162.451 64.7969 163.75 64.7969C164.39 64.7969 164.841 64.5097 165.092 64.031V64.4052C165.092 65.3279 164.624 66.0068 163.724 66.0068C163.144 66.0068 162.668 65.7369 162.425 65.2756L161.716 65.6673C162.096 66.4246 162.841 66.8075 163.741 66.8075ZM172.665 60.3492C171.86 60.3492 171.263 60.7844 171.029 61.4459C170.813 60.7844 170.198 60.3492 169.35 60.3492C168.077 60.3492 167.402 61.3066 167.402 62.4991V64.736H168.259V62.6296C168.259 61.855 168.614 61.176 169.411 61.176C170.198 61.176 170.588 61.8288 170.588 62.6122V64.736H171.445V62.6122C171.445 61.8288 171.834 61.176 172.605 61.176C173.401 61.176 173.782 61.855 173.782 62.6296V64.736H174.639V62.4904C174.639 61.3066 173.946 60.3492 172.665 60.3492ZM178.02 64.8317C178.851 64.8317 179.535 64.44 179.907 63.7089L179.249 63.3695C178.998 63.8395 178.531 64.0658 178.011 64.0658C177.249 64.0658 176.695 63.5522 176.6 62.8211H179.993V62.4729C179.993 61.2805 179.197 60.3492 177.916 60.3492C176.643 60.3492 175.769 61.3501 175.769 62.5774C175.769 63.8917 176.73 64.8317 178.02 64.8317ZM176.635 62.264C176.721 61.6287 177.189 61.1238 177.907 61.1238C178.608 61.1238 179.102 61.5851 179.136 62.264H176.635ZM183.293 61.1935C184.141 61.1935 184.574 61.8811 184.574 62.6818V64.736H185.431V62.5774C185.431 61.3414 184.678 60.3666 183.293 60.3666C181.925 60.3666 181.19 61.3414 181.19 62.5861V64.736H182.047V62.6731C182.047 61.8811 182.462 61.1935 183.293 61.1935ZM188.762 64.8491C189.074 64.8491 189.412 64.7534 189.628 64.6054V63.8134C189.42 63.9613 189.117 64.0658 188.84 64.0658C188.329 64.0658 188.001 63.735 188.001 63.178V61.2196H189.628V60.471H188.001V59.3656H187.144V60.471H186.304V61.2196H187.144V63.2041C187.144 64.1789 187.706 64.8491 188.762 64.8491ZM196.227 64.8404C197.223 64.8404 198.132 64.3356 198.573 63.4826L197.855 63.0648C197.526 63.648 196.937 64.0048 196.193 64.0048C195.059 64.0048 194.184 63.0561 194.184 61.8114C194.184 60.5842 195.067 59.6441 196.193 59.6441C196.937 59.6441 197.517 60.001 197.855 60.5842L198.573 60.1664C198.132 59.3134 197.223 58.7999 196.227 58.7999C194.591 58.7999 193.275 60.1316 193.275 61.8114C193.275 63.5087 194.591 64.8404 196.227 64.8404ZM201.558 64.8404C202.83 64.8404 203.809 63.8308 203.809 62.5948C203.809 61.3762 202.839 60.3666 201.558 60.3666C200.285 60.3666 199.29 61.3675 199.29 62.5948C199.29 63.8308 200.277 64.8404 201.558 64.8404ZM201.558 64.0223C200.762 64.0223 200.147 63.3782 200.147 62.6035C200.147 61.8201 200.762 61.176 201.558 61.176C202.346 61.176 202.952 61.8201 202.952 62.6035C202.952 63.3782 202.346 64.0223 201.558 64.0223ZM210.202 60.3492C209.397 60.3492 208.8 60.7844 208.566 61.4459C208.349 60.7844 207.735 60.3492 206.886 60.3492C205.614 60.3492 204.939 61.3066 204.939 62.4991V64.736H205.796V62.6296C205.796 61.855 206.151 61.176 206.947 61.176C207.735 61.176 208.124 61.8288 208.124 62.6122V64.736H208.981V62.6122C208.981 61.8288 209.371 61.176 210.141 61.176C210.938 61.176 211.318 61.855 211.318 62.6296V64.736H212.175V62.4904C212.175 61.3066 211.483 60.3492 210.202 60.3492ZM214.431 66.6944V64.205C214.777 64.588 215.297 64.8404 215.868 64.8404C217.158 64.8404 218.084 63.883 218.084 62.5948C218.084 61.3762 217.114 60.3666 215.833 60.3666C214.552 60.3666 213.574 61.324 213.574 62.5948V66.6944H214.431ZM215.833 64.031C215.037 64.031 214.431 63.3782 214.431 62.6035C214.431 61.8201 215.037 61.1848 215.833 61.1848C216.621 61.1848 217.227 61.8201 217.227 62.6035C217.227 63.3782 216.621 64.031 215.833 64.031ZM221.086 64.8404C221.779 64.8404 222.341 64.5097 222.662 63.9874V64.736H223.475V62.5948C223.475 61.324 222.497 60.3666 221.216 60.3666C219.926 60.3666 218.957 61.3762 218.957 62.5948C218.957 63.8308 219.857 64.8404 221.086 64.8404ZM221.216 64.0223C220.428 64.0223 219.814 63.3782 219.814 62.6035C219.814 61.8201 220.428 61.176 221.216 61.176C222.012 61.176 222.618 61.8201 222.618 62.6035C222.618 63.3782 222.012 64.0223 221.216 64.0223ZM226.979 61.1935C227.828 61.1935 228.261 61.8811 228.261 62.6818V64.736H229.118V62.5774C229.118 61.3414 228.364 60.3666 226.979 60.3666C225.612 60.3666 224.876 61.3414 224.876 62.5861V64.736H225.733V62.6731C225.733 61.8811 226.148 61.1935 226.979 61.1935ZM231.115 59.6267C231.427 59.6267 231.67 59.3743 231.67 59.061C231.67 58.7476 231.427 58.4865 231.115 58.4865C230.804 58.4865 230.553 58.7476 230.553 59.061C230.553 59.3743 230.804 59.6267 231.115 59.6267ZM230.691 60.471V64.736H231.548V60.471H230.691ZM235.117 64.8404C236.389 64.8404 237.368 63.8308 237.368 62.5948C237.368 61.3762 236.398 60.3666 235.117 60.3666C233.844 60.3666 232.849 61.3675 232.849 62.5948C232.849 63.8308 233.836 64.8404 235.117 64.8404ZM235.117 64.0223C234.32 64.0223 233.706 63.3782 233.706 62.6035C233.706 61.8201 234.32 61.176 235.117 61.176C235.905 61.176 236.511 61.8201 236.511 62.6035C236.511 63.3782 235.905 64.0223 235.117 64.0223ZM240.601 61.1935C241.45 61.1935 241.882 61.8811 241.882 62.6818V64.736H242.739V62.5774C242.739 61.3414 241.986 60.3666 240.601 60.3666C239.233 60.3666 238.498 61.3414 238.498 62.5861V64.736H239.355V62.6731C239.355 61.8811 239.77 61.1935 240.601 61.1935Z" fill="#142464"/>
</svg>
