<svg width="24" height="24" viewBox="0 0 24 24" fill="none" xmlns="http://www.w3.org/2000/svg">
<path d="M19.3907 11.3586H7.92137L12.9321 6.21314C13.3326 5.80192 13.3326 5.1271 12.9321 4.71589C12.8371 4.61814 12.7243 4.54059 12.6001 4.48768C12.4759 4.43477 12.3427 4.40753 12.2082 4.40753C12.0738 4.40753 11.9406 4.43477 11.8164 4.48768C11.6922 4.54059 11.5793 4.61814 11.4844 4.71589L4.71776 11.6644C4.62257 11.7619 4.54706 11.8778 4.49553 12.0054C4.444 12.1329 4.41748 12.2697 4.41748 12.4078C4.41748 12.5458 4.444 12.6826 4.49553 12.8101C4.54706 12.9377 4.62257 13.0536 4.71776 13.1511L11.4844 20.0996C11.5794 20.1972 11.6923 20.2747 11.8165 20.3275C11.9407 20.3803 12.0738 20.4075 12.2082 20.4075C12.3427 20.4075 12.4758 20.3803 12.6 20.3275C12.7242 20.2747 12.8371 20.1972 12.9321 20.0996C13.0272 20.002 13.1026 19.8861 13.1541 19.7586C13.2055 19.631 13.232 19.4943 13.232 19.3563C13.232 19.2182 13.2055 19.0815 13.1541 18.954C13.1026 18.8264 13.0272 18.7105 12.9321 18.6129L7.92137 13.4674H19.3907C19.9554 13.4674 20.4175 12.9929 20.4175 12.413C20.4175 11.8331 19.9554 11.3586 19.3907 11.3586Z" fill="#ABABAB"/>
</svg>
