<svg width="24" height="24" viewBox="0 0 24 24" fill="none" xmlns="http://www.w3.org/2000/svg">
<path d="M16.3283 7.67115C16.2198 7.5618 16.0908 7.47501 15.9486 7.41578C15.8065 7.35655 15.654 7.32605 15.5 7.32605C15.346 7.32605 15.1935 7.35655 15.0513 7.41578C14.9091 7.47501 14.7801 7.5618 14.6716 7.67115L12 10.3545L9.3283 7.67115C9.10862 7.45146 8.81066 7.32804 8.49997 7.32804C8.18928 7.32804 7.89132 7.45146 7.67164 7.67115C7.45195 7.89084 7.32853 8.1888 7.32853 8.49948C7.32853 8.81017 7.45195 9.10813 7.67164 9.32782L10.355 11.9995L7.67164 14.6711C7.56229 14.7796 7.47549 14.9086 7.41626 15.0508C7.35703 15.193 7.32654 15.3455 7.32654 15.4995C7.32654 15.6535 7.35703 15.806 7.41626 15.9482C7.47549 16.0903 7.56229 16.2194 7.67164 16.3278C7.78009 16.4372 7.90913 16.524 8.0513 16.5832C8.19347 16.6424 8.34596 16.6729 8.49997 16.6729C8.65398 16.6729 8.80647 16.6424 8.94864 16.5832C9.09081 16.524 9.21985 16.4372 9.3283 16.3278L12 13.6445L14.6716 16.3278C14.7801 16.4372 14.9091 16.524 15.0513 16.5832C15.1935 16.6424 15.346 16.6729 15.5 16.6729C15.654 16.6729 15.8065 16.6424 15.9486 16.5832C16.0908 16.524 16.2198 16.4372 16.3283 16.3278C16.4377 16.2194 16.5244 16.0903 16.5837 15.9482C16.6429 15.806 16.6734 15.6535 16.6734 15.4995C16.6734 15.3455 16.6429 15.193 16.5837 15.0508C16.5244 14.9086 16.4377 14.7796 16.3283 14.6711L13.645 11.9995L16.3283 9.32782C16.4377 9.21936 16.5244 9.09032 16.5837 8.94815C16.6429 8.80599 16.6734 8.6535 16.6734 8.49948C16.6734 8.34547 16.6429 8.19298 16.5837 8.05081C16.5244 7.90864 16.4377 7.77961 16.3283 7.67115ZM20.2483 3.75115C19.1721 2.63686 17.8847 1.74807 16.4614 1.13663C15.038 0.525194 13.5071 0.203355 11.958 0.189894C10.4089 0.176432 8.87263 0.471619 7.43884 1.05823C6.00505 1.64484 4.70244 2.51113 3.60703 3.60654C2.51161 4.70196 1.64533 6.00456 1.05872 7.43835C0.472107 8.87214 0.176921 10.4084 0.190382 11.9575C0.203843 13.5066 0.525683 15.0375 1.13712 16.4609C1.74856 17.8842 2.63735 19.1716 3.75164 20.2478C4.82785 21.3621 6.1152 22.2509 7.53858 22.8623C8.96196 23.4738 10.4929 23.7956 12.042 23.8091C13.591 23.8225 15.1273 23.5273 16.5611 22.9407C17.9949 22.3541 19.2975 21.4878 20.3929 20.3924C21.4883 19.297 22.3546 17.9944 22.9412 16.5606C23.5278 15.1268 23.823 13.5906 23.8096 12.0415C23.7961 10.4924 23.4743 8.96148 22.8628 7.5381C22.2514 6.11472 21.3626 4.82736 20.2483 3.75115ZM18.6033 18.6028C17.0774 20.1305 15.0689 21.0818 12.9202 21.2947C10.7715 21.5076 8.61548 20.9689 6.81941 19.7704C5.02335 18.5719 3.69839 16.7877 3.07027 14.7219C2.44216 12.656 2.54974 10.4363 3.3747 8.4409C4.19966 6.44548 5.69096 4.79782 7.59451 3.77864C9.49806 2.75945 11.6961 2.4318 13.8141 2.8515C15.9322 3.2712 17.8392 4.41229 19.2103 6.08035C20.5813 7.74842 21.3316 9.84026 21.3333 11.9995C21.3375 13.226 21.0983 14.4411 20.6297 15.5746C20.1611 16.7081 19.4724 17.7373 18.6033 18.6028Z" fill="#0983DB"/>
</svg>
