<svg width="24" height="24" viewBox="0 0 24 24" fill="none" xmlns="http://www.w3.org/2000/svg">
<path d="M5.57999 5.58003C5.79092 5.36935 6.07686 5.25102 6.37499 5.25102C6.67311 5.25102 6.95905 5.36935 7.16999 5.58003L12 10.41L16.83 5.58003C16.9675 5.43194 17.1424 5.32368 17.3363 5.26666C17.5301 5.20964 17.7358 5.20597 17.9316 5.25603C18.1274 5.30609 18.306 5.40803 18.4487 5.55111C18.5915 5.69419 18.6929 5.87311 18.7425 6.06903C18.7926 6.26459 18.7891 6.47005 18.7324 6.66379C18.6756 6.85754 18.5677 7.03241 18.42 7.17003L13.59 12L18.42 16.83C18.5681 16.9675 18.6763 17.1424 18.7334 17.3363C18.7904 17.5302 18.794 17.7358 18.744 17.9316C18.6939 18.1274 18.592 18.3061 18.4489 18.4488C18.3058 18.5915 18.1269 18.693 17.931 18.7425C17.7354 18.7927 17.53 18.7892 17.3362 18.7324C17.1425 18.6757 16.9676 18.5677 16.83 18.42L12 13.59L7.16999 18.42C6.95659 18.6186 6.67452 18.7268 6.38304 18.7218C6.09157 18.7167 5.81339 18.5989 5.60699 18.393C5.40112 18.1866 5.28329 17.9084 5.27825 17.617C5.27322 17.3255 5.38137 17.0434 5.57999 16.83L10.41 12L5.57999 7.17003C5.36931 6.95909 5.25098 6.67315 5.25098 6.37503C5.25098 6.0769 5.36931 5.79096 5.57999 5.58003Z" fill="#ABABAB"/>
</svg>
