<svg width="49" height="49" viewBox="0 0 72 72" fill="none" xmlns="http://www.w3.org/2000/svg">
<circle cx="36" cy="36" r="18" stroke="#D6CBFF" stroke-dasharray="2 2"/>
<path fill-rule="evenodd" clip-rule="evenodd" d="M43.3333 35.3333C44 35.3333 44.6667 35.2267 45.3333 35.0533V42L48 44.6667V46H24V44.6667L26.6667 42V34C26.6667 29.8667 29.3733 26.2267 33.3333 25.0533V24.6667C33.3333 23.2 34.5333 22 36 22C36.3828 21.9991 36.761 22.0836 37.1069 22.2474C37.4529 22.4112 37.758 22.6501 38 22.9467C36.7733 24.2667 36 26.04 36 28C36.0035 29.9438 36.7773 31.8071 38.1518 33.1816C39.5263 34.5561 41.3895 35.3298 43.3333 35.3333ZM38.6667 47.3333C38.6667 48.8133 37.48 50 36 50C35.2928 50 34.6145 49.719 34.1144 49.219C33.6143 48.7189 33.3333 48.0406 33.3333 47.3333H38.6667Z" fill="#2645c3"/>
<path d="M48 28C48 30.5733 45.9067 32.6667 43.3333 32.6667C40.76 32.6667 38.6667 30.5733 38.6667 28C38.6667 25.4267 40.76 23.3333 43.3333 23.3333C45.9067 23.3333 48 25.4267 48 28Z" fill="#FB3737"/>
</svg>
