<svg width="31" height="32" viewBox="0 0 31 32" fill="none" xmlns="http://www.w3.org/2000/svg">
<path d="M27.8503 16.9901C27.6099 16.7164 27.4772 16.3645 27.4772 16.0001C27.4772 15.6357 27.6099 15.2838 27.8503 15.0101L29.7703 12.8501C29.9819 12.6141 30.1133 12.3171 30.1456 12.0018C30.178 11.6866 30.1096 11.3691 29.9503 11.0951L26.9503 5.90509C26.7927 5.63137 26.5527 5.4144 26.2645 5.28512C25.9763 5.15583 25.6546 5.12082 25.3453 5.18509L22.5253 5.75509C22.1665 5.82923 21.7929 5.76947 21.4752 5.58709C21.1574 5.4047 20.9173 5.11231 20.8003 4.76509L19.8853 2.02009C19.7847 1.72216 19.593 1.46338 19.3373 1.28035C19.0816 1.09732 18.7748 0.999275 18.4603 1.00009H12.4603C12.1332 0.983014 11.8095 1.07348 11.5387 1.25766C11.2678 1.44184 11.0647 1.70962 10.9603 2.02009L10.1203 4.76509C10.0033 5.11231 9.76329 5.4047 9.4455 5.58709C9.12771 5.76947 8.75416 5.82923 8.39533 5.75509L5.50033 5.18509C5.20716 5.14366 4.90828 5.18992 4.64135 5.31805C4.37442 5.44617 4.15138 5.65043 4.00033 5.90509L1.00033 11.0951C0.837073 11.3661 0.763666 11.6817 0.790607 11.9969C0.817547 12.3121 0.943456 12.6107 1.15033 12.8501L3.05533 15.0101C3.29581 15.2838 3.42843 15.6357 3.42843 16.0001C3.42843 16.3645 3.29581 16.7164 3.05533 16.9901L1.15033 19.1501C0.943456 19.3894 0.817547 19.688 0.790607 20.0033C0.763666 20.3185 0.837073 20.6341 1.00033 20.9051L4.00033 26.0951C4.15798 26.3688 4.39801 26.5858 4.68621 26.7151C4.97441 26.8443 5.29607 26.8794 5.60533 26.8151L8.42533 26.2451C8.78416 26.1709 9.15771 26.2307 9.4755 26.4131C9.79329 26.5955 10.0333 26.8879 10.1503 27.2351L11.0653 29.9801C11.1697 30.2906 11.3728 30.5583 11.6437 30.7425C11.9145 30.9267 12.2382 31.0172 12.5653 31.0001H18.5653C18.8798 31.0009 19.1866 30.9029 19.4423 30.7198C19.698 30.5368 19.8897 30.278 19.9903 29.9801L20.9053 27.2351C21.0223 26.8879 21.2624 26.5955 21.5802 26.4131C21.8979 26.2307 22.2715 26.1709 22.6303 26.2451L25.4503 26.8151C25.7596 26.8794 26.0813 26.8443 26.3695 26.7151C26.6577 26.5858 26.8977 26.3688 27.0553 26.0951L30.0553 20.9051C30.2146 20.6311 30.283 20.3136 30.2506 19.9983C30.2183 19.683 30.0869 19.3861 29.8753 19.1501L27.8503 16.9901ZM25.6153 19.0001L26.8153 20.3501L24.8953 23.6801L23.1253 23.3201C22.045 23.0993 20.9212 23.2828 19.9672 23.8358C19.0133 24.3888 18.2955 25.2729 17.9503 26.3201L17.3803 28.0001H13.5403L13.0003 26.2901C12.6551 25.2429 11.9374 24.3588 10.9834 23.8058C10.0295 23.2528 8.90566 23.0693 7.82533 23.2901L6.05533 23.6501L4.10533 20.3351L5.30533 18.9851C6.04326 18.1601 6.45123 17.092 6.45123 15.9851C6.45123 14.8782 6.04326 13.8101 5.30533 12.9851L4.10533 11.6351L6.02533 8.33509L7.79533 8.69509C8.87566 8.91592 9.99947 8.73241 10.9534 8.17939C11.9074 7.62636 12.6251 6.74233 12.9703 5.69509L13.5403 4.00009H17.3803L17.9503 5.71009C18.2955 6.75733 19.0133 7.64136 19.9672 8.19439C20.9212 8.74741 22.045 8.93092 23.1253 8.71009L24.8953 8.35009L26.8153 11.6801L25.6153 13.0301C24.8857 13.8532 24.4828 14.9151 24.4828 16.0151C24.4828 17.1151 24.8857 18.1769 25.6153 19.0001ZM15.4603 10.0001C14.2736 10.0001 13.1136 10.352 12.1269 11.0113C11.1402 11.6706 10.3712 12.6076 9.91705 13.704C9.46293 14.8003 9.34411 16.0067 9.57562 17.1706C9.80713 18.3345 10.3786 19.4036 11.2177 20.2427C12.0568 21.0818 13.1259 21.6533 14.2898 21.8848C15.4537 22.1163 16.6601 21.9975 17.7564 21.5434C18.8528 21.0892 19.7899 20.3202 20.4491 19.3335C21.1084 18.3468 21.4603 17.1868 21.4603 16.0001C21.4603 14.4088 20.8282 12.8827 19.703 11.7574C18.5778 10.6322 17.0516 10.0001 15.4603 10.0001ZM15.4603 19.0001C14.867 19.0001 14.287 18.8241 13.7936 18.4945C13.3003 18.1649 12.9158 17.6963 12.6887 17.1481C12.4616 16.6 12.4022 15.9968 12.518 15.4148C12.6337 14.8329 12.9195 14.2983 13.339 13.8788C13.7586 13.4592 14.2931 13.1735 14.8751 13.0577C15.457 12.942 16.0602 13.0014 16.6084 13.2284C17.1566 13.4555 17.6251 13.84 17.9547 14.3334C18.2844 14.8267 18.4603 15.4067 18.4603 16.0001C18.4603 16.7957 18.1443 17.5588 17.5817 18.1214C17.019 18.684 16.256 19.0001 15.4603 19.0001Z" fill="#EFEFEF"/>
</svg>
