<svg width="24" height="24" viewBox="0 0 24 24" fill="none" xmlns="http://www.w3.org/2000/svg">
<path fill-rule="evenodd" clip-rule="evenodd" d="M6.39415 0.0620621C4.65166 0.449377 3.27542 1.75144 2.80062 3.46185C2.70324 3.81256 2.68185 4.03199 2.68261 4.67199C2.68342 5.36349 2.70031 5.50852 2.82869 5.92802C3.18152 7.08101 3.83543 7.95258 4.82387 8.58741C5.62104 9.09937 6.4307 9.33179 7.39883 9.32646C9.51696 9.31476 11.2855 7.98369 11.9148 5.92753C12.043 5.50857 12.0599 5.36327 12.0607 4.67199C12.0615 4.03199 12.0401 3.81256 11.9427 3.46185C11.6866 2.53923 11.139 1.68534 10.4091 1.07019C9.96944 0.699751 9.14061 0.263483 8.59358 0.114682C8.13387 -0.0104517 6.85755 -0.0409667 6.39415 0.0620621ZM6.20408 11.1731C4.58899 11.4059 3.65356 11.7573 2.64666 12.5093C1.54314 13.3335 0.817766 14.3236 0.419969 15.5486C0.0481301 16.6937 -0.0488079 17.9419 0.0210307 20.6856L0.0697443 22.6008L0.21545 22.8964C0.413344 23.2979 0.757214 23.6313 1.1807 23.8324L1.53369 24H7.10014C9.63405 24 11.1095 23.9988 12.0138 23.9779C11.2718 23.7939 10.7284 23.2384 10.5274 22.4562C10.3318 21.695 10.6245 20.8096 11.2124 20.3849C11.4124 20.2403 11.4124 20.2403 11.3119 19.9879C11.1391 19.5537 10.9789 18.8421 10.9152 18.2264C10.7588 16.7122 11.2485 14.9134 12.1687 13.6214C12.3146 13.4166 12.4858 13.2077 12.6716 13.0049C11.765 12.119 10.6299 11.4898 9.43533 11.2705C9.03944 11.1978 6.55257 11.1229 6.20408 11.1731Z" fill="#142464"/>
<path d="M14.1812 8.42939C14.3311 8.08357 14.5729 7.86017 14.9187 7.748C14.9826 7.72729 16.1924 7.71423 17.6072 7.71907C20.1794 7.72778 20.1794 7.72778 20.4032 7.8651C20.648 8.01529 20.8672 8.32763 20.9515 8.64641C21.0871 9.15907 20.7095 10.124 20.1345 10.7341C19.7983 11.0908 19.7983 11.0908 19.8453 11.2741C19.9428 11.6557 19.7649 12.0559 19.4161 12.2399C19.2133 12.3468 19.1799 12.3487 17.5263 12.3487C15.6637 12.3487 15.6517 12.347 15.3956 12.0425C15.2275 11.8425 15.1725 11.6169 15.2144 11.298C15.2434 11.0772 15.2434 11.0772 14.9015 10.7037C14.2358 9.97613 13.9296 9.0096 14.1812 8.42939Z" fill="#142464"/>
<path fill-rule="evenodd" clip-rule="evenodd" d="M12.8575 14.1404C13.3021 13.487 14.0059 12.7898 14.6018 12.4124C14.9019 12.2224 14.9642 12.1995 14.9642 12.2792C14.9642 12.3791 15.3148 12.7272 15.5407 12.8517C15.5734 12.8697 15.6016 12.8853 15.6307 12.8987C15.81 12.9813 16.0233 12.983 17.5507 12.9957C19.326 12.981 19.326 12.981 19.5607 12.8517C19.7865 12.7272 20.1371 12.3791 20.1371 12.2792C20.1371 12.1995 20.1994 12.2224 20.4995 12.4124C21.0955 12.7898 21.7992 13.487 22.2439 14.1404C23.0792 15.3677 23.5236 17.0765 23.3817 18.5151C23.3239 19.0999 23.1785 19.776 23.0216 20.1885C22.9744 20.3127 22.9516 20.3725 22.9658 20.4205C22.9791 20.4651 23.0244 20.4994 23.112 20.5656C23.6455 20.9691 23.9113 21.8102 23.7337 22.5334C23.5483 23.2884 23.0422 23.821 22.3521 23.9871C22.276 24.0055 21.2322 24.0006 19.9482 23.9945H19.9478C19.1827 23.9909 18.3323 23.9869 17.5507 23.9872C16.7688 23.9869 15.9182 23.9909 15.153 23.9945H15.1528H15.1526C13.8689 24.0006 12.8253 24.0055 12.7492 23.9872C12.0592 23.821 11.553 23.2884 11.3676 22.5334C11.1901 21.8103 11.4558 20.9691 11.9894 20.5656C12.1709 20.4283 12.1709 20.4283 12.0797 20.1885C11.9229 19.776 11.7774 19.1 11.7197 18.5151C11.5777 17.0766 12.0221 15.3678 12.8575 14.1404ZM18.9601 16.0585H16.5585L16.3183 16.5639H16.9187C17.255 16.5639 17.5432 16.7711 17.6776 17.0693H16.5585L16.3183 17.5747H17.7497C17.6921 18.0042 17.3414 18.3327 16.9187 18.3327H16.3183V18.8381L17.7593 20.6069H18.3597L16.9187 18.8381H17.0868V18.828C17.3851 18.7864 17.6613 18.6399 17.8706 18.4124C18.0798 18.1849 18.2099 17.8897 18.2396 17.5747H18.72L18.9601 17.0693H18.1892C18.1388 16.8823 18.0523 16.7105 17.937 16.5639H18.72L18.9601 16.0585Z" fill="#142464"/>
</svg>
