<svg width="26" height="31" viewBox="0 0 26 31" fill="none" xmlns="http://www.w3.org/2000/svg">
<path d="M25.7352 9.27921C25.7267 9.23966 25.7267 9.19875 25.7352 9.15921C25.7279 9.12458 25.7279 9.08883 25.7352 9.0542V8.91921L25.6452 8.69421C25.6087 8.63281 25.5632 8.5772 25.5102 8.52921L25.3752 8.40921H25.3002L19.3902 4.67421L13.8102 1.22421C13.6811 1.1218 13.5334 1.04539 13.3752 0.999206H13.2552C13.1212 0.976827 12.9843 0.976827 12.8502 0.999206H12.7002C12.526 1.03774 12.3589 1.10355 12.2052 1.19421L1.00022 8.16921L0.865224 8.27421L0.730224 8.39421L0.580224 8.49921L0.505224 8.58921L0.415224 8.81421V8.94921V9.03921C0.400654 9.13867 0.400654 9.23974 0.415224 9.3392V22.4342C0.414714 22.6891 0.479178 22.94 0.602531 23.163C0.725884 23.3861 0.904055 23.5741 1.12022 23.7092L12.3702 30.6692L12.5952 30.7592H12.7152C12.969 30.8397 13.2415 30.8397 13.4952 30.7592H13.6152L13.8402 30.6692L25.0002 23.8142C25.2164 23.6791 25.3946 23.4911 25.5179 23.268C25.6413 23.045 25.7057 22.7941 25.7052 22.5392V9.44421C25.7052 9.44421 25.7352 9.33921 25.7352 9.27921ZM13.0002 4.25421L15.6702 5.90421L7.28522 11.0942L4.60022 9.44421L13.0002 4.25421ZM11.5002 26.7542L3.25022 21.7142V12.1292L11.5002 17.2292V26.7542ZM13.0002 14.5892L10.1352 12.8642L18.5202 7.65921L21.4002 9.44421L13.0002 14.5892ZM22.7502 21.6692L14.5002 26.7992V17.2292L22.7502 12.1292V21.6692Z" fill="#EFEFEF"/>
</svg>
