<svg width="261" height="211" viewBox="0 0 261 211" fill="none" xmlns="http://www.w3.org/2000/svg">
<g opacity="0.41">
<path opacity="0.32" d="M238.474 126.497C238.689 122.845 238.591 119.182 238.182 115.547C236.248 98.4855 227.484 82.3997 214.59 71.0486C209.99 66.9974 204.755 63.3672 201.761 58.0235C196.72 49.0198 197.101 38.674 190.855 29.7941C184.515 20.8175 175.535 14.0356 165.162 10.3901C134.457 -0.287505 91.478 17.0463 95.3446 53.9822C95.3446 54.1159 95.3744 54.3091 95.3942 54.5517C95.5104 56.3664 95.2572 58.1858 94.65 59.9C94.0428 61.6142 93.0941 63.1877 91.8612 64.5254C90.6283 65.8631 89.1369 66.9373 87.4769 67.6831C85.8169 68.4288 84.0228 68.8307 82.203 68.8645C53.8775 69.543 29.498 91.3341 24.283 118.989C20.927 136.759 26.4195 156.237 39.4322 168.811C49.1484 178.196 62.1809 183.352 75.2183 186.893C101.363 194 128.88 195.486 155.833 192.772C181.065 190.231 207.68 182.98 223.999 163.586C232.704 153.241 237.691 139.973 238.474 126.497Z" fill="#87A1FE"/>
</g>
<path opacity="0.3" d="M32.7421 55.3285C32.105 62.5207 34.5229 69.9243 32.5013 77.0561C30.0834 85.6123 23.0755 91.9741 20.2211 100.349C16.0023 112.72 16.208 126.586 21.3297 138.64C23.7978 144.454 27.4046 149.854 32.3307 153.588C39.9256 159.346 49.8881 160.61 59.2337 159.88C73.1643 158.793 87.8573 152.743 101.873 154.394C109.598 155.3 111.961 163.695 115.949 169.226C120.486 175.42 126.484 180.387 133.406 183.681C145.922 189.721 160.946 190.279 173.738 184.813C187.398 178.975 199.322 164.722 198.519 148.606C198.158 141.147 195.183 133.743 196.558 126.415C198.288 117.22 205.191 108.84 210.197 101.351C215.771 92.9506 219.056 83.2339 219.729 73.1656C219.729 73.0498 219.729 72.9341 219.729 72.8233C220.196 64.3679 217.864 55.9947 213.096 49.0067C208.329 42.0187 201.393 36.8077 193.367 34.1847L158.323 22.6087C122.767 10.8667 87.2403 11.2542 54.5434 28.4722C47.4702 32.2017 35.9476 43.3046 33.5748 50.9598C33.1433 52.3822 32.8641 53.8467 32.7421 55.3285Z" fill="#87A1FE"/>
<path opacity="0.58" d="M18.6015 17.2637C19.1038 17.2637 19.511 16.8565 19.511 16.3541C19.511 15.8518 19.1038 15.4446 18.6015 15.4446C18.0991 15.4446 17.6919 15.8518 17.6919 16.3541C17.6919 16.8565 18.0991 17.2637 18.6015 17.2637Z" fill="#3E479B"/>
<g opacity="0.66">
<path d="M224.541 179.677C224.31 179.676 224.079 179.66 223.85 179.629C222.602 179.444 221.477 178.773 220.723 177.762C219.968 176.75 219.645 175.481 219.824 174.232L220.4 170.242C217.489 169.205 214.809 167.608 212.511 165.543L209.285 167.968C208.27 168.677 207.019 168.963 205.797 168.765C204.575 168.568 203.478 167.903 202.737 166.912C201.997 165.92 201.671 164.679 201.829 163.451C201.987 162.223 202.617 161.105 203.585 160.334L206.817 157.908C205.485 155.112 204.716 152.081 204.555 148.988L200.565 148.382C199.946 148.292 199.351 148.081 198.814 147.761C198.277 147.441 197.808 147.019 197.434 146.517C197.06 146.016 196.789 145.446 196.635 144.84C196.481 144.234 196.449 143.604 196.539 142.985C196.629 142.366 196.84 141.771 197.159 141.234C197.479 140.697 197.902 140.228 198.403 139.854C198.904 139.48 199.474 139.209 200.08 139.055C200.686 138.902 201.317 138.869 201.935 138.959L205.919 139.535C206.961 136.625 208.562 133.947 210.631 131.652L208.205 128.426C207.497 127.411 207.211 126.16 207.408 124.938C207.605 123.716 208.27 122.619 209.262 121.878C210.254 121.138 211.495 120.812 212.722 120.97C213.95 121.128 215.068 121.758 215.84 122.726L218.265 125.958C221.057 124.632 224.081 123.866 227.167 123.702L227.743 119.712C227.88 118.78 228.289 117.91 228.92 117.211C229.55 116.512 230.374 116.015 231.287 115.783C232.199 115.552 233.16 115.596 234.048 115.91C234.936 116.224 235.711 116.793 236.275 117.547C236.651 118.048 236.923 118.618 237.076 119.225C237.229 119.832 237.26 120.464 237.166 121.083L236.56 125.073C239.47 126.11 242.149 127.709 244.443 129.778L247.675 127.353C248.687 126.597 249.958 126.276 251.208 126.457C252.458 126.639 253.584 127.31 254.339 128.323C255.094 129.335 255.416 130.606 255.234 131.856C255.052 133.106 254.381 134.232 253.369 134.987L250.143 137.412C251.474 140.209 252.242 143.24 252.405 146.332L256.389 146.908C257.023 146.98 257.637 147.178 258.194 147.491C258.751 147.804 259.239 148.226 259.629 148.731C260.02 149.237 260.305 149.816 260.467 150.433C260.629 151.051 260.666 151.695 260.574 152.327C260.483 152.96 260.265 153.567 259.935 154.113C259.604 154.66 259.167 155.134 258.649 155.508C258.131 155.882 257.543 156.148 256.921 156.291C256.298 156.433 255.653 156.449 255.024 156.338L251.034 155.731C249.992 158.639 248.394 161.317 246.329 163.614L248.754 166.846C249.128 167.348 249.4 167.918 249.553 168.524C249.707 169.13 249.739 169.76 249.649 170.379C249.559 170.998 249.348 171.593 249.028 172.13C248.708 172.668 248.285 173.137 247.784 173.51C247.283 173.884 246.713 174.156 246.107 174.309C245.5 174.463 244.87 174.496 244.251 174.405C243.632 174.315 243.037 174.104 242.5 173.784C241.963 173.464 241.494 173.041 241.12 172.54L238.694 169.314C235.916 170.647 232.905 171.425 229.829 171.606L229.223 175.59C229.06 176.719 228.499 177.752 227.64 178.502C226.781 179.252 225.681 179.669 224.541 179.677ZM212.577 163.96L212.947 164.306C215.33 166.539 218.168 168.229 221.267 169.26L221.746 169.417L221 174.402C220.933 174.863 220.957 175.333 221.071 175.784C221.186 176.236 221.388 176.661 221.666 177.034C221.945 177.408 222.294 177.723 222.694 177.962C223.094 178.2 223.538 178.358 223.999 178.425C224.46 178.492 224.93 178.468 225.381 178.354C225.833 178.24 226.258 178.038 226.631 177.759C227.005 177.481 227.32 177.131 227.559 176.731C227.797 176.331 227.955 175.888 228.022 175.427L228.75 170.436H229.253C232.517 170.328 235.719 169.515 238.64 168.053L239.095 167.829L242.126 171.867C242.708 172.567 243.537 173.017 244.441 173.125C245.344 173.232 246.255 172.988 246.985 172.444C247.714 171.9 248.207 171.096 248.361 170.199C248.516 169.302 248.32 168.379 247.814 167.622L244.782 163.584L245.128 163.214C247.373 160.831 249.071 157.988 250.106 154.882L250.264 154.397L255.249 155.125C256.164 155.225 257.082 154.966 257.81 154.403C258.538 153.84 259.019 153.016 259.152 152.105C259.285 151.194 259.059 150.268 258.522 149.52C257.985 148.772 257.179 148.262 256.273 148.097L251.283 147.351V146.842C251.169 143.587 250.355 140.396 248.894 137.485L248.669 137.03L252.702 133.999C253.075 133.72 253.39 133.37 253.629 132.97C253.867 132.57 254.025 132.126 254.092 131.665C254.159 131.204 254.134 130.734 254.019 130.282C253.905 129.83 253.702 129.406 253.423 129.032C252.86 128.279 252.02 127.78 251.089 127.645C250.158 127.51 249.212 127.749 248.457 128.311L244.419 131.343L244.043 130.979C241.663 128.741 238.824 127.051 235.723 126.025L235.244 125.861L235.972 120.876C236.068 119.963 235.807 119.048 235.243 118.323C234.679 117.598 233.857 117.119 232.948 116.987C232.039 116.855 231.114 117.081 230.367 117.616C229.621 118.151 229.111 118.954 228.944 119.858L228.222 124.842H227.713C224.45 124.945 221.25 125.756 218.332 127.219L217.877 127.45L214.845 123.411C214.282 122.657 213.443 122.157 212.512 122.022C211.58 121.886 210.633 122.127 209.879 122.689C209.125 123.252 208.625 124.092 208.49 125.023C208.354 125.954 208.595 126.901 209.157 127.656L212.189 131.694L211.844 132.064C209.606 134.444 207.916 137.283 206.89 140.384L206.726 140.863L201.741 140.141C200.81 140.006 199.863 140.246 199.11 140.809C198.356 141.372 197.856 142.212 197.721 143.143C197.586 144.074 197.826 145.021 198.389 145.775C198.952 146.529 199.791 147.028 200.723 147.163L205.707 147.891V148.394C205.81 151.658 206.621 154.861 208.084 157.781L208.315 158.236L204.276 161.268C203.713 161.687 203.288 162.264 203.053 162.926C202.818 163.587 202.785 164.304 202.958 164.984C203.131 165.665 203.501 166.279 204.023 166.748C204.545 167.218 205.194 167.522 205.889 167.622C206.82 167.757 207.766 167.517 208.521 166.955L212.577 163.96ZM228.519 165.173C224.357 165.174 220.33 163.694 217.161 160.996C213.991 158.299 211.885 154.561 211.22 150.453C210.555 146.344 211.375 142.133 213.532 138.574C215.689 135.014 219.044 132.339 222.994 131.028C226.944 129.717 231.232 129.855 235.089 131.417C238.947 132.979 242.123 135.864 244.047 139.555C245.971 143.245 246.519 147.5 245.591 151.558C244.664 155.615 242.322 159.21 238.985 161.698C235.965 163.96 232.293 165.182 228.519 165.179V165.173ZM228.465 131.318C225.881 131.324 223.336 131.942 221.039 133.123C218.741 134.303 216.756 136.012 215.248 138.109C213.739 140.206 212.75 142.631 212.361 145.185C211.972 147.739 212.195 150.348 213.011 152.799C213.828 155.25 215.214 157.472 217.056 159.283C218.898 161.094 221.144 162.442 223.608 163.216C226.073 163.99 228.686 164.168 231.232 163.735C233.779 163.303 236.187 162.272 238.258 160.728C240.846 158.797 242.804 156.142 243.883 153.099C244.963 150.055 245.115 146.76 244.321 143.63C243.527 140.5 241.823 137.675 239.423 135.514C237.024 133.353 234.037 131.952 230.842 131.488C230.054 131.376 229.26 131.322 228.465 131.324V131.318Z" fill="white"/>
</g>
<g opacity="0.81">
<path d="M146.136 182.121H133.681C133.52 182.121 133.366 182.057 133.252 181.943C133.138 181.83 133.074 181.676 133.074 181.515C133.074 181.354 133.138 181.2 133.252 181.086C133.366 180.972 133.52 180.908 133.681 180.908H146.136C146.297 180.908 146.451 180.972 146.565 181.086C146.678 181.2 146.742 181.354 146.742 181.515C146.742 181.676 146.678 181.83 146.565 181.943C146.451 182.057 146.297 182.121 146.136 182.121Z" fill="white"/>
<path d="M146.136 195.067H133.681C133.52 195.067 133.366 195.003 133.252 194.89C133.138 194.776 133.074 194.622 133.074 194.461C133.074 194.3 133.138 194.146 133.252 194.032C133.366 193.918 133.52 193.855 133.681 193.855H146.136C146.297 193.855 146.451 193.918 146.565 194.032C146.678 194.146 146.742 194.3 146.742 194.461C146.742 194.622 146.678 194.776 146.565 194.89C146.451 195.003 146.297 195.067 146.136 195.067Z" fill="white"/>
<path d="M155.511 208.141H78.6031C78.1673 208.141 77.7493 207.968 77.4411 207.66C77.133 207.351 76.9598 206.934 76.9598 206.498V166.567C76.9614 166.132 77.1351 165.715 77.4429 165.407C77.7507 165.099 78.1678 164.926 78.6031 164.924H155.511C155.947 164.924 156.366 165.097 156.675 165.405C156.984 165.713 157.158 166.131 157.16 166.567V206.498C157.16 206.714 157.117 206.928 157.034 207.128C156.951 207.328 156.83 207.509 156.677 207.662C156.523 207.814 156.341 207.935 156.141 208.018C155.941 208.1 155.727 208.142 155.511 208.141ZM78.6031 166.149C78.5466 166.149 78.4906 166.16 78.4384 166.182C78.3861 166.203 78.3387 166.235 78.2987 166.275C78.2587 166.315 78.227 166.362 78.2054 166.415C78.1837 166.467 78.1726 166.523 78.1726 166.579V206.51C78.1726 206.566 78.1837 206.622 78.2054 206.675C78.227 206.727 78.2587 206.774 78.2987 206.814C78.3387 206.854 78.3861 206.886 78.4384 206.908C78.4906 206.929 78.5466 206.94 78.6031 206.94H155.511C155.568 206.941 155.624 206.931 155.677 206.909C155.73 206.888 155.778 206.856 155.819 206.816C155.86 206.776 155.892 206.729 155.914 206.676C155.936 206.623 155.947 206.567 155.947 206.51V166.567C155.944 166.454 155.897 166.347 155.815 166.269C155.733 166.19 155.624 166.147 155.511 166.149H78.6031Z" fill="white"/>
<path opacity="0.66" d="M155.511 208.141H78.6031C78.1673 208.141 77.7493 207.968 77.4411 207.66C77.133 207.351 76.9598 206.934 76.9598 206.498V166.567C76.9614 166.132 77.1351 165.715 77.4429 165.407C77.7507 165.099 78.1678 164.926 78.6031 164.924H155.511C155.947 164.924 156.366 165.097 156.675 165.405C156.984 165.713 157.158 166.131 157.16 166.567V206.498C157.16 206.714 157.117 206.928 157.034 207.128C156.951 207.328 156.83 207.509 156.677 207.662C156.523 207.814 156.341 207.935 156.141 208.018C155.941 208.1 155.727 208.142 155.511 208.141ZM78.6031 166.149C78.5466 166.149 78.4906 166.16 78.4384 166.182C78.3861 166.203 78.3387 166.235 78.2987 166.275C78.2587 166.315 78.227 166.362 78.2054 166.415C78.1837 166.467 78.1726 166.523 78.1726 166.579V206.51C78.1726 206.566 78.1837 206.622 78.2054 206.675C78.227 206.727 78.2587 206.774 78.2987 206.814C78.3387 206.854 78.3861 206.886 78.4384 206.908C78.4906 206.929 78.5466 206.94 78.6031 206.94H155.511C155.568 206.941 155.624 206.931 155.677 206.909C155.73 206.888 155.778 206.856 155.819 206.816C155.86 206.776 155.892 206.729 155.914 206.676C155.936 206.623 155.947 206.567 155.947 206.51V166.567C155.944 166.454 155.897 166.347 155.815 166.269C155.733 166.19 155.624 166.147 155.511 166.149H78.6031Z" fill="white"/>
<path d="M146.136 175.851H86.7772C86.6163 175.851 86.4621 175.787 86.3484 175.673C86.2347 175.56 86.1708 175.406 86.1708 175.245C86.1708 175.084 86.2347 174.93 86.3484 174.816C86.4621 174.702 86.6163 174.638 86.7772 174.638H146.136C146.297 174.638 146.451 174.702 146.565 174.816C146.678 174.93 146.742 175.084 146.742 175.245C146.742 175.406 146.678 175.56 146.565 175.673C146.451 175.787 146.297 175.851 146.136 175.851Z" fill="white"/>
<path d="M146.136 188.403H86.7772C86.6163 188.403 86.4621 188.339 86.3484 188.226C86.2347 188.112 86.1708 187.958 86.1708 187.797C86.1708 187.636 86.2347 187.482 86.3484 187.368C86.4621 187.254 86.6163 187.19 86.7772 187.19H146.136C146.297 187.19 146.451 187.254 146.565 187.368C146.678 187.482 146.742 187.636 146.742 187.797C146.742 187.958 146.678 188.112 146.565 188.226C146.451 188.339 146.297 188.403 146.136 188.403Z" fill="white"/>
<path d="M118.776 182.121H86.7772C86.6163 182.121 86.4621 182.057 86.3484 181.943C86.2347 181.83 86.1708 181.676 86.1708 181.515C86.1708 181.354 86.2347 181.2 86.3484 181.086C86.4621 180.972 86.6163 180.908 86.7772 180.908H118.776C118.937 180.908 119.091 180.972 119.205 181.086C119.318 181.2 119.382 181.354 119.382 181.515C119.382 181.676 119.318 181.83 119.205 181.943C119.091 182.057 118.937 182.121 118.776 182.121Z" fill="white"/>
<path d="M118.776 195.067H86.7772C86.6163 195.067 86.4621 195.003 86.3484 194.89C86.2347 194.776 86.1708 194.622 86.1708 194.461C86.1708 194.3 86.2347 194.146 86.3484 194.032C86.4621 193.918 86.6163 193.855 86.7772 193.855H118.776C118.937 193.855 119.091 193.918 119.205 194.032C119.318 194.146 119.382 194.3 119.382 194.461C119.382 194.622 119.318 194.776 119.205 194.89C119.091 195.003 118.937 195.067 118.776 195.067Z" fill="white"/>
<path d="M108.358 201.064H86.7772C86.6163 201.064 86.4621 201.001 86.3484 200.887C86.2347 200.773 86.1708 200.619 86.1708 200.458C86.1708 200.297 86.2347 200.143 86.3484 200.029C86.4621 199.916 86.6163 199.852 86.7772 199.852H108.358C108.519 199.852 108.673 199.916 108.787 200.029C108.901 200.143 108.965 200.297 108.965 200.458C108.965 200.619 108.901 200.773 108.787 200.887C108.673 201.001 108.519 201.064 108.358 201.064Z" fill="white"/>
</g>
<g opacity="0.81">
<path d="M26.9575 143.294H12.9561C12.7953 143.294 12.6411 143.23 12.5273 143.117C12.4136 143.003 12.3497 142.849 12.3497 142.688C12.3497 142.527 12.4136 142.373 12.5273 142.259C12.6411 142.145 12.7953 142.082 12.9561 142.082H26.9575C27.1183 142.082 27.2726 142.145 27.3863 142.259C27.5 142.373 27.5639 142.527 27.5639 142.688C27.5639 142.849 27.5 143.003 27.3863 143.117C27.2726 143.23 27.1183 143.294 26.9575 143.294Z" fill="white"/>
<path d="M26.9575 128.741H12.9561C12.7953 128.741 12.6411 128.677 12.5273 128.564C12.4136 128.45 12.3497 128.296 12.3497 128.135C12.3497 127.974 12.4136 127.82 12.5273 127.706C12.6411 127.592 12.7953 127.528 12.9561 127.528H26.9575C27.1183 127.528 27.2726 127.592 27.3863 127.706C27.5 127.82 27.5639 127.974 27.5639 128.135C27.5639 128.296 27.5 128.45 27.3863 128.564C27.2726 128.677 27.1183 128.741 26.9575 128.741Z" fill="white"/>
<path d="M88.9783 161.255H2.26557C1.82918 161.255 1.41058 161.082 1.10144 160.774C0.792296 160.466 0.617815 160.049 0.616211 159.612V114.479C0.616211 114.042 0.789983 113.622 1.0993 113.313C1.40861 113.003 1.82814 112.83 2.26557 112.83H88.9783C89.1946 112.83 89.4088 112.872 89.6086 112.955C89.8084 113.038 89.9898 113.16 90.1425 113.313C90.2951 113.466 90.4161 113.648 90.4983 113.848C90.5805 114.048 90.6224 114.263 90.6216 114.479V159.612C90.6216 159.828 90.5791 160.042 90.4965 160.241C90.414 160.44 90.2929 160.622 90.1403 160.774C89.9877 160.927 89.8066 161.048 89.6072 161.13C89.4078 161.213 89.1941 161.255 88.9783 161.255ZM2.26557 114.042C2.14978 114.042 2.03873 114.088 1.95685 114.17C1.87498 114.252 1.82898 114.363 1.82898 114.479V159.612C1.82897 159.669 1.84031 159.726 1.86232 159.778C1.88433 159.831 1.91659 159.879 1.95721 159.919C1.99784 159.959 2.04602 159.99 2.09895 160.012C2.15189 160.033 2.20853 160.043 2.26557 160.043H88.9783C89.0925 160.043 89.202 159.997 89.2828 159.917C89.3635 159.836 89.4089 159.726 89.4089 159.612V114.479C89.4097 114.422 89.3991 114.365 89.3779 114.312C89.3566 114.259 89.325 114.211 89.2849 114.171C89.2449 114.13 89.1971 114.098 89.1445 114.076C89.0919 114.054 89.0354 114.042 88.9783 114.042H2.26557Z" fill="white"/>
<path opacity="0.66" d="M88.9783 161.255H2.26557C1.82918 161.255 1.41058 161.082 1.10144 160.774C0.792296 160.466 0.617815 160.049 0.616211 159.612V114.479C0.616211 114.042 0.789983 113.622 1.0993 113.313C1.40861 113.003 1.82814 112.83 2.26557 112.83H88.9783C89.1946 112.83 89.4088 112.872 89.6086 112.955C89.8084 113.038 89.9898 113.16 90.1425 113.313C90.2951 113.466 90.4161 113.648 90.4983 113.848C90.5805 114.048 90.6224 114.263 90.6216 114.479V159.612C90.6216 159.828 90.5791 160.042 90.4965 160.241C90.414 160.44 90.2929 160.622 90.1403 160.774C89.9877 160.927 89.8066 161.048 89.6072 161.13C89.4078 161.213 89.1941 161.255 88.9783 161.255ZM2.26557 114.042C2.14978 114.042 2.03873 114.088 1.95685 114.17C1.87498 114.252 1.82898 114.363 1.82898 114.479V159.612C1.82897 159.669 1.84031 159.726 1.86232 159.778C1.88433 159.831 1.91659 159.879 1.95721 159.919C1.99784 159.959 2.04602 159.99 2.09895 160.012C2.15189 160.033 2.20853 160.043 2.26557 160.043H88.9783C89.0925 160.043 89.202 159.997 89.2828 159.917C89.3635 159.836 89.4089 159.726 89.4089 159.612V114.479C89.4097 114.422 89.3991 114.365 89.3779 114.312C89.3566 114.259 89.325 114.211 89.2849 114.171C89.2449 114.13 89.1971 114.098 89.1445 114.076C89.0919 114.054 89.0354 114.042 88.9783 114.042H2.26557Z" fill="white"/>
<path d="M79.6703 150.383H12.9682C12.8074 150.383 12.6531 150.319 12.5394 150.205C12.4257 150.092 12.3618 149.937 12.3618 149.777C12.3618 149.616 12.4257 149.462 12.5394 149.348C12.6531 149.234 12.8074 149.17 12.9682 149.17H79.6703C79.8311 149.17 79.9854 149.234 80.0991 149.348C80.2128 149.462 80.2767 149.616 80.2767 149.777C80.2767 149.937 80.2128 150.092 80.0991 150.205C79.9854 150.319 79.8311 150.383 79.6703 150.383Z" fill="white"/>
<path d="M79.6703 136.23H12.9682C12.8074 136.23 12.6531 136.166 12.5394 136.052C12.4257 135.939 12.3618 135.784 12.3618 135.624C12.3618 135.463 12.4257 135.309 12.5394 135.195C12.6531 135.081 12.8074 135.017 12.9682 135.017H79.6703C79.8311 135.017 79.9854 135.081 80.0991 135.195C80.2128 135.309 80.2767 135.463 80.2767 135.624C80.2767 135.784 80.2128 135.939 80.0991 136.052C79.9854 136.166 79.8311 136.23 79.6703 136.23Z" fill="white"/>
<path d="M79.6704 143.294H43.6998C43.5389 143.294 43.3847 143.23 43.271 143.117C43.1573 143.003 43.0934 142.849 43.0934 142.688C43.0934 142.527 43.1573 142.373 43.271 142.259C43.3847 142.145 43.5389 142.082 43.6998 142.082H79.6704C79.8312 142.082 79.9855 142.145 80.0992 142.259C80.2129 142.373 80.2768 142.527 80.2768 142.688C80.2768 142.849 80.2129 143.003 80.0992 143.117C79.9855 143.23 79.8312 143.294 79.6704 143.294Z" fill="white"/>
<path d="M79.6704 128.741H43.6998C43.5389 128.741 43.3847 128.677 43.271 128.564C43.1573 128.45 43.0934 128.296 43.0934 128.135C43.0934 127.974 43.1573 127.82 43.271 127.706C43.3847 127.592 43.5389 127.528 43.6998 127.528H79.6704C79.8312 127.528 79.9855 127.592 80.0992 127.706C80.2129 127.82 80.2768 127.974 80.2768 128.135C80.2768 128.296 80.2129 128.45 80.0992 128.564C79.9855 128.677 79.8312 128.741 79.6704 128.741Z" fill="white"/>
<path d="M79.6704 121.998H55.4151C55.2543 121.998 55.1 121.934 54.9863 121.821C54.8726 121.707 54.8087 121.553 54.8087 121.392C54.8087 121.231 54.8726 121.077 54.9863 120.963C55.1 120.849 55.2543 120.785 55.4151 120.785H79.6704C79.8312 120.785 79.9855 120.849 80.0992 120.963C80.2129 121.077 80.2768 121.231 80.2768 121.392C80.2768 121.553 80.2129 121.707 80.0992 121.821C79.9855 121.934 79.8312 121.998 79.6704 121.998Z" fill="white"/>
</g>
<path opacity="0.14" d="M176.802 54.5328L123.245 144.877C122.929 145.41 123.105 146.098 123.638 146.414L189.993 185.75C190.526 186.066 191.214 185.89 191.53 185.357L245.087 95.0128C245.403 94.4799 245.227 93.7917 244.694 93.4758L178.339 54.1399C177.806 53.8239 177.118 53.9998 176.802 54.5328Z" fill="#3E479B"/>
<path d="M175.078 50.9119L121.521 141.256C121.205 141.789 121.381 142.477 121.914 142.793L188.269 182.129C188.802 182.445 189.49 182.269 189.806 181.736L243.363 91.3919C243.679 90.859 243.503 90.1708 242.97 89.8548L176.615 50.5189C176.082 50.203 175.394 50.3789 175.078 50.9119Z" fill="#F7A9B4"/>
<path opacity="0.14" d="M207.326 181.03L131.468 167.052C131.176 166.997 130.917 166.828 130.749 166.582C130.581 166.337 130.517 166.035 130.57 165.743L149.611 62.4574C149.664 62.1648 149.831 61.9052 150.075 61.7357C150.32 61.5663 150.622 61.5009 150.914 61.5539L226.773 75.5371C226.918 75.5641 227.056 75.6194 227.18 75.6998C227.303 75.7803 227.41 75.8843 227.493 76.0059C227.576 76.1276 227.635 76.2645 227.665 76.4088C227.696 76.5531 227.697 76.702 227.67 76.8469L208.636 180.132C208.61 180.277 208.555 180.416 208.475 180.54C208.394 180.664 208.29 180.771 208.168 180.855C208.047 180.938 207.909 180.996 207.765 181.027C207.62 181.057 207.471 181.058 207.326 181.03Z" fill="#3E479B"/>
<path d="M148.174 58.4421L128.736 163.935L206.803 178.32L226.241 72.8265L148.174 58.4421Z" fill="white"/>
<path opacity="0.39" d="M147.97 59.5453L128.939 162.832C128.827 163.441 129.23 164.026 129.839 164.139L205.7 178.117C206.309 178.229 206.894 177.826 207.007 177.217L226.038 73.9297C226.15 73.3204 225.747 72.7355 225.138 72.6232L149.277 58.6454C148.668 58.5331 148.083 58.936 147.97 59.5453Z" fill="#F7A9B4"/>
<path d="M214.439 85.2635H214.33L195.344 81.7586C195.264 81.7443 195.188 81.7144 195.12 81.6707C195.052 81.627 194.993 81.5703 194.947 81.5038C194.901 81.4374 194.868 81.3625 194.851 81.2834C194.834 81.2044 194.832 81.1227 194.847 81.0431C194.861 80.9634 194.891 80.8874 194.935 80.8193C194.978 80.7512 195.035 80.6924 195.101 80.6463C195.168 80.6001 195.243 80.5675 195.322 80.5502C195.401 80.533 195.483 80.5315 195.562 80.5458L214.548 84.0447C214.709 84.0591 214.857 84.1369 214.961 84.2609C215.064 84.3848 215.114 84.5448 215.1 84.7056C215.085 84.8665 215.008 85.0149 214.884 85.1184C214.76 85.2219 214.6 85.2719 214.439 85.2574V85.2635Z" fill="white"/>
<path d="M213.323 91.3334H213.214L194.222 87.8346C194.061 87.8048 193.919 87.7124 193.826 87.5776C193.734 87.4429 193.698 87.2768 193.728 87.116C193.758 86.9552 193.85 86.8128 193.985 86.7201C194.12 86.6274 194.286 86.5921 194.447 86.6218L213.432 90.1206C213.512 90.1278 213.589 90.1506 213.66 90.1877C213.731 90.2248 213.794 90.2755 213.845 90.3368C213.896 90.3982 213.935 90.4691 213.959 90.5454C213.983 90.6217 213.991 90.702 213.984 90.7816C213.977 90.8612 213.954 90.9387 213.917 91.0095C213.88 91.0803 213.829 91.1431 213.768 91.1944C213.707 91.2456 213.636 91.2843 213.559 91.3081C213.483 91.332 213.403 91.3406 213.323 91.3334Z" fill="white"/>
<path d="M212.11 97.9248H211.995L193.009 94.426C192.849 94.397 192.706 94.3054 192.613 94.1712C192.519 94.037 192.483 93.8712 192.512 93.7104C192.541 93.5496 192.633 93.4069 192.767 93.3136C192.901 93.2204 193.067 93.1842 193.228 93.2132L212.22 96.7181C212.38 96.7326 212.529 96.8103 212.632 96.9343C212.736 97.0582 212.786 97.2182 212.771 97.379C212.757 97.5399 212.679 97.6884 212.555 97.7918C212.431 97.8953 212.271 97.9453 212.11 97.9309V97.9248Z" fill="white"/>
<path opacity="0.14" d="M155.662 61.1206L149.214 96.114C149.093 96.7727 149.529 97.4051 150.187 97.5265L182.724 103.522C183.383 103.643 184.015 103.207 184.136 102.549L190.584 67.5551C190.705 66.8964 190.27 66.2641 189.611 66.1427L157.075 60.1476C156.416 60.0263 155.784 60.4619 155.662 61.1206Z" fill="#3E479B"/>
<path d="M155.639 61.2306L149.534 94.3635C149.412 95.0222 149.848 95.6546 150.507 95.7759L181.528 101.492C182.187 101.613 182.82 101.178 182.941 100.519L189.046 67.3861C189.167 66.7274 188.732 66.095 188.073 65.9736L157.051 60.2577C156.392 60.1363 155.76 60.5719 155.639 61.2306Z" fill="#599AF2"/>
<path opacity="0.07" d="M188.48 70.5223L155.074 64.3675L155.68 61.2083C155.708 61.0555 155.766 60.9097 155.85 60.7794C155.934 60.649 156.044 60.5366 156.172 60.4486C156.3 60.3607 156.444 60.299 156.596 60.267C156.748 60.235 156.904 60.2334 157.057 60.2623L188.183 65.9987C188.329 66.0257 188.469 66.0813 188.594 66.1624C188.719 66.2434 188.827 66.3484 188.911 66.4711C188.996 66.5939 189.055 66.7321 189.086 66.8779C189.117 67.0236 189.119 67.1741 189.092 67.3206L188.48 70.5223Z" fill="#ECF1F7"/>
<path d="M164.418 80.843C164.18 80.8418 163.943 80.8195 163.709 80.7763L163.242 80.6914C162.061 80.4732 161.014 79.7952 160.332 78.8061C159.65 77.8171 159.388 76.5978 159.604 75.4158L160.774 69.0852C160.823 68.853 160.96 68.6491 161.157 68.5168C161.354 68.3845 161.595 68.3344 161.828 68.3771C162.061 68.4198 162.269 68.552 162.406 68.7455C162.543 68.9389 162.6 69.1783 162.563 69.4127L161.393 75.7433C161.263 76.4508 161.42 77.1807 161.828 77.7729C162.236 78.3651 162.862 78.7714 163.57 78.9025L164.03 78.9874C164.58 79.0883 165.148 78.9669 165.608 78.6496C166.069 78.3324 166.385 77.8455 166.486 77.2956L169.458 61.275C169.562 60.7073 169.437 60.1214 169.109 59.6461C168.782 59.1707 168.279 58.8449 167.711 58.7403L166.923 58.5948C166.624 58.5396 166.318 58.5438 166.021 58.6072C165.724 58.6706 165.442 58.792 165.192 58.9643C164.942 59.1367 164.728 59.3566 164.563 59.6116C164.398 59.8666 164.285 60.1516 164.23 60.4503L164.158 60.8445C164.109 61.0766 163.972 61.2806 163.775 61.4129C163.578 61.5451 163.337 61.5952 163.104 61.5525C162.87 61.5098 162.663 61.3777 162.526 61.1842C162.388 60.9908 162.332 60.7514 162.369 60.517L162.442 60.1168C162.642 59.041 163.261 58.0885 164.162 57.468C165.063 56.8474 166.174 56.6093 167.25 56.8059L168.039 56.9515C169.081 57.1431 170.004 57.7407 170.605 58.6128C171.207 59.485 171.437 60.5603 171.246 61.6024L168.281 77.617C168.114 78.5207 167.637 79.3377 166.932 79.9267C166.226 80.5158 165.337 80.8399 164.418 80.843Z" fill="#3E479B"/>
<path d="M167.578 67.3873H167.523L155.395 65.1558C155.317 65.1411 155.247 65.0959 155.202 65.03C155.156 64.9641 155.139 64.8829 155.153 64.8041C155.159 64.7643 155.173 64.726 155.194 64.6917C155.215 64.6573 155.242 64.6276 155.275 64.6044C155.308 64.5811 155.346 64.5648 155.385 64.5564C155.424 64.548 155.465 64.5477 155.505 64.5555L167.632 66.7931C167.672 66.7967 167.711 66.8081 167.746 66.8266C167.782 66.8452 167.813 66.8705 167.839 66.9012C167.864 66.9319 167.884 66.9673 167.895 67.0055C167.907 67.0436 167.912 67.0838 167.908 67.1236C167.905 67.1634 167.893 67.2021 167.875 67.2375C167.856 67.2729 167.831 67.3043 167.8 67.33C167.769 67.3556 167.734 67.3749 167.696 67.3868C167.658 67.3988 167.617 67.403 167.578 67.3995V67.3873Z" fill="white"/>
<path d="M204.628 130.051H204.519L146.494 119.354C146.414 119.34 146.338 119.309 146.27 119.265C146.202 119.221 146.144 119.164 146.098 119.097C146.052 119.031 146.02 118.956 146.003 118.876C145.986 118.797 145.985 118.715 146 118.636C146.014 118.556 146.045 118.48 146.089 118.412C146.133 118.344 146.19 118.286 146.256 118.24C146.323 118.194 146.398 118.162 146.478 118.145C146.557 118.128 146.638 118.127 146.718 118.142L204.737 128.832C204.898 128.847 205.046 128.924 205.15 129.048C205.253 129.172 205.303 129.332 205.289 129.493C205.274 129.654 205.196 129.802 205.072 129.906C204.948 130.009 204.789 130.059 204.628 130.045V130.051Z" fill="white"/>
<path d="M200.492 152.554C200.456 152.56 200.419 152.56 200.383 152.554L142.358 141.863C142.279 141.849 142.203 141.818 142.135 141.774C142.067 141.73 142.008 141.673 141.962 141.606C141.916 141.54 141.884 141.465 141.867 141.385C141.85 141.306 141.849 141.224 141.864 141.145C141.879 141.065 141.909 140.989 141.953 140.921C141.997 140.853 142.054 140.795 142.121 140.749C142.188 140.703 142.263 140.671 142.342 140.654C142.421 140.637 142.503 140.636 142.583 140.651L200.601 151.347C200.762 151.362 200.911 151.439 201.014 151.563C201.118 151.687 201.168 151.847 201.153 152.008C201.139 152.169 201.061 152.317 200.937 152.421C200.813 152.524 200.653 152.574 200.492 152.56V152.554Z" fill="white"/>
<path d="M171.974 135.66H171.883L144.45 130.603C144.289 130.573 144.147 130.481 144.054 130.346C143.962 130.211 143.926 130.045 143.956 129.884C143.986 129.723 144.078 129.581 144.213 129.488C144.348 129.396 144.514 129.36 144.675 129.39L172.101 134.447C172.262 134.462 172.411 134.539 172.514 134.663C172.618 134.787 172.668 134.947 172.653 135.108C172.639 135.269 172.561 135.418 172.437 135.521C172.313 135.624 172.153 135.674 171.992 135.66H171.974Z" fill="white"/>
<path d="M175.752 115.158H175.643L148.234 110.095C148.073 110.066 147.93 109.974 147.837 109.84C147.744 109.706 147.708 109.54 147.737 109.379C147.766 109.219 147.857 109.076 147.992 108.983C148.126 108.889 148.292 108.853 148.452 108.882L175.879 113.939C176.04 113.954 176.188 114.032 176.292 114.156C176.395 114.28 176.445 114.439 176.431 114.6C176.416 114.761 176.339 114.91 176.215 115.013C176.091 115.117 175.931 115.167 175.77 115.152L175.752 115.158Z" fill="white"/>
<path d="M202.584 141.214C202.546 141.22 202.507 141.22 202.469 141.214L176.34 136.4C176.179 136.371 176.036 136.279 175.943 136.145C175.85 136.011 175.814 135.845 175.843 135.684C175.872 135.523 175.963 135.381 176.097 135.287C176.232 135.194 176.397 135.158 176.558 135.187L202.693 140.008C202.854 140.022 203.003 140.1 203.106 140.224C203.21 140.348 203.26 140.508 203.245 140.669C203.231 140.83 203.153 140.978 203.029 141.082C202.905 141.185 202.745 141.235 202.584 141.221V141.214Z" fill="white"/>
<path d="M235.565 33.9453H185.611C184.098 33.9453 182.871 35.1724 182.871 36.6862V51.9913C182.871 53.505 184.098 54.7321 185.611 54.7321H235.565C237.079 54.7321 238.306 53.505 238.306 51.9913V36.6862C238.306 35.1724 237.079 33.9453 235.565 33.9453Z" fill="white"/>
<path opacity="0.74" d="M235.565 33.9453H185.611C184.098 33.9453 182.871 35.1724 182.871 36.6862V51.9913C182.871 53.505 184.098 54.7321 185.611 54.7321H235.565C237.079 54.7321 238.306 53.505 238.306 51.9913V36.6862C238.306 35.1724 237.079 33.9453 235.565 33.9453Z" fill="#6D6CD4"/>
<path d="M220.709 46.7764C220.229 46.7764 219.76 46.6341 219.361 46.3676C218.963 46.1011 218.652 45.7223 218.468 45.2791C218.285 44.8359 218.236 44.3482 218.33 43.8776C218.424 43.4071 218.655 42.975 218.994 42.6357C219.333 42.2965 219.765 42.0655 220.236 41.9719C220.706 41.8783 221.194 41.9264 221.637 42.1099C222.08 42.2935 222.459 42.6044 222.726 43.0033C222.992 43.4022 223.135 43.8711 223.135 44.3508C223.135 44.9941 222.879 45.6111 222.424 46.066C221.969 46.5208 221.352 46.7764 220.709 46.7764ZM220.709 42.562C220.349 42.562 219.997 42.6687 219.698 42.8686C219.399 43.0685 219.166 43.3526 219.028 43.685C218.891 44.0174 218.855 44.3832 218.925 44.7361C218.995 45.0889 219.168 45.4131 219.423 45.6675C219.677 45.9219 220.001 46.0952 220.354 46.1654C220.707 46.2356 221.073 46.1995 221.405 46.0618C221.738 45.9242 222.022 45.691 222.222 45.3918C222.421 45.0927 222.528 44.741 222.528 44.3812C222.528 43.8987 222.336 43.436 221.995 43.0948C221.654 42.7537 221.191 42.562 220.709 42.562Z" fill="white"/>
<path d="M210.776 46.7764C210.297 46.7764 209.828 46.6341 209.429 46.3676C209.03 46.1011 208.719 45.7223 208.535 45.2791C208.352 44.8359 208.304 44.3482 208.397 43.8776C208.491 43.4071 208.722 42.975 209.061 42.6357C209.4 42.2965 209.833 42.0655 210.303 41.9719C210.774 41.8783 211.261 41.9264 211.705 42.1099C212.148 42.2935 212.527 42.6044 212.793 43.0033C213.06 43.4022 213.202 43.8711 213.202 44.3508C213.202 44.9941 212.946 45.6111 212.491 46.066C212.037 46.5208 211.42 46.7764 210.776 46.7764ZM210.776 42.562C210.417 42.562 210.065 42.6687 209.766 42.8686C209.467 43.0685 209.233 43.3526 209.096 43.685C208.958 44.0174 208.922 44.3832 208.992 44.7361C209.062 45.0889 209.236 45.4131 209.49 45.6675C209.744 45.9219 210.069 46.0952 210.421 46.1654C210.774 46.2356 211.14 46.1995 211.473 46.0618C211.805 45.9242 212.089 45.691 212.289 45.3918C212.489 45.0927 212.596 44.741 212.596 44.3812C212.596 43.8987 212.404 43.436 212.063 43.0948C211.722 42.7537 211.259 42.562 210.776 42.562Z" fill="white"/>
<path d="M201.511 46.7764C201.031 46.7764 200.562 46.6341 200.163 46.3676C199.764 46.1011 199.454 45.7223 199.27 45.2791C199.086 44.8359 199.038 44.3482 199.132 43.8776C199.226 43.4071 199.457 42.975 199.796 42.6357C200.135 42.2965 200.567 42.0655 201.038 41.9719C201.508 41.8783 201.996 41.9264 202.439 42.1099C202.882 42.2935 203.261 42.6044 203.528 43.0033C203.794 43.4022 203.936 43.8711 203.936 44.3508C203.936 44.9941 203.681 45.6111 203.226 46.066C202.771 46.5208 202.154 46.7764 201.511 46.7764ZM201.511 42.562C201.151 42.562 200.799 42.6687 200.5 42.8686C200.201 43.0685 199.968 43.3526 199.83 43.685C199.692 44.0174 199.656 44.3832 199.727 44.7361C199.797 45.0889 199.97 45.4131 200.225 45.6675C200.479 45.9219 200.803 46.0952 201.156 46.1654C201.509 46.2356 201.875 46.1995 202.207 46.0618C202.539 45.9242 202.824 45.691 203.023 45.3918C203.223 45.0927 203.33 44.741 203.33 44.3812C203.33 43.8987 203.138 43.436 202.797 43.0948C202.456 42.7537 201.993 42.562 201.511 42.562Z" fill="white"/>
<path d="M64.0984 8.65308H141.497C141.868 8.65229 142.235 8.72463 142.578 8.86598C142.921 9.00732 143.232 9.21489 143.495 9.4768C143.757 9.73871 143.966 10.0498 144.108 10.3923C144.25 10.7348 144.323 11.102 144.323 11.4728V125.473C144.325 126.753 144.074 128.02 143.585 129.203C143.096 130.386 142.379 131.461 141.475 132.367C140.57 133.272 139.496 133.991 138.314 134.481C137.132 134.971 135.864 135.223 134.584 135.223H80.8407C75.3384 135.222 70.062 133.035 66.1718 129.144C62.2817 125.252 60.0963 119.975 60.0963 114.473V12.6613C60.0955 12.1352 60.1984 11.6141 60.3992 11.1279C60.6 10.6416 60.8947 10.1997 61.2664 9.82742C61.6381 9.45515 62.0795 9.15981 62.5655 8.95831C63.0515 8.7568 63.5724 8.65308 64.0984 8.65308Z" fill="white"/>
<path opacity="0.39" d="M61.0787 8.65308H142.807C143.208 8.65307 143.593 8.81196 143.877 9.09495C144.161 9.37793 144.321 9.76197 144.323 10.163V125.928C144.325 127.148 144.086 128.356 143.62 129.484C143.154 130.612 142.47 131.637 141.608 132.5C140.746 133.363 139.722 134.048 138.595 134.516C137.468 134.983 136.259 135.223 135.039 135.223H78.9973C76.5147 135.223 74.0564 134.734 71.7628 133.784C69.4692 132.834 67.3853 131.441 65.6301 129.685C63.8749 127.93 62.4828 125.845 61.5333 123.551C60.5838 121.257 60.0955 118.799 60.0963 116.316V9.63542C60.0963 9.37489 60.1998 9.12502 60.384 8.9408C60.5683 8.75657 60.8181 8.65308 61.0787 8.65308Z" fill="#6D6CD4"/>
<path opacity="0.39" d="M68.2462 8.65308H143.128C143.45 8.65308 143.759 8.78085 143.986 9.00829C144.213 9.23573 144.341 9.5442 144.341 9.86584V126.291C144.332 128.667 143.38 130.941 141.695 132.616C140.01 134.29 137.73 135.228 135.355 135.223H86.1648C81.235 135.22 76.5083 133.259 73.0242 129.772C69.54 126.284 67.5836 121.555 67.5852 116.626V9.29585C67.5929 9.12472 67.6656 8.96296 67.7884 8.84353C67.9112 8.7241 68.0749 8.65599 68.2462 8.65308Z" fill="#3E479B"/>
<path d="M79.3308 135.223H146.985C150.724 135.223 154.31 133.738 156.954 131.094C159.598 128.45 161.083 124.864 161.083 121.125V115.758H92.6652V121.119C92.672 124.73 91.2927 128.207 88.8116 130.831C86.3306 133.456 82.937 135.028 79.3308 135.223Z" fill="#6161B5"/>
<g opacity="0.28">
<path d="M88.2992 135.223H148.531C155.462 135.223 161.083 128.911 161.083 121.125V115.758H100.172V121.119C100.172 128.644 94.9148 134.799 88.2992 135.223Z" fill="#3E479B"/>
</g>
<path d="M131.54 101.175H82.8963C82.7355 101.175 82.5812 101.111 82.4675 100.997C82.3538 100.884 82.2899 100.729 82.2899 100.569C82.2899 100.408 82.3538 100.254 82.4675 100.14C82.5812 100.026 82.7355 99.9622 82.8963 99.9622H131.54C131.701 99.9622 131.855 100.026 131.969 100.14C132.083 100.254 132.147 100.408 132.147 100.569C132.147 100.729 132.083 100.884 131.969 100.997C131.855 101.111 131.701 101.175 131.54 101.175Z" fill="white"/>
<path d="M132.559 80.6914H81.9868C81.8259 80.6914 81.6717 80.6275 81.558 80.5138C81.4443 80.4001 81.3804 80.2458 81.3804 80.085C81.3804 79.9242 81.4443 79.7699 81.558 79.6562C81.6717 79.5425 81.8259 79.4786 81.9868 79.4786H132.559C132.72 79.4786 132.874 79.5425 132.988 79.6562C133.102 79.7699 133.165 79.9242 133.165 80.085C133.165 80.2458 133.102 80.4001 132.988 80.5138C132.874 80.6275 132.72 80.6914 132.559 80.6914Z" fill="white"/>
<path d="M107.218 90.9211H81.3743C81.2135 90.9211 81.0593 90.8572 80.9455 90.7435C80.8318 90.6297 80.7679 90.4755 80.7679 90.3147C80.7679 90.1539 80.8318 89.9996 80.9455 89.8859C81.0593 89.7722 81.2135 89.7083 81.3743 89.7083H107.218C107.379 89.7083 107.533 89.7722 107.647 89.8859C107.761 89.9996 107.825 90.1539 107.825 90.3147C107.825 90.4755 107.761 90.6297 107.647 90.7435C107.533 90.8572 107.379 90.9211 107.218 90.9211Z" fill="white"/>
<path d="M105.26 90.9211H83.3511C83.1903 90.9211 83.0361 90.8572 82.9224 90.7435C82.8086 90.6297 82.7448 90.4755 82.7448 90.3147C82.7448 90.1539 82.8086 89.9996 82.9224 89.8859C83.0361 89.7722 83.1903 89.7083 83.3511 89.7083H105.278C105.439 89.7083 105.593 89.7722 105.707 89.8859C105.82 89.9996 105.884 90.1539 105.884 90.3147C105.884 90.4755 105.82 90.6297 105.707 90.7435C105.593 90.8572 105.439 90.9211 105.278 90.9211H105.26Z" fill="white"/>
<path d="M115.629 58.8191H82.3384C82.1776 58.8191 82.0234 58.7553 81.9097 58.6415C81.7959 58.5278 81.7321 58.3736 81.7321 58.2128C81.7321 58.0519 81.7959 57.8977 81.9097 57.784C82.0234 57.6703 82.1776 57.6064 82.3384 57.6064H115.629C115.79 57.6064 115.944 57.6703 116.058 57.784C116.171 57.8977 116.235 58.0519 116.235 58.2128C116.235 58.3736 116.171 58.5278 116.058 58.6415C115.944 58.7553 115.79 58.8191 115.629 58.8191Z" fill="white"/>
<path d="M131.061 58.8191H120.947C120.786 58.8191 120.632 58.7553 120.518 58.6415C120.404 58.5278 120.34 58.3736 120.34 58.2128C120.34 58.0519 120.404 57.8977 120.518 57.784C120.632 57.6703 120.786 57.6064 120.947 57.6064H131.086C131.246 57.6064 131.401 57.6703 131.514 57.784C131.628 57.8977 131.692 58.0519 131.692 58.2128C131.692 58.3736 131.628 58.5278 131.514 58.6415C131.401 58.7553 131.246 58.8191 131.086 58.8191H131.061Z" fill="white"/>
<path d="M132.559 69.0246H96.5096C96.3488 69.0246 96.1945 68.9607 96.0808 68.847C95.9671 68.7332 95.9032 68.579 95.9032 68.4182C95.9032 68.2574 95.9671 68.1031 96.0808 67.9894C96.1945 67.8757 96.3488 67.8118 96.5096 67.8118H132.559C132.72 67.8118 132.874 67.8757 132.988 67.9894C133.102 68.1031 133.165 68.2574 133.165 68.4182C133.165 68.579 133.102 68.7332 132.988 68.847C132.874 68.9607 132.72 69.0246 132.559 69.0246Z" fill="white"/>
<path d="M92.9502 69.0246H81.9868C81.8259 69.0246 81.6717 68.9607 81.558 68.847C81.4443 68.7332 81.3804 68.579 81.3804 68.4182C81.3804 68.2574 81.4443 68.1031 81.558 67.9894C81.6717 67.8757 81.8259 67.8118 81.9868 67.8118H92.9502C93.111 67.8118 93.2652 67.8757 93.3789 67.9894C93.4927 68.1031 93.5565 68.2574 93.5565 68.4182C93.5565 68.579 93.4927 68.7332 93.3789 68.847C93.2652 68.9607 93.111 69.0246 92.9502 69.0246Z" fill="white"/>
<path d="M131.54 50.1297H82.8963C82.7355 50.1297 82.5812 50.0658 82.4675 49.9521C82.3538 49.8384 82.2899 49.6841 82.2899 49.5233C82.2899 49.3625 82.3538 49.2082 82.4675 49.0945C82.5812 48.9808 82.7355 48.9169 82.8963 48.9169H131.54C131.701 48.9169 131.855 48.9808 131.969 49.0945C132.083 49.2082 132.147 49.3625 132.147 49.5233C132.147 49.6841 132.083 49.8384 131.969 49.9521C131.855 50.0658 131.701 50.1297 131.54 50.1297Z" fill="white"/>
<path d="M131.54 29.6461H82.8963C82.7355 29.6461 82.5812 29.5822 82.4675 29.4684C82.3538 29.3547 82.2899 29.2005 82.2899 29.0397C82.2899 28.8788 82.3538 28.7246 82.4675 28.6109C82.5812 28.4972 82.7355 28.4333 82.8963 28.4333H131.54C131.701 28.4333 131.855 28.4972 131.969 28.6109C132.083 28.7246 132.147 28.8788 132.147 29.0397C132.147 29.2005 132.083 29.3547 131.969 29.4684C131.855 29.5822 131.701 29.6461 131.54 29.6461Z" fill="white"/>
<path d="M100.748 39.8818H82.3384C82.1776 39.8818 82.0234 39.8179 81.9097 39.7042C81.7959 39.5905 81.7321 39.4362 81.7321 39.2754C81.7321 39.1146 81.7959 38.9604 81.9097 38.8466C82.0234 38.7329 82.1776 38.669 82.3384 38.669H100.748C100.909 38.669 101.063 38.7329 101.177 38.8466C101.291 38.9604 101.355 39.1146 101.355 39.2754C101.355 39.4362 101.291 39.5905 101.177 39.7042C101.063 39.8179 100.909 39.8818 100.748 39.8818Z" fill="white"/>
<path d="M131.171 39.8818H109.244C109.083 39.8818 108.929 39.8179 108.815 39.7042C108.701 39.5905 108.637 39.4362 108.637 39.2754C108.637 39.1146 108.701 38.9604 108.815 38.8466C108.929 38.7329 109.083 38.669 109.244 38.669H131.171C131.331 38.669 131.486 38.7329 131.599 38.8466C131.713 38.9604 131.777 39.1146 131.777 39.2754C131.777 39.4362 131.713 39.5905 131.599 39.7042C131.486 39.8179 131.331 39.8818 131.171 39.8818Z" fill="white"/>
<path opacity="0.21" d="M196.579 110.738C211.567 95.7503 211.567 71.4507 196.579 56.4632C181.592 41.4757 157.292 41.4757 142.305 56.4632C127.317 71.4507 127.317 95.7503 142.305 110.738C157.292 125.725 181.592 125.725 196.579 110.738Z" fill="white"/>
<path opacity="0.76" d="M139.369 86.3611C138.725 86.3611 138.109 86.1055 137.654 85.6506C137.199 85.1958 136.943 84.5788 136.943 83.9355C136.958 74.6278 140.661 65.7053 147.242 59.1231C153.823 52.5409 162.745 48.8359 172.053 48.8199C172.696 48.8199 173.313 49.0754 173.768 49.5303C174.223 49.9852 174.478 50.6021 174.478 51.2454C174.478 51.8887 174.223 52.5057 173.768 52.9605C173.313 53.4154 172.696 53.6709 172.053 53.6709C164.032 53.687 156.344 56.8809 150.672 62.5533C145.001 68.2257 141.809 75.9143 141.794 83.9355C141.794 84.5788 141.539 85.1958 141.084 85.6506C140.629 86.1055 140.012 86.3611 139.369 86.3611Z" fill="white"/>
<path opacity="0.58" d="M169.457 123.193C161.627 123.192 153.974 120.869 147.464 116.518C140.954 112.167 135.88 105.983 132.885 98.7485C129.889 91.5142 129.106 83.554 130.634 75.8745C132.163 68.1951 135.934 61.1413 141.471 55.605C147.008 50.0687 154.062 46.2987 161.742 44.7716C169.422 43.2444 177.382 44.0288 184.616 47.0255C191.85 50.0222 198.032 55.0967 202.382 61.6072C206.732 68.1177 209.054 75.772 209.054 83.602C209.041 94.0992 204.865 104.163 197.442 111.585C190.019 119.007 179.955 123.182 169.457 123.193ZM169.457 46.4368C162.107 46.438 154.922 48.6187 148.811 52.7032C142.7 56.7877 137.938 62.5926 135.126 69.3837C132.314 76.1749 131.578 83.6474 133.013 90.8563C134.448 98.0653 137.988 104.687 143.186 109.884C148.384 115.081 155.006 118.62 162.215 120.054C169.424 121.487 176.897 120.751 183.687 117.938C190.478 115.124 196.282 110.361 200.366 104.249C204.449 98.1376 206.629 90.9523 206.629 83.602C206.618 73.7476 202.697 64.3001 195.729 57.3325C188.76 50.3649 179.312 46.4464 169.457 46.4368Z" fill="#3E479B"/>
<path d="M204.719 111.101C204.775 111.046 204.836 110.995 204.901 110.95C211.882 101.923 215.166 90.5779 214.086 79.2178C213.006 67.8577 207.644 57.3343 199.087 49.7845C190.53 42.2347 179.421 38.2244 168.015 38.5679C156.608 38.9114 145.76 43.5831 137.674 51.6341C129.587 59.6852 124.867 70.5122 124.473 81.9167C124.079 93.3212 128.039 104.448 135.551 113.039C143.063 121.629 153.562 127.038 164.918 128.168C176.273 129.299 187.633 126.065 196.69 119.124L201.875 113.945L204.719 111.101ZM169.458 121.98C161.867 121.979 154.448 119.727 148.138 115.509C141.827 111.291 136.909 105.297 134.005 98.2844C131.101 91.2717 130.342 83.5553 131.824 76.1111C133.305 68.6669 136.961 61.8292 142.328 56.4625C147.696 51.0959 154.534 47.4413 161.979 45.961C169.423 44.4807 177.139 45.241 184.152 48.146C191.164 51.0509 197.157 55.9699 201.374 62.281C205.591 68.5921 207.842 76.0118 207.842 83.602C207.84 93.781 203.795 103.543 196.597 110.74C189.399 117.937 179.637 121.98 169.458 121.98Z" fill="#3E479B"/>
<path d="M169.457 128.996C160.479 128.996 151.703 126.334 144.238 121.346C136.773 116.358 130.955 109.268 127.519 100.973C124.083 92.6788 123.184 83.5517 124.936 74.7461C126.687 65.9406 131.011 57.8522 137.359 51.5037C143.708 45.1553 151.796 40.8319 160.602 39.0804C169.407 37.3289 178.534 38.2278 186.829 41.6636C195.124 45.0993 202.213 50.9176 207.201 58.3826C212.189 65.8475 214.851 74.624 214.851 83.602C214.883 93.6376 211.555 103.395 205.398 111.32L205.283 111.435L205.167 111.526L197.078 119.603C189.172 125.718 179.453 129.023 169.457 128.996ZM169.457 39.4149C157.74 39.4149 146.502 44.0697 138.217 52.3552C129.931 60.6408 125.276 71.8784 125.276 83.596C125.276 95.3135 129.931 106.551 138.217 114.837C146.502 123.122 157.74 127.777 169.457 127.777C179.169 127.808 188.615 124.608 196.308 118.681L204.306 110.683C204.363 110.626 204.423 110.573 204.488 110.525C210.448 102.823 213.668 93.3529 213.639 83.6141C213.63 71.8974 208.974 60.6625 200.69 52.3758C192.407 44.0891 181.174 39.4277 169.457 39.4149ZM169.457 122.58C161.747 122.579 154.211 120.292 147.801 116.007C141.39 111.723 136.395 105.634 133.445 98.5104C130.495 91.3869 129.724 83.5486 131.229 75.9868C132.734 68.4249 136.447 61.4792 141.9 56.0277C147.352 50.5763 154.298 46.8639 161.86 45.3602C169.422 43.8565 177.26 44.6289 184.384 47.5797C191.507 50.5305 197.595 55.5272 201.878 61.938C206.162 68.3488 208.448 75.8858 208.448 83.596C208.438 93.9339 204.327 103.846 197.017 111.156C189.707 118.466 179.795 122.577 169.457 122.586V122.58ZM169.457 45.8244C161.987 45.8256 154.685 48.0418 148.474 52.193C142.264 56.3441 137.423 62.2436 134.565 69.1456C131.707 76.0475 130.96 83.642 132.418 90.9685C133.877 98.2951 137.474 105.025 142.757 110.307C148.04 115.588 154.77 119.185 162.097 120.642C169.424 122.099 177.018 121.351 183.919 118.492C190.821 115.633 196.72 110.791 200.87 104.58C205.02 98.3687 207.235 91.0662 207.235 83.596C207.222 73.5818 203.238 63.9816 196.155 56.9016C189.073 49.8216 179.472 45.84 169.457 45.8304V45.8244Z" fill="#3E479B"/>
<path d="M203.609 118.099L201.875 116.365C201.714 116.206 201.587 116.018 201.499 115.809C201.412 115.601 201.368 115.378 201.368 115.152C201.368 114.926 201.412 114.703 201.499 114.495C201.587 114.287 201.714 114.098 201.875 113.939L196.69 119.118L196.605 119.203C196.445 119.362 196.318 119.551 196.232 119.759C196.145 119.967 196.101 120.19 196.101 120.416C196.101 120.641 196.145 120.864 196.232 121.072C196.318 121.28 196.445 121.469 196.605 121.628L198.715 123.738C199.413 122.574 201.444 120.288 203.609 118.099Z" fill="#4C65BA"/>
<path d="M201.875 113.945C201.714 114.104 201.587 114.293 201.5 114.501C201.413 114.709 201.368 114.933 201.368 115.158C201.368 115.384 201.413 115.607 201.5 115.815C201.587 116.024 201.714 116.212 201.875 116.371L203.609 118.105C205.327 116.303 207.182 114.637 209.157 113.121L207.138 111.108C206.847 110.816 206.459 110.64 206.048 110.612C205.636 110.584 205.229 110.706 204.901 110.956C204.836 111.001 204.775 111.052 204.719 111.108L201.875 113.945Z" fill="#4C65BA"/>
<path opacity="0.43" d="M201.875 113.945C201.714 114.104 201.587 114.293 201.5 114.501C201.413 114.709 201.368 114.933 201.368 115.158C201.368 115.384 201.413 115.607 201.5 115.815C201.587 116.024 201.714 116.212 201.875 116.371L203.609 118.105C205.327 116.303 207.182 114.637 209.157 113.121L207.138 111.108C206.847 110.816 206.459 110.64 206.048 110.612C205.636 110.584 205.229 110.706 204.901 110.956C204.836 111.001 204.775 111.052 204.719 111.108L201.875 113.945Z" fill="#3E479B"/>
<path d="M241.653 144.628L210.121 112.745C210.012 112.63 209.667 112.781 209.169 113.115C207.194 114.631 205.339 116.297 203.621 118.099C201.456 120.288 199.425 122.574 198.728 123.738C198.503 124.121 198.412 124.381 198.515 124.478L230.047 156.362C230.805 157.132 231.709 157.744 232.706 158.162C233.702 158.58 234.772 158.795 235.853 158.795C236.934 158.795 238.004 158.58 239.001 158.162C239.998 157.744 240.902 157.132 241.659 156.362C243.197 154.796 244.059 152.689 244.057 150.494C244.056 148.299 243.193 146.193 241.653 144.628Z" fill="#599AF2"/>
<path opacity="0.14" d="M241.653 144.628L210.121 112.745C209.697 112.314 206.107 115.534 203.021 118.718C200.395 121.422 238.458 159.606 241.666 156.362C243.203 154.795 244.063 152.687 244.06 150.493C244.058 148.298 243.194 146.192 241.653 144.628Z" fill="#3E479B"/>
<path d="M126.665 127.698H75.0619C73.3282 127.698 71.6656 127.009 70.4397 125.784C69.2138 124.558 68.5251 122.895 68.5251 121.161V116.874C68.5259 116.012 68.3567 115.159 68.0273 114.363C67.6978 113.566 67.2146 112.843 66.6052 112.233C65.9958 111.624 65.2722 111.14 64.4758 110.811C63.6794 110.482 62.8259 110.312 61.964 110.313H38.1271C37.2653 110.312 36.4117 110.482 35.6154 110.811C34.819 111.14 34.0954 111.624 33.486 112.233C32.8765 112.843 32.3933 113.566 32.0639 114.363C31.7344 115.159 31.5652 116.012 31.566 116.874V184.989C31.566 186.61 32.21 188.165 33.3563 189.311C34.5026 190.458 36.0573 191.102 37.6784 191.102H126.665C128.286 191.102 129.841 190.458 130.987 189.311C132.133 188.165 132.777 186.61 132.777 184.989V133.817C132.778 133.013 132.621 132.218 132.314 131.476C132.007 130.733 131.557 130.059 130.989 129.491C130.422 128.922 129.748 128.472 129.006 128.164C128.264 127.856 127.468 127.698 126.665 127.698Z" fill="#F28393"/>
<path d="M120.983 127.698H69.4043C68.5454 127.699 67.6947 127.531 66.9009 127.202C66.1071 126.874 65.3858 126.393 64.7782 125.786C64.1705 125.179 63.6885 124.458 63.3596 123.664C63.0307 122.871 62.8614 122.02 62.8614 121.161V116.874C62.8622 116.012 62.6931 115.159 62.3636 114.363C62.0342 113.566 61.5509 112.843 60.9415 112.233C60.3321 111.624 59.6085 111.14 58.8121 110.811C58.0157 110.482 57.1622 110.312 56.3004 110.313H32.4149C30.6748 110.313 29.006 111.004 27.7756 112.235C26.5451 113.465 25.8539 115.134 25.8539 116.874V184.989C25.8539 185.794 26.0128 186.591 26.3215 187.334C26.6302 188.077 27.0826 188.752 27.6527 189.32C28.2229 189.888 28.8996 190.338 29.6439 190.643C30.3883 190.949 31.1858 191.105 31.9905 191.102H120.983C122.604 191.102 124.159 190.458 125.305 189.311C126.452 188.165 127.096 186.61 127.096 184.989V133.817C127.096 132.195 126.452 130.64 125.306 129.492C124.16 128.345 122.605 127.7 120.983 127.698Z" fill="#F28393"/>
<path opacity="0.12" d="M120.983 127.698H69.4043C68.5454 127.699 67.6947 127.531 66.9009 127.202C66.1071 126.874 65.3858 126.393 64.7782 125.786C64.1705 125.179 63.6885 124.458 63.3596 123.664C63.0307 122.871 62.8614 122.02 62.8614 121.161V116.874C62.8622 116.012 62.6931 115.159 62.3636 114.363C62.0342 113.566 61.5509 112.843 60.9415 112.233C60.3321 111.624 59.6085 111.14 58.8121 110.811C58.0157 110.482 57.1622 110.312 56.3004 110.313H32.4149C30.6748 110.313 29.006 111.004 27.7756 112.235C26.5451 113.465 25.8539 115.134 25.8539 116.874V184.989C25.8539 185.794 26.0128 186.591 26.3215 187.334C26.6302 188.077 27.0826 188.752 27.6527 189.32C28.2229 189.888 28.8996 190.338 29.6439 190.643C30.3883 190.949 31.1858 191.105 31.9905 191.102H120.983C122.604 191.102 124.159 190.458 125.305 189.311C126.452 188.165 127.096 186.61 127.096 184.989V133.817C127.096 132.195 126.452 130.64 125.306 129.492C124.16 128.345 122.605 127.7 120.983 127.698Z" fill="white"/>
<path opacity="0.12" d="M107.891 127.698H63.389C60.2783 127.698 57.7497 124.775 57.7497 121.161V116.874C57.7497 113.236 55.221 110.313 52.0921 110.313H31.5357C28.4129 110.313 25.8782 113.248 25.8782 116.874V184.989C25.8782 188.367 28.237 191.102 31.1476 191.102H107.891C110.802 191.102 113.167 188.367 113.167 184.989V133.817C113.167 130.439 110.802 127.698 107.891 127.698Z" fill="white"/>
<path d="M30.6443 134.514C30.4835 134.514 30.3293 134.45 30.2156 134.336C30.1019 134.223 30.038 134.068 30.038 133.908V119.027C30.0396 117.918 30.4809 116.854 31.2652 116.07C32.0495 115.286 33.1128 114.844 34.222 114.843H51.8071C51.9679 114.843 52.1222 114.907 52.2359 115.02C52.3496 115.134 52.4135 115.288 52.4135 115.449C52.4135 115.61 52.3496 115.764 52.2359 115.878C52.1222 115.992 51.9679 116.056 51.8071 116.056H34.2341C33.4466 116.057 32.6918 116.371 32.1349 116.928C31.578 117.485 31.2645 118.239 31.2629 119.027V133.908C31.2629 133.988 31.2468 134.068 31.2156 134.142C31.1843 134.217 31.1386 134.284 31.081 134.341C31.0234 134.397 30.9551 134.442 30.8801 134.471C30.8051 134.501 30.725 134.516 30.6443 134.514Z" fill="white"/>
</svg>
