<svg width="12" height="16" viewBox="0 0 12 16" fill="none" xmlns="http://www.w3.org/2000/svg">
<path d="M6.0007 7.75626C5.32075 7.75635 4.65604 7.5548 4.09063 7.17711C3.52522 6.79941 3.08452 6.26253 2.82424 5.63436C2.56397 5.00619 2.49583 4.31495 2.62842 3.64805C2.76102 2.98115 3.0884 2.36854 3.56917 1.88771C4.04994 1.40688 4.66249 1.07941 5.32938 0.946723C5.99626 0.814036 6.68751 0.882089 7.31572 1.14228C7.94392 1.40246 8.48087 1.84309 8.85864 2.40845C9.23641 2.9738 9.43805 3.63849 9.43805 4.31844C9.43718 5.22986 9.07477 6.10371 8.43034 6.74822C7.78592 7.39273 6.91212 7.75526 6.0007 7.75626ZM6.0007 1.87204C5.51672 1.87195 5.04357 2.01539 4.64112 2.28422C4.23866 2.55305 3.92496 2.93519 3.73971 3.38232C3.55445 3.82945 3.50595 4.32147 3.60035 4.79616C3.69475 5.27085 3.9278 5.70689 4.27003 6.04912C4.61226 6.39135 5.0483 6.6244 5.52299 6.7188C5.99768 6.81319 6.4897 6.7647 6.93683 6.57944C7.38396 6.39419 7.7661 6.08049 8.03493 5.67803C8.30376 5.27557 8.4472 4.80243 8.44711 4.31844C8.44637 3.66985 8.18838 3.04803 7.72975 2.5894C7.27112 2.13077 6.6493 1.87278 6.0007 1.87204ZM11.4884 15.1189H0.513047L0.0175781 14.6234C0.0175781 13.8377 0.172336 13.0597 0.473017 12.3338C0.773697 11.6079 1.21441 10.9483 1.76999 10.3927C2.32558 9.83715 2.98515 9.39644 3.71106 9.09576C4.43697 8.79508 5.21499 8.64032 6.0007 8.64032C6.78642 8.64032 7.56444 8.79508 8.29035 9.09576C9.01625 9.39644 9.67583 9.83715 10.2314 10.3927C10.787 10.9483 11.2277 11.6079 11.5284 12.3338C11.8291 13.0597 11.9838 13.8377 11.9838 14.6234L11.4884 15.1189ZM1.03195 14.128H10.9695C10.8483 12.8943 10.2725 11.7497 9.35408 10.9171C8.43567 10.0845 7.24035 9.62332 6.0007 9.62332C4.76105 9.62332 3.56574 10.0845 2.64733 10.9171C1.72892 11.7497 1.15312 12.8943 1.03195 14.128Z" fill="current"/>
</svg>
