<svg width="30" height="30" viewBox="0 0 30 30" fill="none" xmlns="http://www.w3.org/2000/svg">
<path d="M13.935 19.935C13.8705 20.0063 13.8104 20.0814 13.755 20.16C13.6982 20.2436 13.6528 20.3344 13.62 20.43C13.5768 20.515 13.5464 20.606 13.53 20.7C13.5226 20.7999 13.5226 20.9001 13.53 21C13.5249 21.1968 13.566 21.392 13.65 21.57C13.7174 21.7561 13.8249 21.9252 13.9648 22.0652C14.1048 22.2052 14.2739 22.3126 14.46 22.38C14.6396 22.4594 14.8337 22.5003 15.03 22.5003C15.2263 22.5003 15.4205 22.4594 15.6 22.38C15.7862 22.3126 15.9552 22.2052 16.0952 22.0652C16.2352 21.9252 16.3426 21.7561 16.41 21.57C16.4766 21.3876 16.5072 21.194 16.5 21C16.5012 20.8026 16.4633 20.6069 16.3887 20.4241C16.314 20.2414 16.204 20.0752 16.065 19.935C15.9256 19.7944 15.7597 19.6828 15.5769 19.6067C15.3941 19.5305 15.198 19.4913 15 19.4913C14.802 19.4913 14.6059 19.5305 14.4231 19.6067C14.2404 19.6828 14.0745 19.7944 13.935 19.935ZM15 0C12.0333 0 9.13319 0.879735 6.66645 2.52796C4.19972 4.17618 2.27713 6.51886 1.14181 9.25975C0.00649926 12.0006 -0.290551 15.0166 0.288228 17.9264C0.867006 20.8361 2.29562 23.5088 4.39341 25.6066C6.49119 27.7044 9.16394 29.133 12.0737 29.7118C14.9834 30.2906 17.9994 29.9935 20.7403 28.8582C23.4812 27.7229 25.8238 25.8003 27.4721 23.3336C29.1203 20.8668 30 17.9667 30 15C30 13.0302 29.612 11.0796 28.8582 9.25975C28.1044 7.43986 26.9995 5.78628 25.6066 4.3934C24.2137 3.00052 22.5601 1.89563 20.7403 1.14181C18.9204 0.387987 16.9698 0 15 0ZM15 27C12.6266 27 10.3066 26.2962 8.33316 24.9776C6.35977 23.6591 4.8217 21.7849 3.91345 19.5922C3.0052 17.3995 2.76756 14.9867 3.23058 12.6589C3.69361 10.3311 4.8365 8.19295 6.51473 6.51472C8.19296 4.83649 10.3312 3.6936 12.6589 3.23058C14.9867 2.76755 17.3995 3.00519 19.5922 3.91345C21.7849 4.8217 23.6591 6.35977 24.9776 8.33316C26.2962 10.3065 27 12.6266 27 15C27 18.1826 25.7357 21.2348 23.4853 23.4853C21.2349 25.7357 18.1826 27 15 27ZM15 7.5C14.2096 7.49949 13.433 7.70718 12.7484 8.10216C12.0637 8.49715 11.4952 9.06549 11.1 9.75C10.9915 9.92073 10.9186 10.1116 10.8858 10.3113C10.8529 10.5109 10.8608 10.7151 10.909 10.9116C10.9571 11.1081 11.0445 11.2928 11.1658 11.4547C11.2872 11.6165 11.4401 11.7521 11.6152 11.8534C11.7904 11.9546 11.9842 12.0194 12.185 12.0438C12.3858 12.0682 12.5895 12.0517 12.7838 11.9953C12.9781 11.9389 13.159 11.8439 13.3156 11.7158C13.4722 11.5877 13.6012 11.4293 13.695 11.25C13.8272 11.0211 14.0175 10.8312 14.2466 10.6995C14.4758 10.5678 14.7357 10.499 15 10.5C15.3978 10.5 15.7794 10.658 16.0607 10.9393C16.342 11.2206 16.5 11.6022 16.5 12C16.5 12.3978 16.342 12.7794 16.0607 13.0607C15.7794 13.342 15.3978 13.5 15 13.5C14.6022 13.5 14.2207 13.658 13.9393 13.9393C13.658 14.2206 13.5 14.6022 13.5 15V16.5C13.5 16.8978 13.658 17.2794 13.9393 17.5607C14.2207 17.842 14.6022 18 15 18C15.3978 18 15.7794 17.842 16.0607 17.5607C16.342 17.2794 16.5 16.8978 16.5 16.5V16.23C17.4921 15.87 18.326 15.1728 18.8562 14.2603C19.3863 13.3478 19.5788 12.2779 19.4001 11.2378C19.2214 10.1977 18.6828 9.25353 17.8785 8.57027C17.0742 7.88702 16.0553 7.50819 15 7.5Z" fill="#EFEFEF"/>
</svg>
