<svg width="16" height="23" viewBox="0 0 16 23" fill="none" xmlns="http://www.w3.org/2000/svg">
<path d="M15 20.3945H14V18.6945C14 18.0945 13.9 17.5945 13.7 16.9945V16.8945C13.5 16.4945 13.3 15.9945 13 15.6945L11.6 13.7945C11.2 13.2945 11 12.5945 11 11.9945V10.9945C11 10.1945 11.3 9.39453 11.9 8.89453L12.6 8.19453C13.4 7.39453 13.9 6.39453 14 5.39453C14 5.19453 14 4.99453 14 4.69453V2.39453H15C15.6 2.39453 16 1.99453 16 1.39453C16 0.794531 15.6 0.394531 15 0.394531H1C0.4 0.394531 0 0.794531 0 1.39453C0 1.99453 0.4 2.39453 1 2.39453H2V4.69453C2 4.99453 2 5.19453 2.1 5.39453C2.2 6.49453 2.7 7.49453 3.5 8.19453L4.2 8.89453C4.7 9.49453 5 10.2945 5 11.0945V12.0945C5 12.6945 4.8 13.3945 4.4 13.8945L3 15.6945C2.7 16.0945 2.5 16.4945 2.3 16.8945V16.9945C2.1 17.5945 2 18.1945 2 18.6945V20.3945H1C0.4 20.3945 0 20.7945 0 21.3945C0 21.9945 0.4 22.3945 1 22.3945H15C15.6 22.3945 16 21.9945 16 21.3945C16 20.7945 15.6 20.3945 15 20.3945ZM4 4.39453V2.39453H12V4.39453H4ZM5 16.3945L6 15.0945C6.6 14.2945 6.9 13.3945 7 12.3945H9C9.1 13.3945 9.4 14.2945 10 15.0945L11 16.3945H5Z" fill="white"/>
</svg>
