<svg width="18" height="18" viewBox="0 0 18 18" fill="none" xmlns="http://www.w3.org/2000/svg">
<path d="M12.5 11.5006H11.71L11.43 11.2306C12.63 9.83063 13.25 7.92063 12.91 5.89063C12.44 3.11063 10.12 0.890626 7.32001 0.550626C3.09001 0.0306256 -0.469985 3.59063 0.0500152 7.82063C0.390015 10.6206 2.61002 12.9406 5.39002 13.4106C7.42002 13.7506 9.33002 13.1306 10.73 11.9306L11 12.2106V13.0006L15.25 17.2506C15.66 17.6606 16.33 17.6606 16.74 17.2506C17.15 16.8406 17.15 16.1706 16.74 15.7606L12.5 11.5006ZM6.50002 11.5006C4.01002 11.5006 2.00002 9.49063 2.00002 7.00063C2.00002 4.51063 4.01002 2.50063 6.50002 2.50063C8.99002 2.50063 11 4.51063 11 7.00063C11 9.49063 8.99002 11.5006 6.50002 11.5006Z" fill="#3783FB"/>
</svg>
