<svg width="18" height="18" viewBox="0 0 28 24" fill="none" xmlns="http://www.w3.org/2000/svg">
<path fill-rule="evenodd" clip-rule="evenodd" d="M10.6753 2.40763e-08C8.97284 0.00014506 7.29514 0.407408 5.78213 1.18781C4.26912 1.96821 2.96467 3.09912 1.97762 4.48619C0.990567 5.87326 0.349534 7.47626 0.107999 9.16146C-0.133535 10.8467 0.0314335 12.5652 0.589142 14.1737C1.14685 15.7821 2.08113 17.2339 3.31402 18.4079C4.54692 19.5818 6.04269 20.4439 7.67653 20.9223C9.31037 21.4006 11.0349 21.4813 12.7063 21.1575C14.3776 20.8338 15.9473 20.1151 17.2844 19.0613L21.8714 23.6483C22.1083 23.8771 22.4256 24.0037 22.7549 24.0009C23.0842 23.998 23.3992 23.8659 23.6321 23.633C23.865 23.4002 23.9971 23.0851 24 22.7558C24.0028 22.4265 23.8762 22.1092 23.6474 21.8723L19.0604 17.2853C20.3014 15.7111 21.074 13.8192 21.29 11.8263C21.506 9.83344 21.1565 7.82 20.2816 6.01645C19.4067 4.2129 18.0417 2.6921 16.3428 1.62809C14.6439 0.564086 12.6798 -0.000134574 10.6753 2.40763e-08ZM2.51113 10.6762C2.51113 8.5109 3.37128 6.43433 4.90235 4.90325C6.43342 3.37218 8.50999 2.51204 10.6753 2.51204C12.8405 2.51204 14.9171 3.37218 16.4482 4.90325C17.9792 6.43433 18.8394 8.5109 18.8394 10.6762C18.8394 12.8414 17.9792 14.918 16.4482 16.4491C14.9171 17.9801 12.8405 18.8403 10.6753 18.8403C8.50999 18.8403 6.43342 17.9801 4.90235 16.4491C3.37128 14.918 2.51113 12.8414 2.51113 10.6762Z" fill="#ABABAB"/>
</svg>
