<svg width="20" height="22" viewBox="0 0 20 22" fill="none" xmlns="http://www.w3.org/2000/svg">
<path fill-rule="evenodd" clip-rule="evenodd" d="M18.8074 6.62357L18.185 5.54348C17.6584 4.62956 16.4914 4.31427 15.5763 4.83867C15.1406 5.0953 14.6208 5.16811 14.1314 5.04104C13.6421 4.91398 13.2233 4.59747 12.9676 4.16133C12.803 3.8841 12.7146 3.56835 12.7113 3.24599C12.7261 2.72918 12.5311 2.22836 12.1708 1.85762C11.8104 1.48689 11.3153 1.27782 10.7982 1.27803H9.54423C9.0377 1.27803 8.55205 1.47987 8.19473 1.8389C7.83742 2.19793 7.63791 2.68455 7.64034 3.19107C7.62533 4.23688 6.77321 5.07677 5.7273 5.07666C5.40494 5.07331 5.08919 4.9849 4.81197 4.82036C3.89679 4.29597 2.72985 4.61125 2.20327 5.52517L1.53508 6.62357C1.00914 7.53635 1.32013 8.70256 2.23073 9.23226C2.82263 9.57399 3.18726 10.2055 3.18726 10.889C3.18726 11.5725 2.82263 12.204 2.23073 12.5458C1.32129 13.0719 1.00996 14.2353 1.53508 15.1453L2.16666 16.2346C2.41338 16.6797 2.82734 17.0082 3.31693 17.1474C3.80652 17.2865 4.33137 17.2249 4.77535 16.976C5.21181 16.7213 5.73192 16.6515 6.22007 16.7822C6.70822 16.9128 7.12397 17.233 7.3749 17.6716C7.53943 17.9488 7.62784 18.2646 7.63119 18.587C7.63119 19.6435 8.48769 20.5 9.54423 20.5H10.7982C11.8512 20.5 12.7062 19.6491 12.7113 18.5961C12.7088 18.088 12.9096 17.6 13.2689 17.2407C13.6282 16.8814 14.1162 16.6806 14.6243 16.6831C14.9459 16.6917 15.2604 16.7797 15.5397 16.9394C16.4524 17.4653 17.6186 17.1543 18.1483 16.2437L18.8074 15.1453C19.0625 14.7075 19.1325 14.186 19.0019 13.6963C18.8714 13.2067 18.551 12.7893 18.1117 12.5366C17.6725 12.2839 17.3521 11.8665 17.2215 11.3769C17.091 10.8873 17.161 10.3658 17.4161 9.92792C17.582 9.63829 17.8221 9.39815 18.1117 9.23226C19.0169 8.70285 19.3271 7.54345 18.8074 6.63272V6.62357Z" stroke="current" stroke-width="1.5" stroke-linecap="round" stroke-linejoin="round"/>
<path d="M10.1751 13.525C11.6309 13.525 12.8111 12.3448 12.8111 10.889C12.8111 9.43317 11.6309 8.25299 10.1751 8.25299C8.71924 8.25299 7.53906 9.43317 7.53906 10.889C7.53906 12.3448 8.71924 13.525 10.1751 13.525Z" stroke="current" stroke-width="1.5" stroke-linecap="round" stroke-linejoin="round"/>
</svg>
