<svg width="24" height="24" viewBox="0 0 24 24" fill="none" xmlns="http://www.w3.org/2000/svg">
<path d="M16.7823 3.11538C16.7823 2.90323 16.7406 2.69315 16.6594 2.49713C16.5783 2.30112 16.4593 2.12302 16.3093 1.97301C16.1593 1.82299 15.9812 1.70401 15.7852 1.62285C15.5891 1.54169 15.3791 1.49994 15.1669 1.5H12.9255L16.7823 5.35673V3.11538ZM18.4421 12.3069C15.7997 11.4347 12.8731 13.5596 12.9458 16.3575C12.8684 19.1649 15.8452 21.2983 18.4825 20.3918C22.3949 19.1797 22.3848 13.5051 18.4421 12.3069ZM16.7823 15.9011C16.9739 16.0059 17.3832 15.9157 17.59 15.9617C17.8551 16.0013 18.0972 16.1348 18.2721 16.3379C18.4471 16.541 18.5432 16.8002 18.5431 17.0683V17.5407C18.5429 17.8087 18.4466 18.0677 18.2717 18.2707C18.0969 18.4738 17.855 18.6074 17.59 18.6473V19.0067C17.5782 19.1084 17.5282 19.2019 17.45 19.268C17.3719 19.3342 17.2715 19.3682 17.1692 19.3631C17.067 19.3579 16.9705 19.314 16.8994 19.2404C16.8282 19.1667 16.7878 19.0687 16.7863 18.9663V18.6594H16.2371C16.1314 18.6573 16.0307 18.6138 15.9567 18.5383C15.8827 18.4628 15.8413 18.3613 15.8413 18.2555C15.8413 18.1498 15.8827 18.0483 15.9567 17.9728C16.0307 17.8973 16.1314 17.8538 16.2371 17.8517H17.4244C17.4653 17.8518 17.5057 17.8438 17.5435 17.8282C17.5813 17.8126 17.6156 17.7897 17.6445 17.7608C17.6734 17.7319 17.6963 17.6976 17.7119 17.6598C17.7275 17.6221 17.7354 17.5816 17.7354 17.5407V17.0683C17.7207 16.6018 17.0858 16.8084 16.8025 16.7452C16.5344 16.7108 16.2881 16.5799 16.1097 16.3769C15.9313 16.174 15.833 15.9129 15.8332 15.6427V15.1661C15.8342 14.8988 15.9308 14.6407 16.1057 14.4384C16.2805 14.2362 16.5219 14.1032 16.7863 14.0636V13.7446C16.7878 13.6422 16.8283 13.5443 16.8994 13.4706C16.9705 13.3969 17.067 13.3531 17.1692 13.3479C17.2715 13.3428 17.3719 13.3768 17.45 13.4429C17.5282 13.5091 17.5782 13.6025 17.59 13.7042V14.0515C17.5939 14.0501 18.135 14.0526 18.1392 14.0515C18.2461 14.0518 18.3485 14.0945 18.424 14.1702C18.4995 14.2459 18.5418 14.3485 18.5418 14.4554C18.5418 14.5623 18.4995 14.6648 18.424 14.7405C18.3485 14.8162 18.2461 14.8589 18.1392 14.8592H16.9519C16.87 14.8587 16.7912 14.8907 16.7328 14.9483C16.6745 15.0058 16.6415 15.0842 16.6409 15.1661C16.6597 15.3594 16.5653 15.7893 16.7823 15.9011Z" fill="white"/>
<path d="M16.7824 11.3256L16.7823 6.73382H13.9715C13.329 6.73331 12.713 6.47786 12.2587 6.02355C11.8044 5.56925 11.5489 4.95322 11.5484 4.31074V1.5H4.19035C3.9782 1.49994 3.76812 1.54168 3.5721 1.62284C3.37609 1.704 3.19798 1.82299 3.04797 1.973C2.89795 2.12301 2.77896 2.30111 2.6978 2.49713C2.61664 2.69314 2.57489 2.90323 2.57495 3.11538V20.8846C2.5749 21.0968 2.61664 21.3069 2.69781 21.5029C2.77897 21.6989 2.89796 21.877 3.04797 22.027C3.19799 22.177 3.37609 22.296 3.5721 22.3772C3.76812 22.4583 3.9782 22.5001 4.19035 22.5H15.1669C15.5091 22.4993 15.8422 22.3903 16.1187 22.1886C16.3951 21.9869 16.6005 21.7029 16.7056 21.3773C10.6715 20.7531 10.6679 11.874 16.7824 11.3256ZM5.59573 4.88828H9.67862C9.7848 4.88969 9.88615 4.93286 9.96073 5.00844C10.0353 5.08403 10.0771 5.18594 10.0771 5.29213C10.0771 5.39831 10.0353 5.50022 9.96071 5.5758C9.88613 5.65138 9.78478 5.69455 9.6786 5.69595H5.59573C5.48993 5.69399 5.38911 5.65058 5.31498 5.57506C5.24084 5.49954 5.19931 5.39794 5.19931 5.29211C5.19931 5.18629 5.24084 5.08469 5.31498 5.00917C5.38911 4.93365 5.48993 4.89024 5.59573 4.88828ZM5.59573 9.09231H13.7615C13.8678 9.09356 13.9693 9.13667 14.044 9.21227C14.1187 9.28787 14.1606 9.38988 14.1606 9.49616C14.1606 9.60245 14.1187 9.70446 14.044 9.78005C13.9693 9.85565 13.8678 9.89875 13.7615 9.9H5.59573C5.48981 9.8982 5.38884 9.85486 5.31457 9.77932C5.2403 9.70378 5.19868 9.60209 5.19868 9.49615C5.19868 9.39022 5.2403 9.28852 5.31457 9.21298C5.38884 9.13744 5.48981 9.0941 5.59573 9.09231ZM5.59573 13.6962H9.67862C9.78471 13.6977 9.88592 13.7409 9.96039 13.8165C10.0349 13.8921 10.0766 13.9939 10.0766 14.1C10.0766 14.2061 10.0349 14.3079 9.96038 14.3835C9.8859 14.4591 9.78469 14.5023 9.6786 14.5039H5.59573C5.48989 14.5019 5.38902 14.4586 5.31484 14.383C5.24066 14.3075 5.1991 14.2059 5.1991 14.1C5.1991 13.9941 5.24066 13.8925 5.31484 13.817C5.38902 13.7414 5.48989 13.6981 5.59573 13.6962ZM10.6721 19.1117H5.59573C5.48884 19.1114 5.38643 19.0687 5.31096 18.993C5.23549 18.9173 5.19311 18.8148 5.19311 18.7079C5.19311 18.601 5.23549 18.4984 5.31096 18.4227C5.38643 18.347 5.48884 18.3043 5.59573 18.304H10.6721C10.7782 18.3056 10.8793 18.3489 10.9537 18.4245C11.0281 18.5 11.0699 18.6018 11.0699 18.7079C11.0699 18.8139 11.0281 18.9157 10.9537 18.9913C10.8793 19.0669 10.7781 19.1101 10.6721 19.1117H10.6721ZM11.0759 14.5039C10.9696 14.5027 10.868 14.4596 10.7932 14.384C10.7185 14.3084 10.6765 14.2063 10.6765 14.1C10.6765 13.9936 10.7185 13.8916 10.7933 13.816C10.868 13.7404 10.9696 13.6973 11.076 13.6962C11.1823 13.6973 11.2839 13.7404 11.3587 13.816C11.4335 13.8916 11.4754 13.9937 11.4754 14.1C11.4754 14.2064 11.4334 14.3084 11.3587 14.384C11.2839 14.4596 11.1823 14.5027 11.0759 14.5039H11.0759Z" fill="white"/>
<path d="M13.9713 5.92613H16.2086L12.356 2.06941V4.31074C12.3559 4.52289 12.3976 4.73297 12.4788 4.92899C12.56 5.125 12.6789 5.30311 12.829 5.45312C12.979 5.60313 13.1571 5.72212 13.3531 5.80328C13.5491 5.88444 13.7592 5.92618 13.9713 5.92613Z" fill="white"/>
<ellipse cx="17.25" cy="16.3125" rx="3.375" ry="3.1875" fill="white"/>
<g clip-path="url(#clip0_48_1417)">
<path d="M18.9375 15.0938H18.3188C18.2625 14.8969 18.15 14.7 18.0375 14.5312H18.9375C19.1063 14.5312 19.2188 14.4188 19.2188 14.25C19.2188 14.0812 19.1063 13.9688 18.9375 13.9688H15.8438C15.675 13.9688 15.5625 14.0812 15.5625 14.25C15.5625 14.4188 15.675 14.5312 15.8438 14.5312H16.8281C17.1938 14.5312 17.5594 14.7562 17.7 15.0938H15.8438C15.675 15.0938 15.5625 15.2062 15.5625 15.375C15.5625 15.5438 15.675 15.6562 15.8438 15.6562H17.7844C17.7281 16.1344 17.3062 16.5 16.8281 16.5H15.8438H15.8156C15.7875 16.5 15.7875 16.5 15.7594 16.5C15.7312 16.5 15.7313 16.5281 15.7031 16.5281C15.7031 16.5281 15.675 16.5281 15.675 16.5562C15.6469 16.5844 15.6187 16.6125 15.6187 16.6406C15.6187 16.6688 15.6187 16.6688 15.6187 16.6969C15.6187 16.725 15.6187 16.725 15.6187 16.7531V16.7812C15.6187 16.8094 15.6469 16.8656 15.6469 16.8937C15.6469 16.8937 15.6469 16.9219 15.675 16.9219L17.3625 18.8906C17.475 19.0031 17.6437 19.0312 17.7563 18.9188C17.8688 18.8063 17.8969 18.6375 17.7844 18.525L16.4625 17.0625H16.8281C17.6156 17.0625 18.2906 16.4437 18.375 15.6562H18.9375C19.1063 15.6562 19.2188 15.5438 19.2188 15.375C19.2188 15.2062 19.1063 15.0938 18.9375 15.0938Z" fill="#3783FB"/>
</g>
<defs>
<clipPath id="clip0_48_1417">
<rect width="6.75" height="6.75" fill="white" transform="translate(13.875 13.125)"/>
</clipPath>
</defs>
</svg>
