<svg width="20" height="11" viewBox="0 0 20 13" fill="none" xmlns="http://www.w3.org/2000/svg">
<path d="M0.9375 0.310547H19.0625C19.3111 0.310547 19.5496 0.4138 19.7254 0.597593C19.9012 0.781385 20 1.03066 20 1.29058C20 1.55051 19.9012 1.79978 19.7254 1.98357C19.5496 2.16737 19.3111 2.27062 19.0625 2.27062H0.9375C0.68886 2.27062 0.450403 2.16737 0.274587 1.98357C0.098772 1.79978 0 1.55051 0 1.29058C0 1.03066 0.098772 0.781385 0.274587 0.597593C0.450403 0.4138 0.68886 0.310547 0.9375 0.310547ZM3.75 6.51744C3.75 6.25752 3.84877 6.00825 4.02459 5.82445C4.2004 5.64066 4.43886 5.53741 4.6875 5.53741H15.3125C15.5611 5.53741 15.7996 5.64066 15.9754 5.82445C16.1512 6.00825 16.25 6.25752 16.25 6.51744C16.25 6.77737 16.1512 7.02664 15.9754 7.21043C15.7996 7.39423 15.5611 7.49748 15.3125 7.49748H4.6875C4.43886 7.49748 4.2004 7.39423 4.02459 7.21043C3.84877 7.02664 3.75 6.77737 3.75 6.51744ZM7.5 11.7443C7.5 11.4844 7.59877 11.2351 7.77459 11.0513C7.9504 10.8675 8.18886 10.7643 8.4375 10.7643H11.5625C11.8111 10.7643 12.0496 10.8675 12.2254 11.0513C12.4012 11.2351 12.5 11.4844 12.5 11.7443C12.5 12.0042 12.4012 12.2535 12.2254 12.4373C12.0496 12.6211 11.8111 12.7243 11.5625 12.7243H8.4375C8.18886 12.7243 7.9504 12.6211 7.77459 12.4373C7.59877 12.2535 7.5 12.0042 7.5 11.7443Z" fill="#ABABAB"/>
</svg>
