<svg width="24" height="24" viewBox="0 0 24 24" fill="none" xmlns="http://www.w3.org/2000/svg">
<path fill-rule="evenodd" clip-rule="evenodd" d="M2.59794 3.31761C3.03838 1.67847 4.31502 0.430653 5.93141 0.0594762C6.36127 -0.0392597 7.54522 -0.0100162 7.97166 0.109903C8.4791 0.252505 9.24795 0.670595 9.65575 1.0256C10.3329 1.61512 10.8409 2.43343 11.0784 3.31761C11.1688 3.6537 11.1886 3.86399 11.1879 4.47733C11.1872 5.1398 11.1715 5.27905 11.0525 5.68055C10.4688 7.65103 8.82821 8.92664 6.86337 8.93786C5.96531 8.94297 5.21425 8.72023 4.47477 8.2296C3.55786 7.62122 2.95128 6.78597 2.62398 5.68102C2.50489 5.27899 2.48922 5.14001 2.48847 4.47733C2.48776 3.86399 2.50761 3.6537 2.59794 3.31761ZM2.45512 11.9881C3.38915 11.2674 4.25689 10.9307 5.75509 10.7076C6.07836 10.6594 8.38525 10.7312 8.7525 10.8009C9.75189 10.9904 10.7064 11.4995 11.5011 12.2204C9.97883 13.3261 8.98357 15.158 8.98357 17.2308C8.98357 19.7425 10.4448 21.9004 12.5342 22.8413C12.0728 22.9953 11.3242 23 6.5863 23H1.4227L1.09525 22.8394C0.702414 22.6467 0.38343 22.3271 0.199858 21.9424L0.0646969 21.6591L0.0195087 19.8237C-0.0452757 17.1944 0.0446469 15.9982 0.389576 14.9007C0.758584 13.7268 1.43146 12.7779 2.45512 11.9881Z" fill="#142464"/>
<path d="M23.1854 8.76944C22.7374 9.41849 22.0218 10.4623 21.5952 11.089C21.1687 11.7156 20.8005 12.2283 20.7772 12.2283C20.7538 12.2283 20.5475 11.9523 20.3186 11.6148C20.0897 11.2773 19.3763 10.2335 18.7334 9.29524L17.5644 7.58926L18.5376 7.55933C19.2381 7.53778 19.5385 7.50636 19.6096 7.44728L19.7083 7.36509V5.90591V4.44667H20.7853H21.8623V5.90591V7.36509L21.961 7.44728C22.032 7.50636 22.332 7.53778 23.0299 7.55933L24 7.58926L23.1854 8.76944Z" fill="#142464"/>
<path d="M16.1273 9.74974C15.8286 10.2133 15.3515 10.9589 15.0671 11.4065C14.7828 11.8542 14.5373 12.2204 14.5218 12.2204C14.5062 12.2204 14.3686 12.0232 14.216 11.7821C14.0634 11.5411 13.5879 10.7955 13.1592 10.1253L12.3799 8.90675L13.0287 8.88537C13.4957 8.86998 13.696 8.84754 13.7434 8.80534L13.8092 8.74663V7.70436V6.66204H14.5272H15.2452V7.70436V8.74663L15.311 8.80534C15.3583 8.84754 15.5583 8.86998 16.0235 8.88537L16.6703 8.90675L16.1273 9.74974Z" fill="#142464"/>
<path fill-rule="evenodd" clip-rule="evenodd" d="M12.3799 13.1927C12.8855 12.8912 13.4444 12.6953 14.0539 12.6063C14.4784 12.5443 14.6888 12.5413 15.1161 12.5913C16.2082 12.719 17.1166 13.1787 17.8979 13.999C18.7955 14.9414 19.2451 16.0739 19.2445 17.3911C19.2439 18.6854 18.7851 19.8743 17.941 20.7686C16.7303 22.0513 15.0331 22.5234 13.4265 22.0581C13.2539 22.0081 13.0823 21.9473 12.9125 21.8755C11.507 21.2813 10.4998 20.0257 10.1354 18.4137L10.0562 18.063L10.058 17.3763L10.0598 16.6896L10.1714 16.242C10.391 15.3605 10.8021 14.602 11.3969 13.981C11.6978 13.6668 12.0258 13.4038 12.3799 13.1927ZM18.7105 14.3207C18.5563 14.0853 18.0077 13.4814 17.7649 13.2797L17.6194 13.1589L20.4937 13.1694L23.3679 13.1799L23.5187 13.2644C24.1119 13.5971 24.1547 14.4493 23.5972 14.8277L23.4407 14.9339L23.086 14.9475L22.7312 14.961V14.6408C22.7312 14.2908 22.7032 14.229 22.5441 14.229C22.3896 14.229 22.331 14.3518 22.331 14.6762V14.9538H21.9672H21.6034L21.6028 14.6963C21.6022 14.3826 21.5475 14.2525 21.4093 14.2358C21.2368 14.2148 21.2031 14.2798 21.2031 14.6342V14.9538H20.8211H20.4391V14.6612V14.3685L20.3789 14.2988C20.3105 14.2195 20.1478 14.2064 20.0825 14.2748C20.0556 14.303 20.0389 14.4418 20.0389 14.6372V14.9538H19.6569H19.2748V14.6652C19.2748 14.3058 19.2397 14.229 19.0756 14.229C18.9408 14.229 18.9108 14.2594 18.8775 14.43L18.8556 14.5422L18.7105 14.3207ZM19.3984 15.7388C19.3505 15.5935 19.3112 15.4511 19.3112 15.4223V15.3699L21.3396 15.3812L23.3679 15.3925L23.5187 15.4771C24.0352 15.7667 24.1581 16.4285 23.7793 16.8797C23.598 17.0957 23.3841 17.1819 23.0245 17.184L22.7494 17.1856L22.7385 16.9201C22.7261 16.6192 22.6929 16.5561 22.5469 16.5561C22.3957 16.5561 22.331 16.6787 22.331 16.9652V17.2047H21.9672H21.6034L21.6028 16.9853C21.6021 16.6995 21.5438 16.5786 21.3993 16.5637C21.2455 16.5478 21.2085 16.6126 21.1959 16.9201L21.185 17.1856L20.812 17.1965L20.4391 17.2073V16.9665C20.4391 16.6786 20.3746 16.5561 20.2232 16.5561C20.0772 16.5561 20.044 16.6192 20.0316 16.9201L20.0207 17.1856H19.8388H19.6569L19.6309 16.8804C19.5989 16.506 19.514 16.0888 19.3984 15.7388ZM19.6057 18.1012C19.6285 17.8914 19.6529 17.6982 19.66 17.672L19.6728 17.6243H21.5124H23.3521L23.4692 17.6757C23.8608 17.8478 24.0822 18.3229 23.9688 18.7476C23.9124 18.9589 23.7178 19.2027 23.5187 19.3117L23.3679 19.3941L23.0587 19.3962L22.7494 19.3983L22.7386 19.1139C22.7264 18.7942 22.6946 18.7306 22.5469 18.7306C22.3924 18.7306 22.331 18.8523 22.331 19.1588V19.4173H21.9672H21.6034L21.6028 19.1789C21.6021 18.8745 21.5462 18.7534 21.3993 18.7382C21.2436 18.7222 21.2082 18.7875 21.1958 19.1139L21.185 19.3983L20.812 19.4091L20.4391 19.42V19.1451C20.4391 18.834 20.3843 18.7306 20.2196 18.7306C20.0757 18.7306 20.0437 18.7959 20.0315 19.1139L20.0207 19.3983L19.6615 19.4093L19.3022 19.4202L19.3228 19.333C19.3341 19.2849 19.3931 19.074 19.4538 18.8642C19.5145 18.6543 19.5829 18.311 19.6057 18.1012ZM18.202 21.0807C18.5133 20.7514 18.7729 20.3961 19.0342 19.9419L19.0946 19.837H21.2157H23.3367L23.5342 19.9419C24.1431 20.2653 24.153 21.191 23.5511 21.514L23.3703 21.611H23.0599H22.7494L22.7385 21.3455C22.7261 21.0446 22.6929 20.9815 22.5469 20.9815C22.3957 20.9815 22.331 21.1041 22.331 21.3906V21.63H21.9672H21.6034L21.6028 21.4107C21.6022 21.1337 21.5429 21.0044 21.4093 20.9883C21.2414 20.9679 21.2031 21.0348 21.2031 21.3486V21.63H20.8211H20.4391V21.3755C20.4391 21.0874 20.3809 20.9815 20.2224 20.9815C20.0715 20.9815 20.0389 21.0471 20.0389 21.3515V21.63H19.6569H19.2748V21.3657C19.2748 21.0664 19.2263 20.9815 19.0552 20.9815C18.9152 20.9815 18.8746 21.0709 18.8746 21.3795V21.63L18.247 21.6288L17.6194 21.6276L17.7286 21.5468C17.7886 21.5024 18.0017 21.2927 18.202 21.0807ZM12.9125 15.5217V15.1747V14.8277H14.5214H16.1303V15.176V15.5243H15.7347C15.399 15.5243 15.3391 15.5275 15.3391 15.5453C15.3391 15.5568 15.3443 15.5697 15.3506 15.574C15.3722 15.5887 15.4714 15.7841 15.5179 15.9036C15.5434 15.9692 15.5751 16.069 15.5885 16.1255L15.6127 16.2282L15.8715 16.2321L16.1303 16.2361V16.5838V16.9315L15.8715 16.9354L15.6127 16.9393L15.5887 17.0409C15.5754 17.0968 15.5464 17.1911 15.524 17.2506C15.362 17.6824 15.0454 18.0312 14.6549 18.2085C14.4633 18.2954 14.3127 18.3274 14.0551 18.336L13.8196 18.3438L14.5286 19.1241L15.2375 19.9043L15.0194 20.1452C14.8994 20.2777 14.7952 20.3861 14.7878 20.3861C14.7803 20.3861 14.3553 19.9251 13.8434 19.3617L12.9125 18.3374V17.9903V17.6432L13.4961 17.6429C13.8171 17.6427 14.1203 17.6361 14.1701 17.6282C14.291 17.609 14.4329 17.5551 14.5359 17.4894C14.662 17.409 14.8199 17.2262 14.8877 17.0822C14.9184 17.0172 14.9434 16.9568 14.9434 16.948C14.9434 16.9366 14.6562 16.9321 13.928 16.9321H12.9125V16.5838V16.2355H13.928C14.6562 16.2355 14.9434 16.231 14.9434 16.2195C14.9434 16.2108 14.9183 16.1504 14.8875 16.0853C14.8092 15.9196 14.648 15.7422 14.4988 15.6575C14.2866 15.537 14.2707 15.5348 13.5488 15.5279L12.9125 15.5217Z" fill="#142464"/>
</svg>
