<svg width="26" height="24" viewBox="0 0 26 24" fill="none" xmlns="http://www.w3.org/2000/svg">
<path fill-rule="evenodd" clip-rule="evenodd" d="M2.45354 4.17336C2.86951 2.60549 4.0752 1.41193 5.60174 1.05689C6.00772 0.962447 7.12587 0.990419 7.5286 1.10512C8.00784 1.24153 8.73396 1.64144 9.11909 1.98101C9.75862 2.5449 10.2383 3.32763 10.4627 4.17336C10.548 4.49484 10.5668 4.69599 10.5661 5.28266C10.5654 5.91633 10.5506 6.04952 10.4383 6.43357C9.88693 8.31838 8.33755 9.53853 6.48191 9.54925C5.63376 9.55415 4.92444 9.34109 4.22606 8.87179C3.36012 8.28986 2.78725 7.49093 2.47814 6.43402C2.36567 6.04947 2.35087 5.91653 2.35016 5.28266C2.34949 4.69599 2.36824 4.49484 2.45354 4.17336ZM2.31866 12.4669C3.20078 11.7775 4.02029 11.4554 5.43523 11.242C5.74053 11.196 7.91921 11.2646 8.26604 11.3313C9.31303 11.5324 10.3079 12.1096 11.1024 12.9222C10.7991 13.1182 10.5112 13.3441 10.2409 13.5989C9.50447 14.2931 9.05178 14.9965 8.71714 15.9666C8.49931 16.5982 8.48514 16.6994 8.48428 17.6301C8.4832 18.7971 8.57891 19.226 9.05257 20.1785C9.65359 21.3868 10.6028 22.2916 11.8439 22.846C11.4085 22.9954 10.7163 23 6.22024 23H1.34363L1.03438 22.8464C0.663375 22.6621 0.36212 22.3564 0.18875 21.9884L0.0611011 21.7174L0.0184244 19.9618C-0.0427593 17.4468 0.0421655 16.3026 0.367923 15.2529C0.716423 14.13 1.3519 13.2224 2.31866 12.4669Z" fill="#142464"/>
<path d="M19.4395 10.0818C20.0473 9.96716 21.022 9.78005 21.6056 9.66596C22.189 9.55184 22.6771 9.46968 22.6901 9.48331C22.7031 9.49694 22.6654 9.77754 22.6064 10.1069C22.5474 10.4363 22.3679 11.4581 22.2075 12.3777L21.9159 14.0496L21.3577 13.4984C20.956 13.1017 20.7715 12.9444 20.6993 12.9371L20.599 12.9271L19.7931 13.7731L18.9872 14.619L18.3878 13.9899L17.7884 13.3607L18.5944 12.5148L19.4003 11.6688L19.3907 11.5635C19.3838 11.4878 19.2342 11.2943 18.8578 10.8742L18.3344 10.2901L19.4395 10.0818Z" fill="#142464"/>
<path d="M23.2984 15.7607C23.8054 16.1308 24.6206 16.722 25.1101 17.0744C25.5996 17.4268 26 17.731 26 17.7502C26 17.7695 25.7844 17.94 25.5208 18.1291C25.2572 18.3182 24.4419 18.9075 23.7091 19.4387L22.3766 20.4044L22.3532 19.6004C22.3364 19.0217 22.3119 18.7735 22.2657 18.7148L22.2015 18.6333H21.0618H19.9221V17.7435V16.8538H21.0618H22.2015L22.2657 16.7722C22.3119 16.7136 22.3364 16.4657 22.3532 15.8892L22.3766 15.0877L23.2984 15.7607Z" fill="#142464"/>
<path d="M12.1708 8.55015C12.5233 8.018 13.0865 7.1622 13.4223 6.64842C13.758 6.13463 14.0477 5.71429 14.0661 5.71429C14.0845 5.71429 14.2469 5.94063 14.427 6.21732C14.6072 6.49402 15.1686 7.34977 15.6746 8.11905L16.5946 9.51775L15.8286 9.54229C15.2774 9.55996 15.0409 9.58572 14.985 9.63416L14.9073 9.70154V10.8979V12.0943L14.0597 12.0943L13.2121 12.0943V10.8979V9.70154L13.1344 9.63416C13.0785 9.58572 12.8424 9.55995 12.2932 9.54229L11.5297 9.51775L12.1708 8.55015Z" fill="#142464"/>
<path fill-rule="evenodd" clip-rule="evenodd" d="M9.30046 18.2982C9.07605 16.6775 9.73289 15.0384 11.0529 13.9252C11.1976 13.8032 11.402 13.6678 11.6309 13.5369C12.0625 13.29 12.5813 13.059 12.9517 12.9631C13.4838 12.8254 14.8107 12.823 15.3526 12.9588C15.5873 13.0176 16.053 13.1976 16.3877 13.3588C17.1749 13.738 18.0861 14.6123 18.4785 15.3649C19.5197 17.3623 19.1844 19.5864 17.6093 21.1302C17.045 21.6832 16.4159 22.0611 15.6361 22.3156C15.1402 22.4774 14.9434 22.5025 14.1686 22.5025C13.3939 22.5025 13.1971 22.4774 12.7012 22.3156C12.6595 22.302 12.6184 22.2881 12.5777 22.2739C11.8397 22.0157 11.255 21.6486 10.698 21.0963C9.88651 20.2917 9.45751 19.4329 9.30046 18.2982ZM12.5362 15.982V15.65V15.3181H14.0557H15.5752V15.6513V15.9845H15.2015C14.8845 15.9845 14.8279 15.9875 14.8279 16.0045C14.8279 16.0155 14.8328 16.0278 14.8388 16.032C14.8592 16.046 14.9528 16.2329 14.9967 16.3472C15.0208 16.41 15.0508 16.5055 15.0634 16.5595L15.0863 16.6577L15.3307 16.6615L15.5752 16.6652V16.9978V17.3304L15.3307 17.3342L15.0863 17.3379L15.0636 17.4351C15.0511 17.4885 15.0237 17.5788 15.0026 17.6357C14.8495 18.0487 14.5506 18.3824 14.1817 18.5519C14.0008 18.6351 13.8585 18.6657 13.6153 18.6738L13.3929 18.6813L14.0624 19.4277L14.732 20.174L14.526 20.4044C14.4127 20.5311 14.3143 20.6348 14.3072 20.6348C14.3002 20.6348 13.8988 20.1939 13.4153 19.655L12.5362 18.6752V18.3432V18.0112L13.0873 18.0109C13.3905 18.0107 13.6769 18.0044 13.7239 17.9969C13.8381 17.9785 13.9721 17.927 14.0694 17.8641C14.1884 17.7871 14.3376 17.6123 14.4016 17.4746C14.4306 17.4124 14.4543 17.3546 14.4543 17.3462C14.4543 17.3353 14.183 17.331 13.4952 17.331H12.5362V16.9978V16.6647H13.4952C14.183 16.6647 14.4543 16.6604 14.4543 16.6494C14.4543 16.641 14.4305 16.5833 14.4014 16.521C14.3275 16.3625 14.1752 16.1928 14.0344 16.1118C13.8339 15.9966 13.8189 15.9945 13.1372 15.9878L12.5362 15.982Z" fill="#142464"/>
</svg>
