<svg width="24" height="24" viewBox="0 0 24 24" fill="none" xmlns="http://www.w3.org/2000/svg">
<path fill-rule="evenodd" clip-rule="evenodd" d="M3.14187 2.11349C1.66908 2.4446 0.42012 3.7601 0.108414 5.30851C-0.0361379 6.0268 -0.0361379 14.6747 0.108414 15.393C0.42352 16.9583 1.67448 18.2632 3.1752 18.5919C3.56505 18.6772 4.60392 18.6943 9.48267 18.6953L15.3234 18.6965L15.5614 18.2783L15.7993 17.86L15.5746 17.4707C14.8325 16.1852 15.3305 14.5591 16.6652 13.9098C17.0198 13.7372 17.1161 13.7241 18.196 13.7004L19.3484 13.6752L19.5069 13.3489C19.594 13.1695 19.8053 12.8882 19.9763 12.7237C20.7871 11.9442 21.9086 11.8175 22.8369 12.4007L23.2111 12.6357L23.2099 9.2155C23.209 6.47754 23.1892 5.69826 23.1108 5.30851C22.7957 3.74313 21.5447 2.43827 20.044 2.10959C19.3657 1.96104 3.80395 1.96465 3.14187 2.11349ZM3.10326 4.63786C2.53239 4.91411 2.3873 5.31081 2.41917 6.50835L2.44178 7.35788L2.65974 7.58509C2.8473 7.78052 2.9239 7.81224 3.20854 7.81224C3.49324 7.81224 3.56972 7.78052 3.75734 7.58488C3.9635 7.36991 3.97657 7.32596 3.99857 6.77458L4.02178 6.19156L4.58071 6.16736C5.10931 6.14441 5.15145 6.13078 5.35754 5.91574C5.5451 5.72003 5.57551 5.64026 5.57551 5.34329C5.57551 5.04639 5.5451 4.96648 5.35775 4.77084L5.13992 4.54349L4.25761 4.52485C3.50738 4.50906 3.33449 4.52596 3.10326 4.63786ZM18.1104 4.57506C17.8173 4.7015 17.6437 4.98894 17.6437 5.34753C17.6437 5.6397 17.6748 5.72079 17.8617 5.91574C18.0678 6.13078 18.1099 6.14441 18.6385 6.16736L19.1974 6.19156L19.2206 6.77458C19.2426 7.32596 19.2557 7.36991 19.4619 7.58488C19.6495 7.78052 19.726 7.81224 20.0107 7.81224C20.2953 7.81224 20.3719 7.78052 20.5595 7.58509L20.7774 7.35788L20.8 6.50835C20.8242 5.60048 20.7676 5.27298 20.5327 4.96147C20.2683 4.61088 19.937 4.51143 19.0439 4.51463C18.6038 4.51623 18.1838 4.54342 18.1104 4.57506ZM10.9501 7.08769C10.0753 7.26684 9.1769 7.9955 8.76878 8.85678C7.42681 11.6891 10.2371 14.6886 12.979 13.3503C14.2207 12.7442 14.9711 11.2765 14.7615 9.8639C14.4814 7.97686 12.7536 6.71825 10.9501 7.08769ZM2.9085 12.9173C2.83516 12.9509 2.70014 13.0624 2.60846 13.1652C2.45211 13.3405 2.44038 13.4061 2.41951 14.2254C2.39404 15.2217 2.48051 15.5812 2.81629 15.876C3.12306 16.1452 3.4305 16.2075 4.32548 16.1816L5.13992 16.158L5.35775 15.9306C5.5451 15.735 5.57551 15.6551 5.57551 15.3582C5.57551 15.0612 5.5451 14.9814 5.35754 14.7857C5.15145 14.5707 5.10931 14.5571 4.58071 14.5341L4.02178 14.5099L3.99857 13.9269C3.97684 13.3829 3.9615 13.3295 3.76908 13.1288C3.54892 12.8992 3.1578 12.8031 2.9085 12.9173ZM21.3108 13.7554C21.0187 13.8815 20.8441 14.1694 20.8441 14.5253C20.8441 14.8159 20.8761 14.8981 21.0711 15.1079L21.2981 15.3523L19.2888 15.3726L17.2794 15.393L17.0615 15.6203C16.874 15.816 16.8436 15.8958 16.8436 16.1928C16.8436 16.4897 16.8739 16.5695 17.0616 16.7652L17.2795 16.9926H20.4077H23.5357L23.7369 16.7915C23.9614 16.5671 24.0432 16.2949 23.9785 15.9874C23.9294 15.7543 22.1608 13.8577 21.8938 13.7518C21.7032 13.6762 21.4913 13.6776 21.3108 13.7554ZM17.3103 18.7618C17.0158 18.8912 16.8436 19.177 16.8436 19.5363V19.8782L17.8607 20.9391L18.8777 22H19.2064C19.4781 22 19.5701 21.9651 19.7364 21.7989C20.0853 21.4503 20.0897 20.9802 19.7476 20.5896L19.5565 20.3714L21.5493 20.3512L23.5421 20.3309L23.7599 20.1035C23.9474 19.9078 23.9778 19.828 23.9778 19.5311C23.9778 19.2341 23.9474 19.1543 23.7599 18.9586L23.542 18.7313L20.4929 18.7172C18.8158 18.7095 17.3837 18.7295 17.3103 18.7618Z" fill="#142464"/>
</svg>
