<svg width="24" height="24" viewBox="0 0 24 24" fill="none" xmlns="http://www.w3.org/2000/svg">
<path d="M9 10C11.7614 10 14 7.76142 14 5C14 2.23858 11.7614 0 9 0C6.23858 0 4 2.23858 4 5C4 7.76142 6.23858 10 9 10Z" fill="white"/>
<path d="M11.534 20.8C11.013 19.898 11.117 18.787 11.737 18C11.117 17.213 11.013 16.103 11.534 15.2L12.343 13.8C12.788 13.029 13.618 12.55 14.509 12.55C14.631 12.55 14.751 12.559 14.87 12.576C14.903 12.494 14.945 12.417 14.986 12.339C14.446 12.126 13.863 12 13.25 12H4.75C2.131 12 0 14.131 0 16.75V20.25C0 20.664 0.336 21 0.75 21H11.649L11.534 20.8Z" fill="white"/>
<path d="M21.703 18.469C21.723 18.314 21.75 18.16 21.75 18C21.75 17.839 21.722 17.686 21.703 17.531L22.604 16.849C22.805 16.697 22.861 16.419 22.735 16.2L21.926 14.8C21.8 14.582 21.531 14.491 21.299 14.589L20.262 15.026C20.009 14.833 19.74 14.663 19.443 14.539L19.305 13.438C19.273 13.188 19.061 13 18.809 13H17.192C16.94 13 16.727 13.188 16.696 13.438L16.558 14.539C16.261 14.663 15.991 14.834 15.739 15.026L14.702 14.589C14.47 14.491 14.201 14.581 14.075 14.8L13.266 16.2C13.14 16.418 13.196 16.696 13.397 16.849L14.298 17.531C14.278 17.686 14.251 17.84 14.251 18C14.251 18.161 14.279 18.314 14.298 18.469L13.397 19.151C13.196 19.303 13.14 19.581 13.266 19.8L14.075 21.201C14.201 21.419 14.47 21.51 14.702 21.412L15.739 20.974C15.992 21.167 16.261 21.337 16.558 21.461L16.696 22.562C16.727 22.812 16.939 23 17.191 23H18.808C19.06 23 19.273 22.812 19.304 22.562L19.442 21.461C19.739 21.337 20.009 21.166 20.261 20.974L21.298 21.411C21.53 21.509 21.799 21.419 21.925 21.2L22.734 19.799C22.86 19.581 22.804 19.303 22.603 19.15L21.703 18.469ZM18 20C16.895 20 16 19.105 16 18C16 16.895 16.895 16 18 16C19.105 16 20 16.895 20 18C20 19.105 19.105 20 18 20Z" fill="white"/>
</svg>
