<svg width="18" height="18" viewBox="0 0 24 24" fill="none" xmlns="http://www.w3.org/2000/svg">
<path d="M13.006 19.1394C13.1402 19.2731 13.2467 19.432 13.3194 19.607C13.3921 19.782 13.4295 19.9696 13.4295 20.159C13.4295 20.3485 13.3921 20.5361 13.3194 20.7111C13.2467 20.886 13.1402 21.0449 13.006 21.1787L12.2933 21.8912C10.9428 23.2414 9.11115 24 7.20126 24C5.29136 24 3.4597 23.2414 2.1092 21.8912C0.758702 20.541 0 18.7097 0 16.8002C0 14.8907 0.758702 13.0594 2.1092 11.7091L5.00318 8.81695C6.30077 7.51641 8.04663 6.76113 9.88313 6.70582C11.7196 6.65051 13.5078 7.29935 14.8813 8.51945C15.0231 8.64547 15.1387 8.79819 15.2215 8.96888C15.3043 9.13957 15.3526 9.32489 15.3638 9.51425C15.3749 9.70362 15.3486 9.89332 15.2864 10.0725C15.2243 10.2518 15.1274 10.417 15.0013 10.5587C14.8753 10.7005 14.7225 10.8161 14.5518 10.8988C14.3811 10.9816 14.1957 11.0299 14.0063 11.0411C13.8169 11.0522 13.6272 11.0259 13.4479 10.9638C13.2687 10.9016 13.1034 10.8047 12.9616 10.6787C12.138 9.94735 11.0659 9.55827 9.96483 9.59105C8.86373 9.62382 7.81676 10.076 7.03808 10.855L4.1465 13.7436C3.33633 14.5537 2.88118 15.6523 2.88118 16.7978C2.88118 17.9433 3.33633 19.0419 4.1465 19.8519C4.95667 20.6619 6.0555 21.117 7.20126 21.117C8.34701 21.117 9.44584 20.6619 10.256 19.8519L10.9687 19.1394C11.1024 19.0055 11.2612 18.8994 11.436 18.8269C11.6108 18.7545 11.7981 18.7172 11.9874 18.7172C12.1766 18.7172 12.3639 18.7545 12.5387 18.8269C12.7135 18.8994 12.8723 19.0055 13.006 19.1394ZM21.8943 2.10527C20.5427 0.757117 18.7115 0 16.8023 0C14.8931 0 13.0618 0.757117 11.7102 2.10527L10.9975 2.81782C10.727 3.08825 10.5751 3.45503 10.5751 3.83747C10.5751 4.21991 10.727 4.58669 10.9975 4.85712C11.268 5.12754 11.6348 5.27947 12.0174 5.27947C12.3999 5.27947 12.7667 5.12754 13.0372 4.85712L13.7499 4.14456C14.5601 3.33455 15.6589 2.87949 16.8047 2.87949C17.9504 2.87949 19.0492 3.33455 19.8594 4.14456C20.6696 4.95457 21.1247 6.05318 21.1247 7.19871C21.1247 8.34423 20.6696 9.44284 19.8594 10.2528L16.9666 13.1462C16.1873 13.925 15.1397 14.3765 14.0383 14.4084C12.937 14.4403 11.865 14.0501 11.0419 13.3178C10.9001 13.1918 10.7348 13.0949 10.5556 13.0327C10.3763 12.9705 10.1866 12.9443 9.9972 12.9554C9.80779 12.9666 9.62244 13.0149 9.45171 13.0976C9.28099 13.1804 9.12824 13.296 9.00219 13.4377C8.87614 13.5795 8.77926 13.7447 8.71707 13.924C8.65488 14.1032 8.62861 14.2929 8.63975 14.4822C8.65089 14.6716 8.69923 14.8569 8.782 15.0276C8.86478 15.1983 8.98037 15.351 9.12218 15.477C10.4948 16.6969 12.2817 17.3461 14.1174 17.2919C15.953 17.2377 17.6985 16.4842 18.9967 15.1855L21.8907 12.2933C23.2407 10.9423 23.9993 9.11095 24 7.20125C24.0007 5.29155 23.2434 3.45962 21.8943 2.10767V2.10527Z" fill="black"/>
</svg>
