<svg width="48" height="48" viewBox="0 0 48 48" fill="none" xmlns="http://www.w3.org/2000/svg">
<circle cx="24" cy="24" r="24" fill="#FFF0DD"/>
<path d="M21.904 29.2291L17.5783 25.1382C17.1854 24.7663 16.6523 24.5573 16.0964 24.5572C15.5406 24.557 15.0074 24.7658 14.6142 25.1376C14.2211 25.5093 14.0001 26.0136 14 26.5395C13.9999 27.0654 14.2206 27.5697 14.6135 27.9417L22.5174 35.4188C22.712 35.6031 22.9431 35.7492 23.1974 35.849C23.4518 35.9487 23.7244 36 23.9998 36C24.2751 36 24.5477 35.9487 24.8021 35.849C25.0564 35.7492 25.2875 35.6031 25.4822 35.4188L33.386 27.943C33.5806 27.7588 33.7351 27.5402 33.8404 27.2996C33.9458 27.059 34 26.8011 34 26.5406C34 26.2802 33.9458 26.0223 33.8404 25.7817C33.7351 25.541 33.5806 25.3224 33.386 25.1382C33.1913 24.9541 32.9602 24.808 32.7058 24.7083C32.4515 24.6087 32.1789 24.5574 31.9036 24.5574C31.6283 24.5574 31.3556 24.6087 31.1013 24.7083C30.8469 24.808 30.6158 24.9541 30.4212 25.1382L26.0955 29.2291V13.9826C26.0955 13.4568 25.8747 12.9525 25.4817 12.5807C25.0886 12.2089 24.5556 12 23.9998 12C23.4439 12 22.9109 12.2089 22.5178 12.5807C22.1248 12.9525 21.904 13.4568 21.904 13.9826V29.2291Z" fill="#FC9414"/>
</svg>
